<svg width="398" height="452" viewBox="0 0 398 452" fill="none" xmlns="http://www.w3.org/2000/svg">
<rect width="398" height="452" rx="16" fill="url(#paint0_linear_561_6823)"/>
<rect x="23" y="361" width="352" height="38" rx="12" fill="url(#paint1_linear_561_6823)"/>
<rect x="24" y="32" width="60" height="60" rx="30" fill="#2C2C2C"/>
<path d="M59 59V57C59 55.6739 58.4732 54.4021 57.5355 53.4645C56.5979 52.5268 55.3261 52 54 52C52.6739 52 51.4021 52.5268 50.4645 53.4645C49.5268 54.4021 49 55.6739 49 57V59C48.2044 59 47.4413 59.3161 46.8787 59.8787C46.3161 60.4413 46 61.2044 46 62V69C46 69.7956 46.3161 70.5587 46.8787 71.1213C47.4413 71.6839 48.2044 72 49 72H59C59.7956 72 60.5587 71.6839 61.1213 71.1213C61.6839 70.5587 62 69.7956 62 69V62C62 61.2044 61.6839 60.4413 61.1213 59.8787C60.5587 59.3161 59.7956 59 59 59ZM51 57C51 56.2044 51.3161 55.4413 51.8787 54.8787C52.4413 54.3161 53.2044 54 54 54C54.7956 54 55.5587 54.3161 56.1213 54.8787C56.6839 55.4413 57 56.2044 57 57V59H51V57ZM60 69C60 69.2652 59.8946 69.5196 59.7071 69.7071C59.5196 69.8946 59.2652 70 59 70H49C48.7348 70 48.4804 69.8946 48.2929 69.7071C48.1054 69.5196 48 69.2652 48 69V62C48 61.7348 48.1054 61.4804 48.2929 61.2929C48.4804 61.1054 48.7348 61 49 61H59C59.2652 61 59.5196 61.1054 59.7071 61.2929C59.8946 61.4804 60 61.7348 60 62V69Z" fill="white"/>
<path d="M109.1 37.8652V40.0938C110.269 40.0459 111.465 39.9434 112.586 39.7793L112.668 40.5723C109.893 41.0781 106.898 41.0918 104.711 41.0918L104.561 40.2031C105.579 40.1963 106.782 40.1895 108.047 40.1484V37.8652H109.1ZM111.957 33.0527V33.9414H109.1C109.127 35.5137 110.433 36.792 112.23 37.3047L111.725 38.1523C110.262 37.7148 109.12 36.7783 108.58 35.541C108.047 36.8467 106.912 37.8174 105.449 38.2617L104.93 37.4414C106.728 36.915 107.992 35.582 108.02 33.9414H105.23V33.0527H108.047V31.5488H109.1V33.0527H111.957ZM114.459 31.4531V43.6348H113.393V31.4531H114.459ZM120.871 34.7207C120.871 36.9219 122.279 39.1367 124.043 39.9434L123.4 40.8184C122.02 40.1074 120.878 38.6514 120.338 36.9219C119.798 38.7402 118.656 40.2988 117.275 41.0371L116.578 40.1758C118.355 39.3008 119.777 36.9629 119.777 34.7207V32.5059H120.871V34.7207ZM126.668 31.4531V43.6348H125.602V36.4844H122.717V35.6094H125.602V31.4531H126.668ZM134.229 31.7676C136.826 31.7812 138.508 32.7109 138.508 34.2012C138.508 35.6914 136.826 36.6074 134.229 36.6074C131.631 36.6074 129.936 35.6914 129.936 34.2012C129.936 32.7109 131.631 31.7812 134.229 31.7676ZM134.229 32.6426C132.342 32.6426 131.07 33.2441 131.084 34.2012C131.07 35.1582 132.342 35.7461 134.229 35.7461C136.115 35.7461 137.373 35.1582 137.373 34.2012C137.373 33.2441 136.115 32.6426 134.229 32.6426ZM139.779 37.5508V38.4395H136.936V40.9688H135.869V38.4395H133.627V40.9688H132.561V38.4395H128.691V37.5508H139.779ZM138.631 42.4453V43.3477H130.059V39.9434H131.139V42.4453H138.631Z" fill="#474747"/>
<g opacity="0.4" clip-path="url(#clip0_561_6823)">
<rect x="144.999" y="33" width="0.8" height="10" fill="#2F2F2F"/>
</g>
<path opacity="0.4" d="M150.729 42.5L150.716 41.5977L154.093 38.043C155.269 36.7988 155.829 36.1289 155.829 35.2129C155.829 34.2012 154.968 33.5312 153.86 33.5312C152.685 33.5312 151.933 34.2832 151.933 35.3906H150.771C150.757 33.6406 152.11 32.4648 153.901 32.4648C155.692 32.4648 156.978 33.668 156.978 35.2129C156.978 36.3203 156.458 37.1816 154.708 38.9863L152.438 41.3242V41.4062H157.155V42.5H150.729ZM162.173 42.6367C160.382 42.6367 159.028 41.5293 158.96 40.0117H160.149C160.245 40.9004 161.106 41.5566 162.173 41.5566C163.458 41.5566 164.388 40.6133 164.388 39.3691C164.388 38.084 163.417 37.1406 162.091 37.127C161.257 37.1133 160.614 37.373 160.245 38.0156H159.056L159.753 32.6016H165.112V33.6953H160.778L160.409 36.5938H160.505C160.942 36.252 161.612 36.0195 162.31 36.0195C164.196 36.0195 165.591 37.4141 165.591 39.3418C165.591 41.2559 164.142 42.6367 162.173 42.6367ZM170.472 34.9121C170.472 36.8398 171.415 38.9316 173.028 39.8887L172.413 40.7227C171.244 40.0117 170.403 38.7129 169.979 37.2363C169.528 38.8496 168.626 40.2373 167.409 40.9824L166.726 40.1758C168.407 39.1914 169.433 37.0312 169.433 34.9531V32.6016H170.472V34.9121ZM177.28 31.4531V43.6074H176.241V31.4531H177.28ZM174.765 31.7129V42.9922H173.753V36.7305H171.688V35.8145H173.753V31.7129H174.765Z" fill="#2F2F2F"/>
<g opacity="0.4" clip-path="url(#clip1_561_6823)">
<rect x="182.799" y="33" width="0.8" height="10" fill="#2F2F2F"/>
</g>
<path opacity="0.4" d="M188.693 42.5V32.6016H194.695V33.6953H189.924V37.0039H194.381V38.084H189.924V41.4062H194.764V42.5H188.693ZM204.498 32.6016V42.5H203.322L197.963 34.7891H197.867V42.5H196.637V32.6016H197.826L203.186 40.3262H203.281V32.6016H204.498ZM206.686 42.5V32.6016H212.646V33.6953H207.916V37.0039H212.195V38.084H207.916V42.5H206.686ZM217.336 32.6016H218.58V39.6699C218.58 41.5703 217.459 42.6367 215.736 42.6367C214.096 42.6367 212.906 41.6934 212.906 40.1621H214.123C214.123 40.9961 214.807 41.543 215.736 41.543C216.762 41.543 217.336 40.9004 217.336 39.6699V32.6016Z" fill="#2F2F2F"/>
<path d="M141.41 409.541V410.936H138.936C138.956 412.364 139.838 413.8 141.848 414.408L140.973 415.803C139.592 415.365 138.628 414.49 138.074 413.396C137.514 414.627 136.516 415.604 135.053 416.076L134.15 414.682C136.215 414.032 137.138 412.487 137.172 410.936H134.629V409.541H141.41ZM144.24 408.816V411.633H145.922V413.055H144.24V416.035H142.49V408.816H144.24ZM144.24 416.527V421.121H136.105V416.527H144.24ZM137.828 417.895V419.727H142.518V417.895H137.828ZM156.504 409.377V410.375C156.504 411.346 156.504 412.426 156.217 413.848H157.857V415.256H146.469V413.848H154.453C154.727 412.604 154.761 411.64 154.768 410.771H147.863V409.377H156.504ZM156.463 416.568V421.121H147.822V416.568H156.463ZM149.531 417.936V419.727H154.727V417.936H149.531ZM164.57 410.717V412.098H158.555V410.717H160.715V409.158H162.438V410.717H164.57ZM161.59 412.658C163.176 412.658 164.311 413.889 164.324 415.611C164.311 417.348 163.176 418.578 161.59 418.578C160.004 418.578 158.842 417.348 158.842 415.611C158.842 413.889 160.004 412.658 161.59 412.658ZM161.59 414.107C160.865 414.107 160.373 414.668 160.373 415.611C160.373 416.555 160.865 417.102 161.59 417.102C162.287 417.102 162.779 416.555 162.793 415.611C162.779 414.668 162.287 414.107 161.59 414.107ZM169.328 408.816V421.258H167.674V415.27H166.662V420.725H165.035V409.062H166.662V413.875H167.674V408.816H169.328ZM181.428 408.816V421.258H179.773V408.816H181.428ZM178.885 409.021V420.684H177.244V414.49H175.604V413.082H177.244V409.021H178.885ZM174.605 412.152C174.605 414.217 175.248 416.309 177.066 417.348L176.041 418.633C174.934 417.977 174.202 416.862 173.785 415.529C173.354 416.979 172.603 418.209 171.461 418.906L170.408 417.621C172.24 416.5 172.924 414.258 172.924 412.152V411.482H170.887V410.088H176.492V411.482H174.605V412.152ZM192.584 408.816V413.684H194.416V415.119H192.584V421.258H190.861V408.816H192.584ZM190.014 410.676V412.07H182.699V410.676H185.516V409.008H187.266V410.676H190.014ZM186.391 412.768C188.209 412.768 189.562 413.998 189.562 415.734C189.562 417.471 188.209 418.701 186.391 418.701C184.559 418.701 183.205 417.471 183.205 415.734C183.205 413.998 184.559 412.768 186.391 412.768ZM186.391 414.176C185.516 414.189 184.873 414.777 184.873 415.734C184.873 416.705 185.516 417.279 186.391 417.266C187.266 417.279 187.895 416.705 187.895 415.734C187.895 414.777 187.266 414.189 186.391 414.176ZM205.121 409.896V411.072C205.121 412.631 205.121 414.381 204.615 417.02L202.865 416.842C203.337 414.49 203.357 412.74 203.371 411.277H196.043V409.896H205.121ZM206.215 418.318V419.74H194.867V418.318H198.928V414.039H200.664V418.318H206.215ZM216.455 409.91V411.332H212.545V416.855C214.356 416.835 215.662 416.753 217.125 416.486L217.303 417.895C215.594 418.223 214.09 418.291 211.793 418.277H210.781V409.91H216.455ZM220.707 408.816V421.285H218.971V414.545H215.84V413.123H218.971V408.816H220.707ZM235.924 408.816V415.27H234.188V408.816H235.924ZM231.289 415.762V418.988H228.664V419.836C230.086 419.822 230.975 419.768 232 419.562L232.164 420.848C230.893 421.094 229.812 421.121 227.803 421.121H226.982V417.785H229.566V417.061H226.982V415.762H231.289ZM235.924 415.762V421.217H234.215V417.156H231.754V415.762H235.924ZM229.061 409.322C230.947 409.309 232.383 410.512 232.383 412.18C232.383 413.848 230.947 415.037 229.061 415.037C227.133 415.037 225.711 413.848 225.711 412.18C225.711 410.512 227.133 409.309 229.061 409.322ZM229.061 410.758C228.104 410.744 227.393 411.277 227.406 412.18C227.393 413.055 228.104 413.629 229.061 413.629C230.004 413.629 230.701 413.055 230.701 412.18C230.701 411.277 230.004 410.744 229.061 410.758ZM248.078 408.816V421.258H246.314V408.816H248.078ZM244.346 410.115C244.346 413.889 243.02 417.02 238.576 419.125L237.66 417.73C240.873 416.213 242.288 414.244 242.568 411.482H238.33V410.115H244.346Z" fill="#474747"/>
<path d="M262 412.5L258 415.5L254 412.5" stroke="#252525" stroke-width="0.7" stroke-linecap="round" stroke-linejoin="round"/>
<path d="M262 415.5L258 418.5L254 415.5" stroke="#252525" stroke-width="0.7" stroke-linecap="round" stroke-linejoin="round"/>
<rect x="96.3" y="102.3" width="116.4" height="27.4" rx="13.7" stroke="#252525" stroke-width="0.6"/>
<path d="M119.094 110.508V118.137H117.98V110.508H119.094ZM119.41 119.871V120.773H112.227V117.363H113.352V119.871H119.41ZM113.398 111.211C114.98 111.211 116.188 112.289 116.188 113.812C116.188 115.359 114.98 116.426 113.398 116.426C111.816 116.426 110.598 115.359 110.598 113.812C110.598 112.289 111.816 111.211 113.398 111.211ZM113.398 112.184C112.414 112.184 111.688 112.852 111.688 113.812C111.688 114.797 112.414 115.453 113.398 115.453C114.359 115.453 115.098 114.797 115.098 113.812C115.098 112.852 114.359 112.184 113.398 112.184ZM129.453 110.496V121.02H128.34V110.496H129.453ZM126.453 111.469V112.395H122.551V117.492C124.543 117.486 125.814 117.434 127.297 117.164L127.414 118.09C125.844 118.371 124.473 118.441 122.293 118.441H121.426V111.469H126.453ZM143.316 119.871V120.773H136.051V117.363H137.152V119.871H143.316ZM143.012 110.508V118.336H141.957V114.457H140.727V117.973H139.695V110.695H140.727V113.543H141.957V110.508H143.012ZM135.559 111.328V113.004H137.586V111.328H138.617V116.414H134.504V111.328H135.559ZM135.559 115.535H137.586V113.871H135.559V115.535ZM152.938 115.477V116.391H145.625V111.434H152.844V112.348H146.727V115.477H152.938ZM154.039 118.688V119.613H144.43V118.688H154.039ZM164.363 115.43V116.332H154.812V115.43H158.645V113.355H159.734V115.43H164.363ZM163.145 117.445V120.996H162.02V118.336H155.82V117.445H163.145ZM163.18 111.059V111.832C163.168 112.629 163.168 113.555 162.922 114.762L161.797 114.656C162.055 113.514 162.066 112.693 162.066 111.938H155.926V111.059H163.18ZM176.867 110.496V121.02H175.754V115.559H173.586V114.656H175.754V110.496H176.867ZM171.828 113.871C171.828 115.535 172.895 117.234 174.512 117.949L173.891 118.805C172.689 118.271 171.764 117.176 171.301 115.852C170.838 117.252 169.918 118.424 168.711 118.98L168.102 118.125C169.695 117.398 170.727 115.605 170.727 113.871V113.18H168.395V112.289H170.738V110.707H171.852V112.289H174.125V113.18H171.828V113.871ZM186.922 113.18V114.07H183.816V114.973H188.047V115.863H178.473V114.973H182.703V114.07H179.727V110.883H186.816V111.785H180.84V113.18H186.922ZM186.84 116.648V119.098H180.723V120.023H187.133V120.891H179.633V118.301H185.738V117.48H179.621V116.648H186.84ZM197.539 110.496V121.02H196.426V110.496H197.539ZM191.926 111.281C193.484 111.281 194.633 112.711 194.633 114.961C194.633 117.223 193.484 118.652 191.926 118.652C190.344 118.652 189.207 117.223 189.207 114.961C189.207 112.711 190.344 111.281 191.926 111.281ZM191.926 112.277C190.953 112.277 190.285 113.309 190.285 114.961C190.285 116.625 190.953 117.656 191.926 117.656C192.887 117.656 193.555 116.625 193.555 114.961C193.555 113.309 192.887 112.277 191.926 112.277Z" fill="#252525"/>
<rect x="217.3" y="102.3" width="118.4" height="27.4" rx="13.7" stroke="#252525" stroke-width="0.6"/>
<path d="M239.777 110.988V111.773C239.777 112.547 239.777 113.473 239.543 114.691H240.996V115.594H236.73V117.387H239.824V120.996H238.711V118.277H232.371V117.387H235.617V115.594H231.387V114.691H238.418C238.664 113.52 238.676 112.641 238.676 111.891H232.594V110.988H239.777ZM250.746 110.496V120.996H249.68V115.617H248.332V120.457H247.289V110.707H248.332V114.703H249.68V110.496H250.746ZM243.363 111.738V117.34C244.336 117.334 245.396 117.258 246.586 117.023L246.703 117.996C245.262 118.254 244.055 118.324 242.93 118.324H242.25V111.738H243.363ZM255.738 111.117L253.008 121.277H251.895L254.625 111.117H255.738ZM264.68 110.988V111.773C264.68 112.547 264.68 113.473 264.445 114.691H265.898V115.594H261.633V117.387H264.727V120.996H263.613V118.277H257.273V117.387H260.52V115.594H256.289V114.691H263.32C263.566 113.52 263.578 112.641 263.578 111.891H257.496V110.988H264.68ZM270.082 111.164C271.746 111.164 272.93 112.184 272.941 113.66C272.93 114.967 272.004 115.916 270.633 116.109V117.773C271.623 117.727 272.631 117.645 273.574 117.504L273.656 118.312C271.277 118.758 268.734 118.77 266.859 118.77L266.719 117.855C267.545 117.855 268.506 117.855 269.52 117.82V116.109C268.16 115.91 267.211 114.961 267.223 113.66C267.211 112.184 268.43 111.164 270.082 111.164ZM270.082 112.125C269.062 112.125 268.312 112.723 268.324 113.66C268.312 114.586 269.062 115.207 270.082 115.195C271.102 115.207 271.852 114.586 271.852 113.66C271.852 112.723 271.102 112.125 270.082 112.125ZM275.344 110.496V121.02H274.23V110.496H275.344ZM289.559 116.426V117.34H287.121V120.996H285.996V117.34H283.488V120.996H282.34V117.34H279.949V116.426H289.559ZM284.73 110.895C286.945 110.895 288.469 111.797 288.469 113.215C288.469 114.609 286.945 115.5 284.73 115.488C282.504 115.5 280.992 114.609 280.992 113.215C280.992 111.797 282.504 110.895 284.73 110.895ZM284.73 111.785C283.172 111.797 282.129 112.336 282.141 113.215C282.129 114.07 283.172 114.609 284.73 114.609C286.289 114.609 287.332 114.07 287.332 113.215C287.332 112.336 286.289 111.797 284.73 111.785ZM299.086 110.496V116.695H297.973V115.137H295.688V115.992H290.812V111.281H295.688V112.148H297.973V110.496H299.086ZM291.914 112.172V115.102H294.598V112.172H291.914ZM295.57 116.988C297.773 116.988 299.121 117.715 299.121 118.992C299.121 120.258 297.773 120.984 295.57 120.973C293.367 120.984 292.008 120.258 292.02 118.992C292.008 117.715 293.367 116.988 295.57 116.988ZM295.57 117.844C294.035 117.855 293.121 118.254 293.121 118.992C293.121 119.695 294.035 120.117 295.57 120.117C297.105 120.117 298.02 119.695 298.02 118.992C298.02 118.254 297.105 117.855 295.57 117.844ZM295.688 114.234H297.973V113.039H295.688V114.234ZM309.41 110.496V116.578H308.297V110.496H309.41ZM303.633 117.047V118.066H308.309V117.047H309.41V120.867H302.543V117.047H303.633ZM303.633 119.977H308.309V118.934H303.633V119.977ZM307.266 111.574V112.465H300.844V111.574H303.492V110.414H304.617V111.574H307.266ZM304.055 112.887C305.625 112.887 306.656 113.59 306.656 114.715C306.656 115.828 305.625 116.531 304.055 116.531C302.484 116.531 301.453 115.828 301.465 114.715C301.453 113.59 302.484 112.887 304.055 112.887ZM304.055 113.73C303.117 113.73 302.52 114.094 302.531 114.715C302.52 115.336 303.117 115.699 304.055 115.688C304.992 115.699 305.59 115.336 305.602 114.715C305.59 114.094 304.992 113.73 304.055 113.73ZM319.324 110.496V113.133H320.848V114.07H319.324V116.613H318.211V110.496H319.324ZM313.711 117.047V118.066H318.211V117.047H319.324V120.867H312.609V117.047H313.711ZM313.711 119.977H318.211V118.934H313.711V119.977ZM317.344 111.527V112.418H311.086V111.527H313.664V110.402H314.777V111.527H317.344ZM314.215 112.852C315.727 112.852 316.758 113.566 316.758 114.691C316.758 115.805 315.727 116.543 314.215 116.531C312.68 116.543 311.66 115.805 311.66 114.691C311.66 113.566 312.68 112.852 314.215 112.852ZM314.215 113.684C313.324 113.672 312.727 114.082 312.738 114.691C312.727 115.312 313.324 115.711 314.215 115.711C315.105 115.711 315.703 115.312 315.715 114.691C315.703 114.082 315.105 113.672 314.215 113.684Z" fill="#252525"/>
<rect x="112.3" y="134.3" width="116.4" height="27.4" rx="13.7" stroke="#252525" stroke-width="0.6"/>
<path d="M134.566 142.496V146.68H136.195V147.605H134.566V152.984H133.453V142.496H134.566ZM131.824 143.598C131.812 146.633 130.477 149.34 127.02 151.051L126.398 150.184C129.029 148.871 130.459 146.973 130.688 144.523H126.926V143.598H131.824ZM140.402 145.168C140.391 147.031 141.469 148.93 143.039 149.691L142.348 150.582C141.205 149.99 140.32 148.812 139.863 147.406C139.389 148.906 138.469 150.16 137.273 150.781L136.582 149.879C138.199 149.105 139.289 147.09 139.289 145.168V143.375H140.402V145.168ZM144.938 142.496V146.68H146.625V147.629H144.938V152.996H143.824V142.496H144.938ZM155.309 142.496V146.68H156.938V147.605H155.309V152.984H154.195V142.496H155.309ZM152.566 143.598C152.555 146.633 151.219 149.34 147.762 151.051L147.141 150.184C149.771 148.871 151.201 146.973 151.43 144.523H147.668V143.598H152.566ZM165.738 143.539V150.359H160.828V143.539H165.738ZM161.918 144.418V149.457H164.637V144.418H161.918ZM168.609 142.496V146.609H170.297V147.547H168.609V152.996H167.496V142.496H168.609ZM175.582 142.719C177.891 142.719 179.332 143.469 179.332 144.734C179.332 145.977 177.891 146.715 175.582 146.715C173.285 146.715 171.832 145.977 171.832 144.734C171.832 143.469 173.285 142.719 175.582 142.719ZM175.582 143.598C173.965 143.598 172.969 144.008 172.98 144.734C172.969 145.438 173.965 145.836 175.582 145.848C177.188 145.836 178.184 145.438 178.184 144.734C178.184 144.008 177.188 143.598 175.582 143.598ZM179.203 149.363V152.867H171.949V149.363H179.203ZM173.051 150.254V151.965H178.125V150.254H173.051ZM180.375 147.523V148.426H170.801V147.523H180.375ZM190.207 142.496V152.996H189.141V142.496H190.207ZM188.074 142.695V152.48H187.008V147.418H185.824C185.73 149.469 184.852 150.746 183.551 150.734C182.18 150.746 181.289 149.305 181.289 147.031C181.289 144.758 182.18 143.328 183.551 143.34C184.828 143.328 185.695 144.541 185.824 146.516H187.008V142.695H188.074ZM183.551 144.383C182.789 144.383 182.32 145.355 182.32 147.031C182.32 148.707 182.789 149.68 183.551 149.68C184.324 149.68 184.805 148.707 184.805 147.031C184.805 145.355 184.324 144.383 183.551 144.383ZM202.98 147.477V148.391H195.668V143.434H202.887V144.348H196.77V147.477H202.98ZM204.082 150.688V151.613H194.473V150.688H204.082ZM213.34 145.566V146.457H206.109V142.871H207.211V145.566H213.34ZM214.441 147.781V148.672H204.832V147.781H214.441ZM213.41 151.836V152.75H206.027V149.668H207.141V151.836H213.41Z" fill="#252525"/>
<path d="M109.18 57.6133C111.547 57.6133 113.047 58.3984 113.059 59.6992C113.047 60.9883 111.547 61.7734 109.18 61.7617C106.824 61.7734 105.289 60.9883 105.289 59.6992C105.289 58.3984 106.824 57.6133 109.18 57.6133ZM109.18 58.7734C107.691 58.7734 106.836 59.0898 106.848 59.6992C106.836 60.2969 107.691 60.6016 109.18 60.6016C110.656 60.6016 111.512 60.2969 111.512 59.6992C111.512 59.0898 110.656 58.7734 109.18 58.7734ZM112.883 64.3281V67.9609H105.441V64.3281H112.883ZM106.918 65.5117V66.7656H111.418V65.5117H106.918ZM114.043 62.3828V63.5781H104.316V62.3828H114.043ZM120.723 57.918V59.0898H118.613C118.707 60.1445 119.492 61.1816 121.109 61.6328L120.406 62.7812C119.199 62.4531 118.355 61.7559 117.875 60.8711C117.4 61.873 116.521 62.6582 115.227 63.0156L114.5 61.8555C116.176 61.3691 116.984 60.2383 117.078 59.0898H114.91V57.918H120.723ZM123.148 57.4141V59.5234H124.59V60.7188H123.148V62.8867H121.648V57.4141H123.148ZM123.148 63.2969V66.1094H117.559V66.8359H123.453V67.9727H116.094V65.0547H121.66V64.4219H116.07V63.2969H123.148ZM133.52 57.4141V59.4766H134.961V60.707H133.52V62.7461H132.02V57.4141H133.52ZM133.52 63.168V66.0742H127.93V66.7891H133.824V67.9609H126.465V64.9961H132.031V64.3164H126.441V63.168H133.52ZM128 57.7305C129.641 57.7422 130.859 58.7266 130.859 60.1445C130.859 61.5508 129.641 62.5586 128 62.5586C126.359 62.5586 125.129 61.5508 125.129 60.1445C125.129 58.7266 126.359 57.7422 128 57.7305ZM128 58.9492C127.18 58.9492 126.582 59.3945 126.594 60.1445C126.582 60.9062 127.18 61.375 128 61.375C128.82 61.375 129.406 60.9062 129.406 60.1445C129.406 59.3945 128.82 58.9492 128 58.9492ZM147.418 57.4141V68.0781H146V62.7227H144.969V67.5625H143.598V57.5898H144.969V61.5273H146V57.4141H147.418ZM142.473 58.6445V59.8516H140V64.3984C141.031 64.3926 141.945 64.3398 142.977 64.1523L143.082 65.3711C141.781 65.6172 140.645 65.6523 139.238 65.6641H138.5V58.6445H142.473ZM157.098 57.4141V60.918H158.457V62.1484H157.098V65.7344H155.598V57.4141H157.098ZM157.461 66.6953V67.8906H149.949V65.1836H151.449V66.6953H157.461ZM148.449 63.543C149.217 63.543 150.107 63.5371 151.039 63.5078V62.8867C149.879 62.7285 149.152 62.1484 149.164 61.3164C149.152 60.2617 150.195 59.6406 151.777 59.6523C153.348 59.6406 154.379 60.2617 154.391 61.3164C154.379 62.1426 153.67 62.7227 152.527 62.8867V63.4375C153.406 63.3848 154.285 63.3027 155.105 63.1797L155.211 64.2109C152.961 64.6445 150.441 64.668 148.602 64.6914L148.449 63.543ZM154.836 58.2812V59.3477H148.73V58.2812H151.039V57.3789H152.527V58.2812H154.836ZM151.777 60.6484C151.016 60.6484 150.582 60.8594 150.594 61.3164C150.582 61.7148 151.016 61.9375 151.777 61.9375C152.527 61.9375 152.949 61.7148 152.961 61.3164C152.949 60.8594 152.527 60.6484 151.777 60.6484ZM161.914 57.9883C162.764 57.9883 163.508 58.2988 164.023 58.8203H166.438V57.4141H167.926V63.6602H166.438V62.3828H164.012C163.496 62.8984 162.758 63.209 161.914 63.2031C160.297 63.2148 159.066 62.1016 159.078 60.6016C159.066 59.0781 160.297 57.9883 161.914 57.9883ZM161.914 59.2656C161.082 59.2656 160.484 59.7578 160.496 60.6016C160.484 61.4219 161.082 61.9492 161.914 61.9375C162.723 61.9492 163.309 61.4219 163.309 60.6016C163.309 59.7578 162.723 59.2656 161.914 59.2656ZM164.281 63.8828C166.543 63.8828 167.949 64.6562 167.961 65.9805C167.949 67.3047 166.543 68.0781 164.281 68.0781C162.031 68.0781 160.613 67.3047 160.613 65.9805C160.613 64.6562 162.031 63.8828 164.281 63.8828ZM164.281 65.0195C162.863 65.0195 162.078 65.3359 162.078 65.9805C162.078 66.6016 162.863 66.918 164.281 66.918C165.723 66.918 166.496 66.6016 166.496 65.9805C166.496 65.3359 165.723 65.0195 164.281 65.0195ZM164.668 60.0039C164.703 60.1914 164.727 60.3965 164.727 60.6016C164.727 60.8066 164.703 61 164.668 61.1875H166.438V60.0039H164.668ZM170.691 67.1055C170.141 67.1055 169.695 66.6602 169.707 66.1211C169.695 65.582 170.141 65.1484 170.691 65.1484C171.207 65.1484 171.664 65.582 171.664 66.1211C171.664 66.6602 171.207 67.1055 170.691 67.1055ZM174.078 67.1055C173.527 67.1055 173.082 66.6602 173.094 66.1211C173.082 65.582 173.527 65.1484 174.078 65.1484C174.594 65.1484 175.051 65.582 175.051 66.1211C175.051 66.6602 174.594 67.1055 174.078 67.1055ZM177.465 67.1055C176.914 67.1055 176.469 66.6602 176.48 66.1211C176.469 65.582 176.914 65.1484 177.465 65.1484C177.98 65.1484 178.438 65.582 178.438 66.1211C178.438 66.6602 177.98 67.1055 177.465 67.1055ZM187.906 58.1289V59.3242H185.785C185.797 60.5664 186.541 61.7676 188.246 62.2656L187.531 63.4375C186.354 63.0801 185.539 62.3652 185.07 61.4453C184.596 62.5234 183.729 63.3789 182.445 63.8008L181.684 62.6172C183.453 62.0605 184.25 60.6777 184.273 59.3242H182.094V58.1289H187.906ZM190.309 57.4141V59.8867H191.75V61.1055H190.309V63.7422H188.809V57.4141H190.309ZM186.816 63.9531C189.031 63.9414 190.414 64.7031 190.414 66.0039C190.414 67.3047 189.031 68.0781 186.816 68.0781C184.555 68.0781 183.16 67.3047 183.16 66.0039C183.16 64.7031 184.555 63.9414 186.816 63.9531ZM186.816 65.1133C185.41 65.1133 184.648 65.4062 184.66 66.0039C184.648 66.6133 185.41 66.918 186.816 66.918C188.199 66.918 188.938 66.6133 188.938 66.0039C188.938 65.4062 188.199 65.1133 186.816 65.1133ZM201.98 65.6406V66.8594H192.219V65.6406H201.98ZM200.855 58.1289V61.6797H194.844V62.8984H201.102V64.0703H193.344V60.4844H199.379V59.3242H193.332V58.1289H200.855ZM209.246 59.0898C209.246 60.3789 209.996 61.6211 211.684 62.1484L210.887 63.3086C209.756 62.9336 208.965 62.207 208.508 61.2695C208.045 62.3477 207.219 63.1914 206 63.6016L205.191 62.4297C206.973 61.832 207.734 60.4141 207.746 58.9492V57.9766H209.246V59.0898ZM213.816 57.4141V59.9102H215.258V61.1523H213.816V63.7422H212.316V57.4141H213.816ZM210.324 63.9531C212.527 63.9531 213.922 64.7148 213.922 66.0156C213.922 67.3281 212.527 68.0781 210.324 68.0781C208.074 68.0781 206.668 67.3281 206.668 66.0156C206.668 64.7148 208.074 63.9531 210.324 63.9531ZM210.324 65.125C208.918 65.125 208.156 65.4297 208.168 66.0156C208.156 66.625 208.918 66.9062 210.324 66.9062C211.707 66.9062 212.445 66.625 212.445 66.0156C212.445 65.4297 211.707 65.125 210.324 65.125ZM221.703 58.1875V58.8555C221.703 59.5938 221.703 60.6602 221.457 61.9844L219.992 61.8438C220.18 60.8184 220.227 60.0449 220.238 59.4062H216.219V58.1875H221.703ZM219.055 60.6484V62.6875C220.115 62.6465 221.205 62.5645 222.207 62.418L222.289 63.4961C220.074 63.9062 217.566 63.9414 215.715 63.9531L215.586 62.7578C216.184 62.7578 216.857 62.7578 217.566 62.7344V60.6484H219.055ZM224.316 57.4141V60.6602H225.605V61.9141H224.316V65.3945H222.781V57.4141H224.316ZM224.645 66.6953V67.8906H217.156V64.6797H218.656V66.6953H224.645ZM228.664 63.6484V64.7148H229.812V63.6484H231.195V66.8828C232.379 66.3555 232.883 65.3594 232.883 64.3867V63.5664H234.383V64.3867C234.371 65.4766 234.898 66.5078 236.234 66.9414L235.461 68.0547C234.541 67.7383 233.949 67.1289 233.609 66.3672C233.252 67.1055 232.666 67.7207 231.805 68.0547L231.195 67.1289V67.9609H227.281V63.6484H228.664ZM228.664 66.8242H229.812V65.8164H228.664V66.8242ZM229.074 57.8125C230.434 57.8125 231.518 58.5684 231.816 59.6992H233.598V57.4141H235.086V63.0625H233.598V60.9297H231.816C231.529 62.084 230.439 62.8516 229.074 62.8516C227.434 62.8516 226.227 61.8086 226.238 60.3203C226.227 58.8555 227.434 57.8125 229.074 57.8125ZM229.074 59.043C228.242 59.043 227.645 59.5352 227.656 60.3203C227.645 61.1289 228.242 61.6211 229.074 61.6328C229.883 61.6211 230.469 61.1289 230.469 60.3203C230.469 59.5352 229.883 59.043 229.074 59.043ZM245.398 57.4141V68.1016H243.887V57.4141H245.398ZM239.609 58.1641C241.215 58.1641 242.41 59.6406 242.41 61.9609C242.41 64.3047 241.215 65.7695 239.609 65.7695C237.969 65.7695 236.773 64.3047 236.785 61.9609C236.773 59.6406 237.969 58.1641 239.609 58.1641ZM239.609 59.5117C238.777 59.5117 238.227 60.3789 238.227 61.9609C238.227 63.5547 238.777 64.4102 239.609 64.4102C240.418 64.4102 240.969 63.5547 240.969 61.9609C240.969 60.3789 240.418 59.5117 239.609 59.5117ZM254.469 57.6133C256.836 57.6133 258.336 58.3984 258.348 59.6992C258.336 60.9883 256.836 61.7734 254.469 61.7617C252.113 61.7734 250.578 60.9883 250.578 59.6992C250.578 58.3984 252.113 57.6133 254.469 57.6133ZM254.469 58.7734C252.98 58.7734 252.125 59.0898 252.137 59.6992C252.125 60.2969 252.98 60.6016 254.469 60.6016C255.945 60.6016 256.801 60.2969 256.801 59.6992C256.801 59.0898 255.945 58.7734 254.469 58.7734ZM258.172 64.3281V67.9609H250.73V64.3281H258.172ZM252.207 65.5117V66.7656H256.707V65.5117H252.207ZM259.332 62.3828V63.5781H249.605V62.3828H259.332ZM262.977 58C264.629 57.9883 265.883 59.0898 265.883 60.5898C265.883 62.125 264.629 63.2031 262.977 63.2031C261.312 63.2031 260.047 62.125 260.047 60.5898C260.047 59.0898 261.312 57.9883 262.977 58ZM262.977 59.2773C262.133 59.2773 261.512 59.7578 261.523 60.5898C261.512 61.4453 262.133 61.9375 262.977 61.9375C263.797 61.9375 264.418 61.4453 264.43 60.5898C264.418 59.7578 263.797 59.2773 262.977 59.2773ZM268.438 57.4141V59.9219H269.879V61.1406H268.438V63.6484H266.938V57.4141H268.438ZM268.438 64.0938V68.0898H266.938V65.3008H261.254V64.0938H268.438ZM282.84 63.8008V65.0195H278.703V68.0898H277.227V65.0195H273.113V63.8008H282.84ZM281.949 58.6445V59.8164H278.75C278.92 60.7539 280.121 61.8086 282.324 62.0547L281.785 63.2266C279.98 63.0215 278.674 62.2832 277.977 61.3047C277.285 62.2949 275.967 63.0215 274.145 63.2266L273.605 62.0547C275.809 61.8086 277.021 60.7598 277.203 59.8164H273.992V58.6445H277.227V57.4258H278.703V58.6445H281.949ZM287.41 59.9219C287.41 61.1172 288.195 62.3477 289.93 62.875L289.215 64.0352C288.02 63.6953 287.176 62.9629 286.695 62.0312C286.221 63.0391 285.371 63.8301 284.141 64.2109L283.414 63.0391C285.148 62.5234 285.922 61.2227 285.922 59.9219V59.8398H283.777V58.668H285.922V57.4844H287.434V58.668H289.566V59.8398H287.41V59.9219ZM292.473 57.4258V65.3359H290.984V61.7383H289.215V60.5312H290.984V57.4258H292.473ZM292.73 66.6953V67.8906H285.395V64.6562H286.895V66.6953H292.73ZM299 59.043V60.2266H293.844V59.043H295.695V57.707H297.172V59.043H299ZM296.445 60.707C297.805 60.707 298.777 61.7617 298.789 63.2383C298.777 64.7266 297.805 65.7812 296.445 65.7812C295.086 65.7812 294.09 64.7266 294.09 63.2383C294.09 61.7617 295.086 60.707 296.445 60.707ZM296.445 61.9492C295.824 61.9492 295.402 62.4297 295.402 63.2383C295.402 64.0469 295.824 64.5156 296.445 64.5156C297.043 64.5156 297.465 64.0469 297.477 63.2383C297.465 62.4297 297.043 61.9492 296.445 61.9492ZM303.078 57.4141V68.0781H301.66V62.9453H300.793V67.6211H299.398V57.625H300.793V61.75H301.66V57.4141H303.078ZM313.953 63.2969V64.4922H309.805V68.0781H308.328V64.4922H304.227V63.2969H313.953ZM313.086 57.9766V59.1484H309.98C310.127 60.1914 311.305 61.2402 313.496 61.5039L312.957 62.6758C311.082 62.4238 309.74 61.6211 309.102 60.5195C308.445 61.6211 307.115 62.4238 305.258 62.6758L304.707 61.5039C306.863 61.2402 308.053 60.1914 308.223 59.1484H305.105V57.9766H313.086ZM318.02 60.0977C318.02 61.8203 318.5 63.6016 319.953 64.5391L319.145 65.6992C318.225 65.1426 317.639 64.2285 317.305 63.1328C316.918 64.3398 316.279 65.3477 315.312 65.9336L314.398 64.832C315.98 63.8477 316.566 61.9727 316.566 60.168V58.3281H318.02V60.0977ZM323.844 57.4141V68.0781H322.414V57.4141H323.844ZM321.605 57.5664V67.5859H320.211V62.2305H318.828V61.0117H320.211V57.5664H321.605ZM334.695 62.4648V63.6602H324.969V62.4648H327.16V61.1875C326.381 60.8418 325.941 60.3145 325.941 59.6289C325.941 58.3398 327.453 57.5664 329.832 57.5664C332.188 57.5664 333.699 58.3398 333.711 59.6289C333.705 60.3203 333.248 60.8594 332.457 61.1992V62.4648H334.695ZM329.82 64.2227C332.129 64.2227 333.523 64.9023 333.535 66.1328C333.523 67.3867 332.129 68.0664 329.82 68.0664C327.477 68.0664 326.082 67.3867 326.082 66.1328C326.082 64.9023 327.477 64.2227 329.82 64.2227ZM329.82 65.3477C328.344 65.3477 327.594 65.6055 327.605 66.1328C327.594 66.6836 328.344 66.9531 329.82 66.9531C331.262 66.9531 332.023 66.6836 332.035 66.1328C332.023 65.6055 331.262 65.3477 329.82 65.3477ZM329.832 58.7148C328.32 58.7148 327.488 59.0312 327.5 59.6289C327.488 60.2148 328.32 60.5078 329.832 60.5078C331.32 60.5078 332.164 60.2148 332.164 59.6289C332.164 59.0312 331.32 58.7148 329.832 58.7148ZM328.672 62.4648H330.969V61.5742C330.617 61.6152 330.236 61.6328 329.832 61.6328C329.416 61.6328 329.029 61.6152 328.672 61.5625V62.4648ZM337.766 58.5156L337.613 64.457H336.113L335.961 58.5156H337.766ZM336.875 67.1055C336.324 67.1055 335.879 66.6602 335.891 66.1211C335.879 65.582 336.324 65.1484 336.875 65.1484C337.391 65.1484 337.848 65.582 337.848 66.1211C337.848 66.6602 337.391 67.1055 336.875 67.1055Z" fill="#474747"/>
<circle cx="199" cy="343" r="1" transform="rotate(90 199 343)" fill="#2F2F2F"/>
<circle cx="199" cy="347.5" r="1" transform="rotate(90 199 347.5)" fill="#2F2F2F"/>
<rect x="9" y="178" width="380" height="48" rx="11" fill="white"/>
<path d="M289.559 206V197.516H292.582C294.551 197.516 295.523 198.617 295.523 200.176C295.523 201.318 295.008 202.186 293.977 202.566L295.852 206H294.387L292.664 202.801H292.582H290.848V206H289.559ZM290.848 201.688H292.453C293.707 201.688 294.223 201.137 294.223 200.176C294.223 199.215 293.707 198.617 292.453 198.617H290.848V201.688ZM296.555 204.207C296.555 202.754 297.785 202.379 298.934 202.297C299.355 202.268 300.311 202.215 300.609 202.203L300.598 201.699C300.598 200.984 300.164 200.562 299.309 200.562C298.57 200.562 298.125 200.902 297.996 201.371H296.754C296.871 200.316 297.855 199.555 299.355 199.555C300.363 199.555 301.852 199.93 301.852 201.77V206H300.633V205.133H300.586C300.34 205.613 299.754 206.141 298.699 206.141C297.492 206.141 296.555 205.449 296.555 204.207ZM297.773 204.219C297.773 204.828 298.277 205.145 298.98 205.145C300 205.145 300.609 204.465 300.609 203.703V203.117C300.316 203.141 299.402 203.205 299.109 203.223C298.289 203.281 297.773 203.586 297.773 204.219ZM306.105 206.129C304.23 206.129 303.082 204.84 303.082 202.859C303.082 200.902 304.254 199.555 306.023 199.555C307.477 199.555 308.848 200.457 308.848 202.754V203.199H304.324C304.359 204.406 305.068 205.098 306.117 205.098C306.832 205.098 307.289 204.793 307.5 204.406H308.766C308.484 205.438 307.5 206.129 306.105 206.129ZM304.336 202.262H307.617C307.617 201.289 306.996 200.586 306.035 200.586C305.033 200.586 304.383 201.359 304.336 202.262ZM317.742 199.754C317.66 198.969 316.969 198.512 315.996 198.512C314.953 198.512 314.297 199.039 314.297 199.766C314.297 200.574 315.176 200.879 315.844 201.043L316.664 201.266C317.754 201.523 319.102 202.121 319.113 203.656C319.102 205.086 317.965 206.141 315.961 206.141C314.062 206.141 312.867 205.191 312.785 203.645H314.074C314.156 204.57 314.965 205.016 315.961 205.016C317.039 205.016 317.824 204.465 317.836 203.633C317.824 202.895 317.133 202.59 316.23 202.355L315.223 202.086C313.863 201.711 313.008 201.02 313.008 199.836C313.008 198.371 314.32 197.398 316.031 197.398C317.754 197.398 318.961 198.383 318.996 199.754H317.742ZM320.391 206V199.637H321.598V200.645H321.668C321.902 199.965 322.535 199.543 323.285 199.543C323.438 199.543 323.684 199.555 323.812 199.566V200.762C323.707 200.738 323.414 200.691 323.156 200.691C322.289 200.691 321.645 201.289 321.645 202.121V206H320.391ZM327.281 206.129C325.406 206.129 324.258 204.84 324.258 202.859C324.258 200.902 325.43 199.555 327.199 199.555C328.652 199.555 330.023 200.457 330.023 202.754V203.199H325.5C325.535 204.406 326.244 205.098 327.293 205.098C328.008 205.098 328.465 204.793 328.676 204.406H329.941C329.66 205.438 328.676 206.129 327.281 206.129ZM325.512 202.262H328.793C328.793 201.289 328.172 200.586 327.211 200.586C326.209 200.586 325.559 201.359 325.512 202.262ZM331.266 206V199.637H332.473V200.68H332.543C332.812 199.965 333.434 199.555 334.277 199.555C335.121 199.555 335.719 199.977 335.988 200.68H336.059C336.363 199.988 337.043 199.555 337.969 199.555C339.117 199.555 339.938 200.281 339.938 201.734V206H338.684V201.852C338.684 200.996 338.145 200.633 337.488 200.633C336.68 200.633 336.223 201.184 336.223 201.945V206H334.98V201.781C334.98 201.09 334.5 200.633 333.82 200.633C333.117 200.633 332.52 201.219 332.52 202.074V206H331.266ZM341.449 206V199.637H342.656V200.68H342.727C342.996 199.965 343.617 199.555 344.461 199.555C345.305 199.555 345.902 199.977 346.172 200.68H346.242C346.547 199.988 347.227 199.555 348.152 199.555C349.301 199.555 350.121 200.281 350.121 201.734V206H348.867V201.852C348.867 200.996 348.328 200.633 347.672 200.633C346.863 200.633 346.406 201.184 346.406 201.945V206H345.164V201.781C345.164 201.09 344.684 200.633 344.004 200.633C343.301 200.633 342.703 201.219 342.703 202.074V206H341.449ZM355.676 203.352V199.637H356.918V206H355.699V204.898H355.629C355.336 205.578 354.68 206.082 353.73 206.082C352.5 206.082 351.633 205.262 351.633 203.68V199.637H352.887V203.527C352.887 204.395 353.414 204.945 354.176 204.945C354.867 204.945 355.676 204.441 355.676 203.352ZM358.441 206V199.637H359.648V200.645H359.719C359.953 199.965 360.586 199.543 361.336 199.543C361.488 199.543 361.734 199.555 361.863 199.566V200.762C361.758 200.738 361.465 200.691 361.207 200.691C360.34 200.691 359.695 201.289 359.695 202.121V206H358.441ZM364.969 206.129C363.434 206.129 362.309 204.887 362.309 202.836C362.309 200.762 363.445 199.555 364.98 199.555C366.164 199.555 366.598 200.27 366.82 200.668H366.879V197.516H368.133V206H366.914V205.004H366.82C366.586 205.426 366.129 206.129 364.969 206.129ZM365.25 205.062C366.316 205.062 366.914 204.148 366.914 202.812C366.914 201.488 366.328 200.621 365.25 200.621C364.137 200.621 363.586 201.559 363.586 202.812C363.586 204.09 364.16 205.062 365.25 205.062Z" fill="#2F2F2F"/>
<path d="M30.0117 206.5V196.602H36.1504V197.9H31.5156V200.895H35.7129V202.18H31.5156V206.5H30.0117ZM38.8919 196.602V206.5H37.429V196.602H38.8919ZM40.0474 204.408C40.0474 202.713 41.483 202.275 42.8228 202.18C43.315 202.146 44.4293 202.084 44.7779 202.07L44.7642 201.482C44.7642 200.648 44.2584 200.156 43.2603 200.156C42.399 200.156 41.8795 200.553 41.7291 201.1H40.2798C40.4166 199.869 41.565 198.98 43.315 198.98C44.4908 198.98 46.2271 199.418 46.2271 201.564V206.5H44.8052V205.488H44.7505C44.4634 206.049 43.7798 206.664 42.5494 206.664C41.1412 206.664 40.0474 205.857 40.0474 204.408ZM41.4693 204.422C41.4693 205.133 42.0572 205.502 42.8775 205.502C44.067 205.502 44.7779 204.709 44.7779 203.82V203.137C44.4361 203.164 43.3697 203.239 43.0279 203.26C42.0709 203.328 41.4693 203.684 41.4693 204.422ZM52.4276 203.41V199.076H53.8768V206.5H52.4549V205.215H52.3729C52.0311 206.008 51.2655 206.596 50.158 206.596C48.7225 206.596 47.7108 205.639 47.7108 203.793V199.076H49.1737V203.615C49.1737 204.627 49.7889 205.27 50.6776 205.27C51.4842 205.27 52.4276 204.682 52.4276 203.41ZM56.837 202.098V206.5H55.3741V199.076H56.7823V200.293H56.8644C57.2198 199.5 57.9445 198.98 59.0519 198.98C60.5831 198.98 61.5812 199.938 61.5812 201.783V206.5H60.132V201.961C60.132 200.881 59.5441 200.238 58.5597 200.238C57.5616 200.238 56.837 200.908 56.837 202.098ZM66.5512 199.076V200.238H65.0336V204.312C65.0336 205.146 65.4574 205.297 65.9223 205.311C66.1273 205.311 66.4555 205.283 66.6605 205.27V206.541C66.4555 206.568 66.141 206.596 65.7445 206.596C64.5961 206.596 63.5707 205.967 63.5844 204.613V200.238H62.4906V199.076H63.5844V197.299H65.0336V199.076H66.5512ZM72.458 196.602V206.5H70.9541V196.602H72.458ZM77.5373 199.076V200.238H76.0198V204.312C76.0198 205.146 76.4436 205.297 76.9084 205.311C77.1135 205.311 77.4416 205.283 77.6467 205.27V206.541C77.4416 206.568 77.1272 206.596 76.7307 206.596C75.5823 206.596 74.5569 205.967 74.5705 204.613V200.238H73.4768V199.076H74.5705V197.299H76.0198V199.076H77.5373ZM82.4527 196.137L79.2671 207.99H77.9683L81.1538 196.137H82.4527ZM90.075 199.828C89.8289 198.557 88.7762 197.846 87.5184 197.846C85.8094 197.846 84.5379 199.158 84.5379 201.551C84.5379 203.957 85.823 205.256 87.5184 205.256C88.7625 205.256 89.8152 204.559 90.075 203.301L91.5926 203.314C91.2781 205.27 89.6785 206.637 87.5047 206.637C84.9207 206.637 83.0477 204.709 83.0477 201.551C83.0477 198.379 84.9344 196.465 87.5047 196.465C89.5965 196.465 91.2508 197.695 91.5926 199.828H90.075ZM94.2794 202.098V206.5H92.8165V196.602H94.252V200.293H94.3477C94.7032 199.486 95.3868 198.98 96.5489 198.98C98.0802 198.98 99.0919 199.924 99.0919 201.783V206.5H97.629V201.961C97.629 200.867 97.0411 200.238 96.0567 200.238C95.0313 200.238 94.2794 200.908 94.2794 202.098ZM103.775 206.65C101.587 206.65 100.247 205.146 100.247 202.836C100.247 200.553 101.615 198.98 103.679 198.98C105.374 198.98 106.974 200.033 106.974 202.713V203.232H101.697C101.738 204.641 102.565 205.447 103.788 205.447C104.622 205.447 105.156 205.092 105.402 204.641H106.878C106.55 205.844 105.402 206.65 103.775 206.65ZM101.71 202.139H105.538C105.538 201.004 104.814 200.184 103.693 200.184C102.524 200.184 101.765 201.086 101.71 202.139ZM107.801 204.408C107.801 202.713 109.237 202.275 110.577 202.18C111.069 202.146 112.183 202.084 112.532 202.07L112.518 201.482C112.518 200.648 112.012 200.156 111.014 200.156C110.153 200.156 109.633 200.553 109.483 201.1H108.034C108.171 199.869 109.319 198.98 111.069 198.98C112.245 198.98 113.981 199.418 113.981 201.564V206.5H112.559V205.488H112.505C112.217 206.049 111.534 206.664 110.303 206.664C108.895 206.664 107.801 205.857 107.801 204.408ZM109.223 204.422C109.223 205.133 109.811 205.502 110.631 205.502C111.821 205.502 112.532 204.709 112.532 203.82V203.137C112.19 203.164 111.124 203.239 110.782 203.26C109.825 203.328 109.223 203.684 109.223 204.422ZM115.465 209.289V199.076H116.887V200.279H117.01C117.269 199.814 117.775 198.98 119.143 198.98C120.934 198.98 122.26 200.389 122.26 202.809C122.26 205.201 120.961 206.65 119.156 206.65C117.803 206.65 117.269 205.83 117.01 205.338H116.928V209.289H115.465ZM116.9 202.781C116.9 204.34 117.584 205.406 118.828 205.406C120.113 205.406 120.783 204.271 120.783 202.781C120.783 201.318 120.127 200.225 118.828 200.225C117.57 200.225 116.9 201.236 116.9 202.781ZM126.868 202.727C126.881 200.156 127.606 198.01 128.891 196.178H130.231C129.288 197.531 128.385 200.293 128.385 202.727C128.385 205.174 129.288 207.922 130.231 209.289H128.891C127.606 207.457 126.881 205.311 126.868 202.727ZM131.414 206.5V196.602H137.621V197.9H132.918V200.895H137.293V202.18H132.918V205.201H137.676V206.5H131.414ZM140.226 199.076L141.853 201.961L143.493 199.076H145.093L142.782 202.781L145.106 206.5H143.521L141.853 203.725L140.198 206.5H138.599L140.896 202.781L138.612 199.076H140.226ZM146.139 209.289V199.076H147.561V200.279H147.684C147.944 199.814 148.45 198.98 149.817 198.98C151.608 198.98 152.934 200.389 152.934 202.809C152.934 205.201 151.635 206.65 149.83 206.65C148.477 206.65 147.944 205.83 147.684 205.338H147.602V209.289H146.139ZM147.575 202.781C147.575 204.34 148.258 205.406 149.502 205.406C150.787 205.406 151.457 204.271 151.457 202.781C151.457 201.318 150.801 200.225 149.502 200.225C148.244 200.225 147.575 201.236 147.575 202.781ZM155.566 196.602V206.5H154.103V196.602H155.566ZM157.063 206.5V199.076H158.526V206.5H157.063ZM157.802 197.928C157.296 197.928 156.872 197.545 156.872 197.066C156.872 196.588 157.296 196.205 157.802 196.205C158.294 196.205 158.718 196.588 158.718 197.066C158.718 197.545 158.294 197.928 157.802 197.928ZM163.168 206.65C161.008 206.65 159.695 205.051 159.695 202.822C159.695 200.553 161.049 198.98 163.141 198.98C164.836 198.98 166.067 199.979 166.217 201.482H164.795C164.645 200.785 164.084 200.197 163.168 200.197C161.965 200.197 161.158 201.195 161.158 202.781C161.158 204.408 161.951 205.406 163.168 205.406C163.988 205.406 164.617 204.955 164.795 204.148H166.217C166.053 205.584 164.918 206.65 163.168 206.65ZM167.318 206.5V199.076H168.781V206.5H167.318ZM168.056 197.928C167.55 197.928 167.126 197.545 167.126 197.066C167.126 196.588 167.55 196.205 168.056 196.205C168.548 196.205 168.972 196.588 168.972 197.066C168.972 197.545 168.548 197.928 168.056 197.928ZM173.751 199.076V200.238H172.233V204.312C172.233 205.146 172.657 205.297 173.122 205.311C173.327 205.311 173.655 205.283 173.86 205.27V206.541C173.655 206.568 173.341 206.596 172.944 206.596C171.796 206.596 170.77 205.967 170.784 204.613V200.238H169.69V199.076H170.784V197.299H172.233V199.076H173.751ZM179.029 196.602L181.777 204.654H181.886L184.634 196.602H186.261L182.693 206.5H180.956L177.402 196.602H179.029ZM189.563 206.65C187.376 206.65 186.036 205.146 186.036 202.836C186.036 200.553 187.403 198.98 189.467 198.98C191.163 198.98 192.762 200.033 192.762 202.713V203.232H187.485C187.526 204.641 188.353 205.447 189.577 205.447C190.411 205.447 190.944 205.092 191.19 204.641H192.667C192.338 205.844 191.19 206.65 189.563 206.65ZM187.499 202.139H191.327C191.327 201.004 190.602 200.184 189.481 200.184C188.312 200.184 187.553 201.086 187.499 202.139ZM193.931 206.5V199.076H195.34V200.252H195.422C195.695 199.459 196.433 198.967 197.308 198.967C197.486 198.967 197.773 198.98 197.924 198.994V200.389C197.801 200.361 197.459 200.307 197.158 200.307C196.146 200.307 195.394 201.004 195.394 201.975V206.5H193.931ZM198.847 206.596C198.314 206.596 197.862 206.158 197.876 205.625C197.862 205.092 198.314 204.654 198.847 204.654C199.366 204.654 199.818 205.092 199.818 205.625C199.818 206.158 199.366 206.596 198.847 206.596ZM204.227 202.727C204.213 205.311 203.489 207.457 202.204 209.289H200.864C201.807 207.922 202.709 205.174 202.709 202.727C202.709 200.293 201.807 197.531 200.864 196.178H202.204C203.489 198.01 204.213 200.156 204.227 202.727Z" fill="#2F2F2F"/>
<rect x="9" y="230" width="380" height="48" rx="11" fill="white"/>
<path d="M336.633 248.496V258.996H335.508V248.496H336.633ZM333.504 249.621C333.504 252.691 332.191 255.363 328.594 257.086L328.008 256.184C330.803 254.854 332.162 252.961 332.379 250.512H328.512V249.621H333.504ZM346.992 248.496V259.02H345.879V248.496H346.992ZM343.781 249.445V253.277H340.008V255.574C341.707 255.568 343.195 255.492 344.953 255.199L345.059 256.113C343.195 256.43 341.613 256.5 339.762 256.5H338.871V252.387H342.645V250.348H338.859V249.445H343.781ZM358.254 256.77V257.695H348.645V256.77H352.875V254.613H349.746V249.211H350.859V251.016H356.016V249.211H357.117V254.613H353.977V256.77H358.254ZM350.859 253.711H356.016V251.918H350.859V253.711ZM367.711 248.496V259.02H366.598V248.496H367.711ZM362.098 249.281C363.656 249.281 364.805 250.711 364.805 252.961C364.805 255.223 363.656 256.652 362.098 256.652C360.516 256.652 359.379 255.223 359.379 252.961C359.379 250.711 360.516 249.281 362.098 249.281ZM362.098 250.277C361.125 250.277 360.457 251.309 360.457 252.961C360.457 254.625 361.125 255.656 362.098 255.656C363.059 255.656 363.727 254.625 363.727 252.961C363.727 251.309 363.059 250.277 362.098 250.277Z" fill="#2F2F2F"/>
<path d="M39.9375 247.412V259.662H38.6934V253.387H37.1211V259.033H35.9043V247.658H37.1211V252.32H38.6934V247.412H39.9375ZM31.3242 248.861V255.396C32.459 255.39 33.6963 255.301 35.084 255.027L35.2207 256.162C33.5391 256.463 32.1309 256.545 30.8184 256.545H30.0254V248.861H31.3242ZM50.8138 247.412V252.293H52.7141V253.373H50.8138V259.648H49.5149V247.412H50.8138ZM47.6145 248.697C47.6009 252.238 46.0423 255.396 42.0091 257.393L41.2845 256.381C44.3538 254.85 46.0218 252.635 46.2884 249.777H41.8997V248.697H47.6145ZM63.317 247.412V259.689H62.0181V252.43H58.3677V251.363H62.0181V247.412H63.317ZM55.0591 248.766V255.656C56.8091 255.629 58.4634 255.526 60.2408 255.164L60.4048 256.23C58.4361 256.641 56.6588 256.736 54.731 256.736H53.7466V248.766H55.0591ZM76.1073 253.031V254.029H64.8963V253.031H76.1073ZM74.7264 254.891V257.584H67.535V258.596H75.1092V259.512H66.2362V256.723H73.4412V255.82H66.2225V254.891H74.7264ZM74.6991 247.727V250.379H67.617V251.309H74.9041V252.225H66.3319V249.518H73.4002V248.643H66.3045V247.727H74.6991ZM80.9816 250.529C80.9679 252.703 82.2257 254.918 84.0577 255.807L83.2511 256.846C81.9181 256.155 80.8859 254.781 80.3527 253.141C79.7989 254.891 78.7257 256.354 77.3312 257.078L76.5245 256.025C78.4113 255.123 79.6827 252.771 79.6827 250.529V248.438H80.9816V250.529ZM86.2726 247.412V252.293H88.2413V253.4H86.2726V259.662H84.9738V247.412H86.2726ZM98.1742 247.426V250.42H99.9652V251.5H98.1742V254.795H96.8754V247.426H98.1742ZM94.6195 248.164V251.596H90.3539V253.086C92.4799 253.079 93.9838 253.004 95.768 252.703L95.9047 253.756C94.0043 254.098 92.391 254.166 90.0395 254.152H89.0551V250.598H93.348V249.217H89.0414V248.164H94.6195ZM94.2094 255.123C96.725 255.123 98.2836 255.971 98.2836 257.393C98.2836 258.814 96.725 259.635 94.2094 259.635C91.6527 259.635 90.0941 258.814 90.0941 257.393C90.0941 255.971 91.6527 255.123 94.2094 255.123ZM94.2094 256.148C92.4184 256.148 91.3656 256.6 91.3656 257.393C91.3656 258.186 92.4184 258.65 94.2094 258.637C95.9867 258.65 97.0121 258.186 97.0121 257.393C97.0121 256.6 95.9867 256.148 94.2094 256.148ZM109.912 247.412V252.375H111.881V253.455H109.912V259.662H108.627V247.412H109.912ZM107.56 249.326V250.393H100.3V249.326H103.322V247.576H104.621V249.326H107.56ZM103.978 251.295C105.728 251.295 107.013 252.471 107.027 254.139C107.013 255.82 105.728 256.982 103.978 256.996C102.215 256.982 100.929 255.82 100.929 254.139C100.929 252.471 102.215 251.295 103.978 251.295ZM103.978 252.361C102.939 252.361 102.16 253.086 102.174 254.139C102.16 255.205 102.939 255.916 103.978 255.902C105.017 255.916 105.783 255.205 105.783 254.139C105.783 253.086 105.017 252.361 103.978 252.361ZM116.7 251.021C116.7 253.072 118.04 255.191 119.927 255.998L119.216 257.01C117.773 256.374 116.625 255.027 116.058 253.387C115.49 255.137 114.335 256.627 112.913 257.324L112.161 256.299C114.007 255.438 115.374 253.127 115.388 251.021V249.723H112.585V248.643H119.489V249.723H116.7V251.021ZM122.333 247.412V259.662H121.034V247.412H122.333ZM127.412 248.068C129.272 248.068 130.625 249.258 130.625 250.912C130.625 252.58 129.272 253.756 127.412 253.756C125.567 253.756 124.186 252.58 124.199 250.912C124.186 249.258 125.567 248.068 127.412 248.068ZM127.412 249.148C126.305 249.148 125.457 249.873 125.457 250.912C125.457 251.951 126.305 252.689 127.412 252.689C128.533 252.689 129.367 251.951 129.367 250.912C129.367 249.873 128.533 249.148 127.412 249.148ZM133.633 247.412V250.092H135.41V251.172H133.633V253.51H132.334V247.412H133.633ZM126.51 254.781V258.268C127.228 258.233 128.055 258.131 128.834 257.871L129.026 258.896C127.891 259.279 126.783 259.334 125.867 259.334H125.239V254.781H126.51ZM134.781 254.822V255.82H128.602V254.822H131.076V253.824H132.348V254.822H134.781ZM131.692 256.176C133.045 256.176 134.002 256.859 134.002 257.926C134.002 258.979 133.045 259.648 131.692 259.635C130.311 259.648 129.367 258.979 129.381 257.926C129.367 256.859 130.311 256.176 131.692 256.176ZM131.692 257.105C131.008 257.105 130.53 257.42 130.53 257.926C130.53 258.418 131.008 258.732 131.692 258.732C132.362 258.732 132.84 258.418 132.84 257.926C132.84 257.42 132.362 257.105 131.692 257.105ZM145.74 250.994V252.033H137.304V247.85H138.589V250.994H145.74ZM147.025 253.578V254.617H135.814V253.578H147.025ZM145.822 258.309V259.375H137.209V255.779H138.507V258.309H145.822ZM157.19 247.412V252.156H159.159V253.223H157.19V259.689H155.891V247.412H157.19ZM153.895 248.588V249.641H149.466V255.561C151.523 255.554 153.068 255.465 154.811 255.15L154.975 256.244C153.061 256.586 151.434 256.654 149.151 256.641H148.167V248.588H153.895ZM169.379 250.994V252.033H160.943V247.85H162.229V250.994H169.379ZM170.664 253.578V254.617H159.453V253.578H170.664ZM169.461 258.309V259.375H160.848V255.779H162.147V258.309H169.461ZM181.499 247.426V255.656H180.201V251.869H177.699V250.803H180.201V247.426H181.499ZM177.617 248.369C177.617 251.568 175.634 253.811 172.038 254.945L171.464 253.92C174.342 253.052 175.983 251.466 176.236 249.422H172.093V248.369H177.617ZM178.109 255.15C178.109 256.805 179.845 258.172 182.142 258.568L181.609 259.594C179.749 259.266 178.198 258.329 177.466 256.982C176.714 258.336 175.142 259.272 173.269 259.621L172.763 258.582C175.074 258.213 176.81 256.818 176.824 255.15V254.645H178.109V255.15ZM194.276 253.811V254.85H183.106V253.811H194.276ZM193.018 258.35V259.402H184.514V255.848H185.827V258.35H193.018ZM188.684 247.822C191.337 247.809 193.059 248.738 193.059 250.27C193.059 251.814 191.337 252.744 188.684 252.758C186.018 252.744 184.309 251.814 184.309 250.27C184.309 248.738 186.018 247.809 188.684 247.822ZM188.684 248.861C186.811 248.861 185.635 249.395 185.649 250.27C185.635 251.172 186.811 251.691 188.684 251.691C190.557 251.691 191.719 251.172 191.719 250.27C191.719 249.395 190.557 248.861 188.684 248.861ZM201.133 248.328V253.66H195.404V248.328H201.133ZM196.676 249.367V252.607H199.861V249.367H196.676ZM204.551 247.412V250.379H206.328V251.445H204.551V254.604H203.252V247.412H204.551ZM200.6 254.986C203.101 254.986 204.66 255.861 204.66 257.311C204.66 258.787 203.101 259.648 200.6 259.662C198.07 259.648 196.484 258.787 196.484 257.311C196.484 255.861 198.07 254.986 200.6 254.986ZM200.6 256.025C198.822 256.025 197.769 256.504 197.783 257.311C197.769 258.158 198.822 258.609 200.6 258.623C202.363 258.609 203.389 258.158 203.389 257.311C203.389 256.504 202.363 256.025 200.6 256.025ZM216.37 247.371V250.242H218.161V251.309H216.37V254.111H215.071V247.371H216.37ZM216.37 254.686V257.529H209.753V258.555H216.794V259.539H208.482V256.613H215.085V255.656H208.454V254.686H216.37ZM214.06 248.451V249.477H206.759V248.451H209.767V247.303H211.066V248.451H214.06ZM210.409 249.941C212.2 249.941 213.376 250.707 213.376 251.951C213.376 253.195 212.2 253.947 210.409 253.947C208.605 253.947 207.429 253.195 207.429 251.951C207.429 250.707 208.605 249.941 210.409 249.941ZM210.409 250.871C209.357 250.871 208.673 251.295 208.687 251.951C208.673 252.607 209.357 253.004 210.409 253.004C211.462 253.004 212.146 252.607 212.159 251.951C212.146 251.295 211.462 250.871 210.409 250.871ZM228.791 247.412V259.689H227.493V252.43H223.842V251.363H227.493V247.412H228.791ZM220.534 248.766V255.656C222.284 255.629 223.938 255.526 225.715 255.164L225.879 256.23C223.911 256.641 222.133 256.736 220.206 256.736H219.221V248.766H220.534ZM234.377 248.287C236.318 248.273 237.699 249.477 237.713 251.199C237.699 252.922 236.318 254.125 234.377 254.125C232.449 254.125 231.027 252.922 231.041 251.199C231.027 249.477 232.449 248.273 234.377 248.287ZM234.377 249.408C233.187 249.408 232.312 250.119 232.326 251.199C232.312 252.279 233.187 252.99 234.377 252.99C235.566 252.99 236.441 252.279 236.441 251.199C236.441 250.119 235.566 249.408 234.377 249.408ZM240.515 247.412V259.689H239.217V247.412H240.515ZM230.453 255.971C232.681 255.971 235.771 255.943 238.451 255.561L238.547 256.504C235.771 257.037 232.804 257.051 230.617 257.051L230.453 255.971Z" fill="#2F2F2F"/>
<circle cx="246" cy="254" r="1" fill="#2F2F2F"/>
<circle cx="250.5" cy="254" r="1" fill="#2F2F2F"/>
<circle cx="255" cy="254" r="1" fill="#2F2F2F"/>
<rect x="9" y="282" width="380" height="48" rx="11" fill="white"/>
<path d="M345.598 310.129C343.746 310.129 342.621 308.758 342.621 306.848C342.621 304.902 343.781 303.555 345.574 303.555C347.027 303.555 348.082 304.41 348.211 305.699H346.992C346.863 305.102 346.383 304.598 345.598 304.598C344.566 304.598 343.875 305.453 343.875 306.812C343.875 308.207 344.555 309.062 345.598 309.062C346.301 309.062 346.84 308.676 346.992 307.984H348.211C348.07 309.215 347.098 310.129 345.598 310.129ZM350.766 310L348.902 303.637H350.191L351.434 308.301H351.504L352.746 303.637H354.035L355.266 308.277H355.336L356.566 303.637H357.855L355.992 310H354.715L353.426 305.418H353.332L352.055 310H350.766ZM358.594 308.207C358.594 306.754 359.824 306.379 360.973 306.297C361.395 306.268 362.35 306.215 362.648 306.203L362.637 305.699C362.637 304.984 362.203 304.562 361.348 304.562C360.609 304.562 360.164 304.902 360.035 305.371H358.793C358.91 304.316 359.895 303.555 361.395 303.555C362.402 303.555 363.891 303.93 363.891 305.77V310H362.672V309.133H362.625C362.379 309.613 361.793 310.141 360.738 310.141C359.531 310.141 358.594 309.449 358.594 308.207ZM359.812 308.219C359.812 308.828 360.316 309.145 361.02 309.145C362.039 309.145 362.648 308.465 362.648 307.703V307.117C362.355 307.141 361.441 307.205 361.148 307.223C360.328 307.281 359.812 307.586 359.812 308.219ZM365.402 310V303.637H366.609V304.645H366.68C366.914 303.965 367.547 303.543 368.297 303.543C368.449 303.543 368.695 303.555 368.824 303.566V304.762C368.719 304.738 368.426 304.691 368.168 304.691C367.301 304.691 366.656 305.289 366.656 306.121V310H365.402Z" fill="#2F2F2F"/>
<path d="M30.0117 310.5V300.602H31.5156V309.201H35.9863V310.5H30.0117ZM45.4544 305.551C45.4544 308.709 43.554 310.637 40.9973 310.637C38.4134 310.637 36.5266 308.709 36.5266 305.551C36.5266 302.379 38.4134 300.465 40.9973 300.465C43.554 300.465 45.4544 302.379 45.4544 305.551ZM43.9641 305.551C43.9641 303.145 42.6927 301.846 40.9973 301.846C39.2884 301.846 38.0169 303.145 38.0169 305.551C38.0169 307.957 39.2884 309.256 40.9973 309.256C42.6927 309.256 43.9641 307.957 43.9641 305.551ZM55.4693 305.551C55.4693 308.709 53.5689 310.637 51.0123 310.637C48.4283 310.637 46.5416 308.709 46.5416 305.551C46.5416 302.379 48.4283 300.465 51.0123 300.465C53.5689 300.465 55.4693 302.379 55.4693 305.551ZM53.9791 305.551C53.9791 303.145 52.7076 301.846 51.0123 301.846C49.3033 301.846 48.0318 303.145 48.0318 305.551C48.0318 307.957 49.3033 309.256 51.0123 309.256C52.7076 309.256 53.9791 307.957 53.9791 305.551ZM56.8846 310.5V300.602H58.3885V305.318H58.5116L62.6541 300.602H64.5409L60.5487 305.059L64.5545 310.5H62.7362L59.5506 306.084L58.3885 307.424V310.5H56.8846ZM69.4906 310.5H67.891L71.4457 300.602H73.182L76.7504 310.5H75.1508L74.2484 307.889H70.393L69.4906 310.5ZM70.8305 306.631H73.8109L72.348 302.406H72.2797L70.8305 306.631ZM76.0466 301.9V300.602H83.7165V301.9H80.6403V310.5H79.1364V301.9H76.0466ZM88.1057 300.602H89.9377L93.0686 308.271H93.1916L96.3225 300.602H98.1545V310.5H96.719V303.35H96.6233L93.7248 310.486H92.5354L89.6233 303.336H89.5412V310.5H88.1057V300.602ZM99.898 310.5V300.602H106.105V301.9H101.402V304.895H105.777V306.18H101.402V309.201H106.16V310.5H99.898Z" fill="#2F2F2F"/>
<defs>
<linearGradient id="paint0_linear_561_6823" x1="199" y1="0" x2="199" y2="452" gradientUnits="userSpaceOnUse">
<stop stop-color="#FCFFD8"/>
<stop offset="0.615022" stop-color="#EAD3FC"/>
<stop offset="1" stop-color="#FFFCFC"/>
</linearGradient>
<linearGradient id="paint1_linear_561_6823" x1="199" y1="361" x2="199" y2="399" gradientUnits="userSpaceOnUse">
<stop stop-color="white" stop-opacity="0.8"/>
<stop offset="1" stop-color="white" stop-opacity="0.3"/>
</linearGradient>
<clipPath id="clip0_561_6823">
<rect width="0.8" height="12" fill="white" transform="matrix(-1 0 0 1 145.8 32)"/>
</clipPath>
<clipPath id="clip1_561_6823">
<rect width="0.8" height="12" fill="white" transform="matrix(-1 0 0 1 183.6 32)"/>
</clipPath>
</defs>
</svg>
