<svg width="374" height="368" viewBox="0 0 374 368" fill="none" xmlns="http://www.w3.org/2000/svg">
<g filter="url(#filter0_d_168_261)">
<rect x="12" y="8" width="350" height="344" rx="16" fill="white"/>
<path d="M46.6641 29.9258V38.8945H45.3652V34.2871H43.0273V33.2344H45.3652V29.9258H46.6641ZM46.9922 40.8496V41.9023H38.707V38.0879H40.0059V40.8496H46.9922ZM40.8398 32.4004C40.8398 33.9316 41.9473 35.4629 43.793 36.0781L43.123 37.1172C41.749 36.6318 40.7305 35.6475 40.1973 34.4375C39.6641 35.7842 38.5908 36.8711 37.1348 37.3906L36.4648 36.3379C38.3516 35.6953 39.5137 34.082 39.5137 32.4004V31.9219H36.8613V30.8555H43.4648V31.9219H40.8398V32.4004ZM54.4915 34.2051V35.9141H59.4407V36.9668H48.2708V35.9141H53.2063V34.2051H54.4915ZM54.5052 30.623C54.5052 32.1816 56.4192 33.5488 58.7845 33.8496L58.2786 34.875C56.3304 34.5674 54.6145 33.6172 53.8489 32.2637C53.0628 33.6172 51.347 34.5674 49.3919 34.875L48.9134 33.8496C51.2649 33.5488 53.179 32.168 53.1927 30.623V30.1035H54.5052V30.623ZM53.8489 37.8691C56.5013 37.8691 58.0735 38.6348 58.0735 40.0156C58.0735 41.3828 56.5013 42.1484 53.8489 42.1348C51.1829 42.1484 49.597 41.3828 49.597 40.0156C49.597 38.6348 51.1829 37.8691 53.8489 37.8691ZM53.8489 38.8672C51.9622 38.8672 50.9095 39.2637 50.9095 40.0156C50.9095 40.7539 51.9622 41.1504 53.8489 41.1504C55.7083 41.1504 56.7747 40.7539 56.7747 40.0156C56.7747 39.2637 55.7083 38.8672 53.8489 38.8672ZM65.7642 37.541C68.2935 37.541 69.8248 38.3887 69.8248 39.8379C69.8248 41.3008 68.2935 42.1484 65.7642 42.1621C63.2076 42.1484 61.649 41.3008 61.649 39.8379C61.649 38.3887 63.2076 37.541 65.7642 37.541ZM65.7642 38.5664C63.9869 38.5664 62.9341 39.0176 62.9478 39.8379C62.9341 40.6582 63.9869 41.123 65.7642 41.123C67.5279 41.123 68.5533 40.6582 68.5533 39.8379C68.5533 39.0176 67.5279 38.5664 65.7642 38.5664ZM69.7154 29.9121V32.9062H71.4927V34.0137H69.7154V37.2266H68.4166V29.9121H69.7154ZM61.8404 30.6777V32.4414H65.0533V30.6777H66.3384V36.3652H60.5689V30.6777H61.8404ZM61.8404 35.3262H65.0533V33.4668H61.8404V35.3262ZM76.367 31.6758C76.3534 33.3711 77.5155 34.916 79.4022 35.5449L78.7459 36.5703C77.3309 36.0713 76.2645 35.0732 75.7108 33.7949C75.1639 35.1689 74.0907 36.2559 72.6346 36.7754L71.9784 35.7637C73.8924 35.0801 75.0409 33.4258 75.0409 31.6758V30.5H76.367V31.6758ZM82.0682 37.8555V42.1621H80.7694V38.9082H73.7694V37.8555H82.0682ZM82.0682 29.9121V37.2676H80.7694V29.9121H82.0682ZM91.1879 32.1543C91.1879 33.8086 92.2953 35.4219 94.141 36.0645L93.4301 37.0762C92.0902 36.5635 91.0922 35.5518 90.5727 34.2734C90.0395 35.6953 88.9936 36.8164 87.5512 37.3633L86.8539 36.3379C88.7543 35.6543 89.8891 33.959 89.9027 32.1133V30.6641H91.1879V32.1543ZM97.0805 29.9258V39.0586H95.7816V33.7812H93.1977V32.7148H95.7816V29.9258H97.0805ZM97.3539 40.8496V41.9023H89.0824V38.0332H90.3949V40.8496H97.3539ZM103.978 30.7871V31.8398H100.437V33.207H103.841V34.2051H100.437V35.6953C102.078 35.6816 103.158 35.6201 104.416 35.3809L104.539 36.4473C103.103 36.7207 101.941 36.7754 99.986 36.7617H99.193V30.7871H103.978ZM109.132 29.9258V37.3633H107.902V34.0957H106.398V37.2676H105.181V30.1445H106.398V33.043H107.902V29.9258H109.132ZM109.132 37.9512V42.1621H107.847V39.0039H100.806V37.9512H109.132Z" fill="#2F2F2F"/>
<path d="M41.6191 148.293V151.479H43.2598V147.145H44.5039V158.561H43.2598V152.545H41.6191V155.936H36.8613V148.293H41.6191ZM38.0918 149.318V154.896H40.4023V149.318H38.0918ZM46.9922 146.912V159.162H45.748V146.912H46.9922ZM52.7688 150.029C52.7552 152.271 54.1087 154.514 56.0091 155.361L55.2298 156.387C53.8216 155.717 52.7073 154.343 52.1399 152.668C51.5657 154.459 50.4378 155.942 48.968 156.66L48.1751 155.566C50.1028 154.705 51.4563 152.367 51.4563 150.029V147.938H52.7688V150.029ZM58.4153 146.912V159.189H57.1165V146.912H58.4153ZM64.6021 150.521C64.6021 152.572 65.942 154.691 67.8287 155.498L67.1177 156.51C65.6754 155.874 64.5269 154.527 63.9595 152.887C63.3921 154.637 62.2369 156.127 60.815 156.824L60.063 155.799C61.9088 154.938 63.2759 152.627 63.2896 150.521V149.223H60.4869V148.143H67.3912V149.223H64.6021V150.521ZM70.2349 146.912V159.162H68.9361V146.912H70.2349ZM85.5343 146.912V159.162H84.2902V152.887H82.7179V158.533H81.5011V147.158H82.7179V151.82H84.2902V146.912H85.5343ZM76.921 148.361V154.896C78.0558 154.89 79.2931 154.801 80.6808 154.527L80.8175 155.662C79.1359 155.963 77.7277 156.045 76.4152 156.045H75.6222V148.361H76.921ZM98.0375 152.887V153.939H86.8676V152.887H89.5473V151.232C88.6039 150.85 88.0707 150.234 88.0707 149.428C88.0707 147.979 89.7523 147.131 92.4457 147.131C95.1254 147.131 96.8207 147.979 96.8207 149.428C96.8207 150.234 96.2807 150.856 95.3305 151.232V152.887H98.0375ZM92.4457 154.773C95.0844 154.773 96.6703 155.553 96.6703 156.947C96.6703 158.369 95.0844 159.135 92.4457 159.135C89.7797 159.135 88.1937 158.369 88.1937 156.947C88.1937 155.553 89.7797 154.773 92.4457 154.773ZM92.4457 155.771C90.5727 155.771 89.5062 156.195 89.5062 156.947C89.5062 157.713 90.5727 158.15 92.4457 158.137C94.2914 158.15 95.3715 157.713 95.3715 156.947C95.3715 156.195 94.2914 155.771 92.4457 155.771ZM92.4457 148.129C90.5453 148.129 89.3969 148.607 89.4105 149.428C89.3969 150.248 90.5453 150.713 92.4457 150.713C94.3461 150.713 95.4809 150.248 95.4809 149.428C95.4809 148.607 94.3461 148.129 92.4457 148.129ZM90.8598 152.887H94.0453V151.574C93.5668 151.656 93.0268 151.697 92.4457 151.697C91.8715 151.697 91.3383 151.656 90.8598 151.588V152.887Z" fill="#2F2F2F"/>
<rect x="36" y="170" width="302" height="130" rx="8" fill="#F3F3F3"/>
<g clip-path="url(#clip0_168_261)">
<path fill-rule="evenodd" clip-rule="evenodd" d="M337.946 313.029C338.001 312.892 338.014 312.743 337.985 312.599C337.955 312.455 337.884 312.323 337.78 312.22C337.676 312.116 337.544 312.045 337.401 312.015C337.257 311.986 337.107 311.999 336.971 312.054L336.829 312.111L315.151 320.781L315.149 320.782L314.471 321.052C314.343 321.103 314.231 321.189 314.148 321.3C314.065 321.411 314.015 321.542 314.002 321.68C313.989 321.817 314.015 321.956 314.076 322.08C314.137 322.204 314.231 322.309 314.348 322.383L314.963 322.773L314.965 322.776L321.809 327.13L322.457 327.543L322.87 328.191L327.224 335.035L327.227 335.038L327.617 335.653C327.691 335.77 327.796 335.863 327.92 335.924C328.044 335.985 328.182 336.01 328.32 335.997C328.457 335.984 328.588 335.934 328.699 335.851C328.809 335.768 328.895 335.657 328.946 335.529L329.218 334.849L337.889 313.17L337.946 313.027V313.029ZM335.197 315.864L335.903 314.097L334.136 314.803L322.895 326.044L323.402 326.367C323.495 326.426 323.574 326.505 323.633 326.598L323.956 327.105L335.197 315.864Z" fill="#252525"/>
</g>
<path d="M53.8477 67.0625C53.8359 70.1562 52.8867 72.9102 49.0547 74.7969L48.4453 73.9648C50.3438 73.0332 51.4746 71.9023 52.1016 70.5664L48.668 70.8945L48.5039 69.9336L52.4414 69.6641C52.5996 69.1309 52.6934 68.5625 52.7344 67.9648H49.0547V67.0625H53.8477ZM56.5664 65.9961V70.1914H58.1953V71.1055H56.5664V76.4844H55.4531V65.9961H56.5664ZM68.332 71.6211V72.5117H58.7344V71.6211H62.9766V70.625H59.9883V66.2656H67.1602V67.1445H61.1133V68H66.8906V68.8438H61.1133V69.7695H67.2305V70.625H64.0898V71.6211H68.332ZM67.1133 73.3555V76.4961H65.9766V74.2461H59.8242V73.3555H67.1133ZM73.8281 67.0156V75.5H72.5391V67.0156H73.8281ZM78.3047 75.5H75.5508V67.0156H78.3867C80.8828 67.0156 82.3828 68.6094 82.3828 71.2461C82.3828 73.8945 80.8828 75.5 78.3047 75.5ZM76.8398 74.375H78.2344C80.1562 74.375 81.1055 73.25 81.1055 71.2461C81.1055 69.2539 80.1562 68.1406 78.3047 68.1406H76.8398V74.375Z" fill="#2F2F2F"/>
<rect x="111" y="61" width="21" height="21" rx="4" fill="#F3F3F3"/>
<path d="M127 68L120 76L117 73" stroke="#2F2F2F" stroke-width="1.6" stroke-miterlimit="10" stroke-linecap="square"/>
<path d="M57.1406 97.0078V104.695H56.0273V100.746H54.0234V99.8438H56.0273V97.0078H57.1406ZM57.4219 106.371V107.273H50.3203V104.004H51.4336V106.371H57.4219ZM52.1484 99.1289C52.1484 100.441 53.0977 101.754 54.6797 102.281L54.1055 103.172C52.9277 102.756 52.0547 101.912 51.5977 100.875C51.1406 102.029 50.2207 102.961 48.9727 103.406L48.3984 102.504C50.0156 101.953 51.0117 100.57 51.0117 99.1289V98.7188H48.7383V97.8047H54.3984V98.7188H52.1484V99.1289ZM66.9844 96.9961V101.391H68.5664V102.328H66.9844V107.496H65.8711V96.9961H66.9844ZM58.6289 104.637C59.4551 104.637 60.416 104.637 61.418 104.602V103.535C60.2344 103.371 59.4609 102.656 59.4727 101.637C59.4609 100.453 60.4805 99.668 61.9805 99.668C63.4688 99.668 64.5 100.453 64.5117 101.637C64.5 102.656 63.7148 103.377 62.5312 103.547V104.555C63.4629 104.52 64.4004 104.443 65.2734 104.32L65.3438 105.141C63.0703 105.551 60.6094 105.562 58.8047 105.562L58.6289 104.637ZM65.1211 98.2383V99.1289H58.8281V98.2383H61.418V97.0195H62.5312V98.2383H65.1211ZM61.9805 100.535C61.1016 100.535 60.5156 100.969 60.5156 101.637C60.5156 102.305 61.1016 102.715 61.9805 102.715C62.8594 102.715 63.4453 102.305 63.4453 101.637C63.4453 100.969 62.8594 100.535 61.9805 100.535ZM77.8828 97.0078V104.766H76.7695V100.805H74.4727V103.02H69.6328V97.6992H70.7461V99.4805H73.3711V97.6992H74.4727V99.9023H76.7695V97.0078H77.8828ZM78.1172 106.371V107.273H71.0273V104.004H72.1523V106.371H78.1172ZM70.7461 102.117H73.3711V100.336H70.7461V102.117ZM88.5938 98.4727V99.375H79.957V98.4727H83.7305V97.1484H84.832V98.4727H88.5938ZM89.1094 105.41V106.312H79.5V105.41H83.7305V104.016C81.8906 103.904 80.7773 103.178 80.7773 102.012C80.7773 100.746 82.1133 100.008 84.2812 100.008C86.4258 100.008 87.7734 100.746 87.7734 102.012C87.7734 103.178 86.6543 103.904 84.832 104.016V105.41H89.1094ZM84.2812 100.887C82.7812 100.887 81.9023 101.285 81.9141 102.012C81.9023 102.738 82.7812 103.137 84.2812 103.148C85.7578 103.137 86.6367 102.738 86.6367 102.012C86.6367 101.285 85.7578 100.887 84.2812 100.887Z" fill="#2F2F2F"/>
<rect x="111" y="92" width="21" height="21" rx="4" fill="#F3F3F3"/>
<path d="M338 40L326 28" stroke="#252525" stroke-width="1.49989" stroke-linecap="round" stroke-linejoin="round"/>
<path d="M338 28L326 40" stroke="#252525" stroke-width="1.49989" stroke-linecap="round" stroke-linejoin="round"/>
</g>
<defs>
<filter id="filter0_d_168_261" x="0" y="0" width="374" height="368" filterUnits="userSpaceOnUse" color-interpolation-filters="sRGB">
<feFlood flood-opacity="0" result="BackgroundImageFix"/>
<feColorMatrix in="SourceAlpha" type="matrix" values="0 0 0 0 0 0 0 0 0 0 0 0 0 0 0 0 0 0 127 0" result="hardAlpha"/>
<feOffset dy="4"/>
<feGaussianBlur stdDeviation="6"/>
<feComposite in2="hardAlpha" operator="out"/>
<feColorMatrix type="matrix" values="0 0 0 0 0 0 0 0 0 0 0 0 0 0 0 0 0 0 0.12 0"/>
<feBlend mode="normal" in2="BackgroundImageFix" result="effect1_dropShadow_168_261"/>
<feBlend mode="normal" in="SourceGraphic" in2="effect1_dropShadow_168_261" result="shape"/>
</filter>
<clipPath id="clip0_168_261">
<rect width="24" height="24" fill="white" transform="translate(314 312)"/>
</clipPath>
</defs>
</svg>
