<svg width="150" height="150" viewBox="0 0 150 150" fill="none" xmlns="http://www.w3.org/2000/svg">
<rect width="150" height="150" fill="#1E1E1E"/>
<g clip-path="url(#clip0_0_1)">
<rect width="150" height="150" fill="url(#paint0_linear_0_1)"/>
<g clip-path="url(#clip1_0_1)">
<path d="M16.508 37.038H17.006V41.034H16.508V37.038ZM16.85 38.688H17.81V39.102H16.85V38.688ZM13.628 41.94H17.252V42.348H13.628V41.94ZM13.628 40.626H14.126V42.102H13.628V40.626ZM14.312 37.422C15.122 37.422 15.728 37.98 15.728 38.76C15.728 39.546 15.122 40.098 14.312 40.098C13.502 40.098 12.896 39.546 12.896 38.76C12.896 37.98 13.502 37.422 14.312 37.422ZM14.312 37.86C13.784 37.86 13.382 38.232 13.382 38.76C13.382 39.294 13.784 39.66 14.312 39.66C14.84 39.66 15.242 39.294 15.242 38.76C15.242 38.232 14.84 37.86 14.312 37.86ZM18.6435 37.368H19.1355V39.708H18.6435V37.368ZM18.6435 39.588H19.0515C20.0055 39.588 20.6655 39.558 21.4155 39.402L21.4815 39.804C20.7015 39.966 20.0295 40.002 19.0515 40.002H18.6435V39.588ZM22.2795 37.044H22.7775V40.368H22.2795V37.044ZM20.7615 37.68H22.4175V38.07H20.7615V37.68ZM20.7615 38.634H22.4175V39.03H20.7615V38.634ZM20.9955 40.416C22.1115 40.416 22.8015 40.794 22.8015 41.442C22.8015 42.09 22.1115 42.462 20.9955 42.462C19.8735 42.462 19.1835 42.09 19.1835 41.442C19.1835 40.794 19.8735 40.416 20.9955 40.416ZM20.9955 40.812C20.1795 40.812 19.6815 41.046 19.6815 41.442C19.6815 41.838 20.1795 42.066 20.9955 42.066C21.8115 42.066 22.3095 41.838 22.3095 41.442C22.3095 41.046 21.8115 40.812 20.9955 40.812ZM27.5111 37.044H28.0091V42.468H27.5111V37.044ZM27.8891 39.27H28.8971V39.69H27.8891V39.27ZM23.8091 37.908H27.0071V38.316H23.8091V37.908ZM25.4291 38.766C26.1971 38.766 26.7491 39.282 26.7491 40.014C26.7491 40.746 26.1971 41.262 25.4291 41.262C24.6671 41.262 24.1091 40.746 24.1091 40.014C24.1091 39.282 24.6671 38.766 25.4291 38.766ZM25.4291 39.18C24.9371 39.18 24.5831 39.522 24.5831 40.014C24.5831 40.5 24.9371 40.848 25.4291 40.848C25.9211 40.848 26.2751 40.5 26.2751 40.014C26.2751 39.522 25.9211 39.18 25.4291 39.18ZM25.1711 37.11H25.6691V38.094H25.1711V37.11ZM31.4946 38.982H32.5326V39.396H31.4946V38.982ZM30.4806 37.554H30.8706V38.586C30.8706 39.72 30.3966 40.818 29.6046 41.304L29.2926 40.926C30.0366 40.488 30.4806 39.516 30.4806 38.586V37.554ZM30.5766 37.554H30.9606V38.568C30.9606 39.438 31.3686 40.362 32.0826 40.794L31.7946 41.184C31.0146 40.704 30.5766 39.624 30.5766 38.568V37.554ZM33.4866 37.044H33.9666V42.468H33.4866V37.044ZM32.3886 37.158H32.8566V42.198H32.3886V37.158ZM36.0781 39.834H36.5701V41.46H36.0781V39.834ZM38.0821 39.834H38.5801V41.46H38.0821V39.834ZM34.8781 41.364H39.7921V41.778H34.8781V41.364ZM37.3261 37.386C38.4721 37.386 39.2941 37.932 39.2941 38.784C39.2941 39.63 38.4721 40.176 37.3261 40.176C36.1741 40.176 35.3521 39.63 35.3521 38.784C35.3521 37.932 36.1741 37.386 37.3261 37.386ZM37.3261 37.782C36.4561 37.782 35.8321 38.178 35.8321 38.784C35.8321 39.384 36.4561 39.78 37.3261 39.78C38.1961 39.78 38.8141 39.384 38.8141 38.784C38.8141 38.178 38.1961 37.782 37.3261 37.782ZM43.3785 39.258C43.3865 39.334 43.3905 39.402 43.3905 39.462C43.3945 39.522 43.3965 39.582 43.3965 39.642C43.3965 39.702 43.3945 39.762 43.3905 39.822C43.3905 39.882 43.3865 39.952 43.3785 40.032C43.1865 40.068 43.0005 40.086 42.8205 40.086C42.6445 40.086 42.4665 40.068 42.2865 40.032C42.2745 39.956 42.2665 39.888 42.2625 39.828C42.2585 39.768 42.2565 39.708 42.2565 39.648C42.2565 39.592 42.2585 39.532 42.2625 39.468C42.2665 39.404 42.2745 39.334 42.2865 39.258C42.3785 39.238 42.4705 39.224 42.5625 39.216C42.6545 39.208 42.7445 39.204 42.8325 39.204C42.9245 39.204 43.0145 39.208 43.1025 39.216C43.1945 39.224 43.2865 39.238 43.3785 39.258ZM43.3785 41.166C43.3865 41.246 43.3905 41.316 43.3905 41.376C43.3945 41.436 43.3965 41.496 43.3965 41.556C43.3965 41.66 43.3905 41.788 43.3785 41.94C43.1945 41.98 43.0085 42 42.8205 42C42.7325 42 42.6445 41.996 42.5565 41.988C42.4685 41.976 42.3805 41.96 42.2925 41.94C42.2765 41.868 42.2665 41.802 42.2625 41.742C42.2585 41.682 42.2565 41.622 42.2565 41.562C42.2565 41.506 42.2585 41.446 42.2625 41.382C42.2665 41.318 42.2765 41.246 42.2925 41.166C42.3805 41.146 42.4705 41.134 42.5625 41.13C42.6545 41.122 42.7445 41.118 42.8325 41.118C42.9245 41.118 43.0145 41.122 43.1025 41.13C43.1945 41.134 43.2865 41.146 43.3785 41.166ZM43.8739 37.968V37.218C44.1219 37.218 44.3279 37.238 44.4919 37.278C44.6599 37.318 44.7939 37.394 44.8939 37.506C44.9939 37.614 45.0659 37.776 45.1099 37.992C45.1539 38.204 45.1759 38.484 45.1759 38.832V41.892C45.1759 42.252 45.1559 42.542 45.1159 42.762C45.0759 42.982 45.0079 43.148 44.9119 43.26C44.8159 43.376 44.6839 43.454 44.5159 43.494C44.3479 43.534 44.1339 43.554 43.8739 43.554V42.804C43.9779 42.804 44.0599 42.784 44.1199 42.744C44.1839 42.708 44.2299 42.624 44.2579 42.492C44.2899 42.364 44.3059 42.164 44.3059 41.892V38.832C44.3059 38.576 44.2899 38.388 44.2579 38.268C44.2299 38.144 44.1839 38.064 44.1199 38.028C44.0599 37.988 43.9779 37.968 43.8739 37.968ZM16.766 47.038H17.258V52.474H16.766V47.038ZM15.596 49.018H16.91V49.426H15.596V49.018ZM14.174 47.818H14.576V48.628C14.576 49.798 13.904 50.956 13.046 51.4L12.752 51.004C13.532 50.62 14.174 49.594 14.174 48.628V47.818ZM14.276 47.818H14.672V48.628C14.672 49.534 15.302 50.524 16.088 50.896L15.794 51.286C14.936 50.86 14.276 49.744 14.276 48.628V47.818ZM12.95 47.596H15.902V48.01H12.95V47.596ZM22.0275 47.044H22.5255V50.32H22.0275V47.044ZM22.3755 48.4H23.3295V48.814H22.3755V48.4ZM18.5535 49.6H18.9795C19.9635 49.6 20.6655 49.57 21.5115 49.42L21.5535 49.834C20.6955 49.978 19.9815 50.014 18.9795 50.014H18.5535V49.6ZM18.5415 47.38H20.9835V48.856H19.0395V49.864H18.5535V48.466H20.4915V47.788H18.5415V47.38ZM20.7915 50.488C21.9015 50.488 22.5735 50.848 22.5735 51.472C22.5735 52.102 21.9015 52.462 20.7915 52.462C19.6875 52.462 19.0095 52.102 19.0095 51.472C19.0095 50.848 19.6875 50.488 20.7915 50.488ZM20.7915 50.878C19.9815 50.878 19.4955 51.094 19.4955 51.472C19.4955 51.856 19.9815 52.072 20.7915 52.072C21.6015 52.072 22.0935 51.856 22.0935 51.472C22.0935 51.094 21.6015 50.878 20.7915 50.878ZM28.0859 47.164C29.2559 47.164 29.9939 47.548 29.9939 48.19C29.9939 48.832 29.2559 49.21 28.0859 49.21C26.9099 49.21 26.1779 48.832 26.1779 48.19C26.1779 47.548 26.9099 47.164 28.0859 47.164ZM28.0859 47.56C27.2219 47.56 26.6879 47.788 26.6879 48.19C26.6879 48.586 27.2219 48.82 28.0859 48.82C28.9439 48.82 29.4839 48.586 29.4839 48.19C29.4839 47.788 28.9439 47.56 28.0859 47.56ZM26.2319 50.608H29.9339V52.396H26.2319V50.608ZM29.4479 51.01H26.7239V51.994H29.4479V51.01ZM25.6319 49.678H30.5339V50.08H25.6319V49.678ZM32.6694 47.362C33.4854 47.362 34.0854 47.89 34.0854 48.652C34.0854 49.408 33.4854 49.93 32.6694 49.93C31.8534 49.93 31.2534 49.408 31.2534 48.652C31.2534 47.89 31.8534 47.362 32.6694 47.362ZM32.6694 47.788C32.1294 47.788 31.7394 48.136 31.7394 48.652C31.7394 49.162 32.1294 49.516 32.6694 49.516C33.2094 49.516 33.5994 49.162 33.5994 48.652C33.5994 48.136 33.2094 47.788 32.6694 47.788ZM34.8654 47.044H35.3634V50.236H34.8654V47.044ZM35.2254 48.436H36.1674V48.856H35.2254V48.436ZM31.8414 50.518H35.3634V52.474H34.8654V50.92H31.8414V50.518ZM40.0178 47.992H40.4258V48.064C40.4258 48.862 39.8378 49.486 38.9198 49.714L38.7158 49.318C39.4898 49.144 40.0178 48.64 40.0178 48.064V47.992ZM40.1078 47.992H40.5158V48.064C40.5158 48.61 41.0378 49.072 41.8058 49.246L41.6018 49.636C40.6958 49.42 40.1078 48.826 40.1078 48.064V47.992ZM38.8298 47.656H41.7038V48.052H38.8298V47.656ZM40.0118 47.056H40.5158V47.92H40.0118V47.056ZM40.0238 50.146H40.5218V52.312H40.0238V50.146ZM42.4238 47.044H42.9158V52.474H42.4238V47.044ZM38.5298 50.512L38.4638 50.092C39.4898 50.092 40.8518 50.086 42.0398 49.918L42.0758 50.284C40.8578 50.494 39.5378 50.512 38.5298 50.512ZM48.0513 47.98H48.9933V48.394H48.0513V47.98ZM48.0513 49.138H48.9933V49.552H48.0513V49.138ZM47.7033 47.044H48.2013V50.536H47.7033V47.044ZM46.4973 50.584C47.5953 50.584 48.2613 50.926 48.2613 51.52C48.2613 52.114 47.5953 52.456 46.4973 52.456C45.4053 52.456 44.7333 52.114 44.7333 51.52C44.7333 50.926 45.4053 50.584 46.4973 50.584ZM46.4973 50.968C45.7053 50.968 45.2253 51.172 45.2253 51.52C45.2253 51.874 45.7053 52.072 46.4973 52.072C47.2953 52.072 47.7753 51.874 47.7753 51.52C47.7753 51.172 47.2953 50.968 46.4973 50.968ZM44.0073 47.656H47.2113V48.052H44.0073V47.656ZM45.6093 48.328C46.3833 48.328 46.9053 48.7 46.9053 49.282C46.9053 49.87 46.3833 50.242 45.6093 50.242C44.8293 50.242 44.3073 49.87 44.3073 49.282C44.3073 48.7 44.8293 48.328 45.6093 48.328ZM45.6093 48.706C45.1113 48.706 44.7813 48.934 44.7813 49.282C44.7813 49.636 45.1113 49.864 45.6093 49.864C46.0953 49.864 46.4313 49.636 46.4313 49.282C46.4313 48.934 46.0953 48.706 45.6093 48.706ZM45.3573 46.996H45.8553V47.878H45.3573V46.996ZM53.4508 47.038H53.9488V52.474H53.4508V47.038ZM51.0868 47.458C51.8908 47.458 52.4668 48.196 52.4668 49.348C52.4668 50.506 51.8908 51.244 51.0868 51.244C50.2888 51.244 49.7128 50.506 49.7128 49.348C49.7128 48.196 50.2888 47.458 51.0868 47.458ZM51.0868 47.908C50.5588 47.908 50.1868 48.472 50.1868 49.348C50.1868 50.23 50.5588 50.806 51.0868 50.806C51.6208 50.806 51.9868 50.23 51.9868 49.348C51.9868 48.472 51.6208 47.908 51.0868 47.908ZM60.7692 47.038H61.2672V52.474H60.7692V47.038ZM57.1392 47.5H57.6312V48.934H59.1972V47.5H59.6952V51.166H57.1392V47.5ZM57.6312 49.33V50.758H59.1972V49.33H57.6312ZM62.3467 49.672H67.2487V50.074H62.3467V49.672ZM64.5487 50.488H64.9747V50.656C64.9747 51.628 64.0267 52.264 62.9167 52.45L62.7247 52.054C63.7147 51.916 64.5487 51.376 64.5487 50.656V50.488ZM64.6267 50.488H65.0527V50.656C65.0527 51.376 65.8807 51.916 66.8707 52.054L66.6787 52.45C65.5687 52.264 64.6267 51.628 64.6267 50.656V50.488ZM64.5487 47.134H64.9747V47.374C64.9747 48.34 63.9367 49.048 62.8267 49.228L62.6407 48.832C63.6067 48.7 64.5487 48.082 64.5487 47.374V47.134ZM64.6267 47.134H65.0527V47.374C65.0527 48.07 66.0067 48.7 66.9607 48.832L66.7747 49.228C65.6767 49.048 64.6267 48.316 64.6267 47.374V47.134ZM71.5443 47.044H72.0423V52.468H71.5443V47.044ZM71.9223 49.27H72.9303V49.69H71.9223V49.27ZM67.8423 47.908H71.0403V48.316H67.8423V47.908ZM69.4623 48.766C70.2303 48.766 70.7823 49.282 70.7823 50.014C70.7823 50.746 70.2303 51.262 69.4623 51.262C68.7003 51.262 68.1423 50.746 68.1423 50.014C68.1423 49.282 68.7003 48.766 69.4623 48.766ZM69.4623 49.18C68.9703 49.18 68.6163 49.522 68.6163 50.014C68.6163 50.5 68.9703 50.848 69.4623 50.848C69.9543 50.848 70.3083 50.5 70.3083 50.014C70.3083 49.522 69.9543 49.18 69.4623 49.18ZM69.2043 47.11H69.7023V48.094H69.2043V47.11ZM74.8198 47.512H75.2278V48.484C75.2278 49.732 74.5558 50.89 73.6678 51.34L73.3618 50.932C74.1658 50.548 74.8198 49.51 74.8198 48.484V47.512ZM74.9038 47.512H75.3118V48.484C75.3118 49.474 75.9598 50.47 76.7638 50.842L76.4638 51.238C75.5818 50.806 74.9038 49.69 74.9038 48.484V47.512ZM77.3278 47.038H77.8258V52.474H77.3278V47.038ZM79.1693 47.626H79.6613V50.806H79.1693V47.626ZM79.1693 50.662H79.5173C80.1473 50.662 80.7353 50.632 81.4193 50.494L81.4853 50.92C80.7773 51.064 80.1713 51.094 79.5173 51.094H79.1693V50.662ZM83.0393 47.044H83.5193V52.468H83.0393V47.044ZM80.6753 48.862H82.0313V49.276H80.6753V48.862ZM81.8933 47.17H82.3613V52.192H81.8933V47.17ZM85.6309 49.834H86.1229V51.46H85.6309V49.834ZM87.6349 49.834H88.1329V51.46H87.6349V49.834ZM84.4309 51.364H89.3449V51.778H84.4309V51.364ZM86.8789 47.386C88.0249 47.386 88.8469 47.932 88.8469 48.784C88.8469 49.63 88.0249 50.176 86.8789 50.176C85.7269 50.176 84.9049 49.63 84.9049 48.784C84.9049 47.932 85.7269 47.386 86.8789 47.386ZM86.8789 47.782C86.0089 47.782 85.3849 48.178 85.3849 48.784C85.3849 49.384 86.0089 49.78 86.8789 49.78C87.7489 49.78 88.3669 49.384 88.3669 48.784C88.3669 48.178 87.7489 47.782 86.8789 47.782ZM13.82 61.946H12.86V58.148H14.672C15.148 58.148 15.494 58.256 15.71 58.472C15.93 58.684 16.04 58.998 16.04 59.414C16.04 59.726 15.962 59.994 15.806 60.218C15.65 60.438 15.444 60.576 15.188 60.632L15.182 60.65C15.282 60.714 15.392 60.82 15.512 60.968C15.632 61.116 15.75 61.278 15.866 61.454C15.986 61.626 16.092 61.788 16.184 61.94V61.946H15.068L14.42 60.986C14.364 60.902 14.318 60.842 14.282 60.806C14.25 60.77 14.21 60.748 14.162 60.74C14.118 60.732 14.046 60.728 13.946 60.728H13.82V61.946ZM14.516 58.928H13.82V59.948H14.516C14.716 59.948 14.854 59.908 14.93 59.828C15.01 59.748 15.05 59.618 15.05 59.438C15.05 59.258 15.01 59.128 14.93 59.048C14.854 58.968 14.716 58.928 14.516 58.928ZM17.8372 58.994C18.2212 58.994 18.5312 59.034 18.7672 59.114C19.0032 59.194 19.1752 59.342 19.2832 59.558C19.3952 59.77 19.4512 60.078 19.4512 60.482V61.946H18.5812L18.5512 61.67H18.5332C18.4572 61.77 18.3392 61.85 18.1792 61.91C18.0192 61.97 17.8112 62 17.5552 62C16.8632 62 16.5172 61.676 16.5172 61.028C16.5172 60.752 16.6072 60.536 16.7872 60.38C16.9712 60.22 17.2592 60.14 17.6512 60.14H18.5392C18.5112 59.972 18.4392 59.86 18.3232 59.804C18.2072 59.744 18.0092 59.714 17.7292 59.714C17.5532 59.714 17.3792 59.728 17.2072 59.756C17.0392 59.78 16.8912 59.808 16.7632 59.84L16.7452 59.828L16.7512 59.132C16.8312 59.108 16.9332 59.086 17.0572 59.066C17.1812 59.042 17.3112 59.024 17.4472 59.012C17.5872 59 17.7172 58.994 17.8372 58.994ZM17.8012 61.292C18.0492 61.292 18.2352 61.262 18.3592 61.202C18.4832 61.138 18.5472 61.038 18.5512 60.902V60.752H17.8732C17.6972 60.752 17.5732 60.778 17.5012 60.83C17.4332 60.878 17.3992 60.944 17.3992 61.028C17.3992 61.128 17.4352 61.198 17.5072 61.238C17.5792 61.274 17.6772 61.292 17.8012 61.292ZM22.6528 61.85C22.5408 61.89 22.3848 61.926 22.1848 61.958C21.9888 61.986 21.7548 62 21.4827 62C21.1388 62 20.8448 61.956 20.6007 61.868C20.3608 61.776 20.1788 61.622 20.0548 61.406C19.9308 61.186 19.8688 60.882 19.8688 60.494C19.8688 59.966 19.9888 59.584 20.2288 59.348C20.4728 59.112 20.8488 58.994 21.3568 58.994C21.7208 58.994 22.0068 59.046 22.2148 59.15C22.4268 59.254 22.5768 59.402 22.6648 59.594C22.7568 59.782 22.8027 60.006 22.8027 60.266C22.8027 60.342 22.7988 60.424 22.7908 60.512C22.7868 60.6 22.7768 60.686 22.7608 60.77L22.7368 60.794H20.7628C20.7908 60.97 20.8728 61.086 21.0088 61.142C21.1488 61.198 21.3748 61.226 21.6868 61.226C21.8948 61.226 22.0668 61.222 22.2028 61.214C22.3428 61.202 22.4848 61.186 22.6288 61.166L22.6528 61.184V61.85ZM21.9688 60.164C21.9688 60.068 21.9528 59.986 21.9208 59.918C21.8928 59.846 21.8348 59.792 21.7468 59.756C21.6588 59.716 21.5288 59.696 21.3568 59.696C21.1048 59.696 20.9388 59.74 20.8588 59.828C20.7828 59.912 20.7448 60.024 20.7448 60.164H21.9688ZM25.016 60.968C25.192 61.028 25.384 61.076 25.592 61.112C25.804 61.144 26.014 61.16 26.222 61.16C26.506 61.16 26.716 61.148 26.852 61.124C26.992 61.096 27.084 61.054 27.128 60.998C27.172 60.942 27.194 60.87 27.194 60.782C27.194 60.706 27.178 60.646 27.146 60.602C27.114 60.558 27.052 60.524 26.96 60.5C26.868 60.472 26.732 60.45 26.552 60.434L26.156 60.398C25.86 60.37 25.626 60.308 25.454 60.212C25.286 60.116 25.166 59.988 25.094 59.828C25.026 59.664 24.992 59.468 24.992 59.24C24.992 58.968 25.046 58.748 25.154 58.58C25.266 58.412 25.446 58.29 25.694 58.214C25.942 58.134 26.272 58.094 26.684 58.094C27.22 58.094 27.662 58.164 28.01 58.304L27.992 59.12L27.974 59.144C27.578 59.004 27.164 58.934 26.732 58.934C26.524 58.934 26.364 58.946 26.252 58.97C26.14 58.99 26.062 59.024 26.018 59.072C25.974 59.12 25.952 59.188 25.952 59.276C25.952 59.364 25.966 59.43 25.994 59.474C26.026 59.518 26.088 59.552 26.18 59.576C26.272 59.596 26.406 59.616 26.582 59.636L26.96 59.678C27.28 59.714 27.526 59.778 27.698 59.87C27.87 59.962 27.988 60.086 28.052 60.242C28.12 60.394 28.154 60.58 28.154 60.8C28.154 61.068 28.096 61.292 27.98 61.472C27.868 61.648 27.684 61.78 27.428 61.868C27.172 61.956 26.83 62 26.402 62C26.122 62 25.87 61.986 25.646 61.958C25.422 61.926 25.204 61.884 24.992 61.832V60.986L25.016 60.968ZM29.7165 61.946H28.7565V59.024H29.5365L29.6145 59.624H29.6325C29.6685 59.4 29.7545 59.24 29.8905 59.144C30.0265 59.044 30.2285 58.994 30.4965 58.994C30.6045 58.994 30.7025 59 30.7905 59.012C30.8785 59.02 30.9525 59.028 31.0125 59.036V59.972L31.0005 59.984C30.9365 59.968 30.8625 59.954 30.7785 59.942C30.6985 59.93 30.6065 59.924 30.5025 59.924C30.3545 59.924 30.2205 59.948 30.1005 59.996C29.9845 60.044 29.8925 60.138 29.8245 60.278C29.7605 60.414 29.7285 60.618 29.7285 60.89L29.7165 61.946ZM34.0082 61.85C33.8962 61.89 33.7402 61.926 33.5402 61.958C33.3442 61.986 33.1102 62 32.8382 62C32.4942 62 32.2002 61.956 31.9562 61.868C31.7162 61.776 31.5342 61.622 31.4102 61.406C31.2862 61.186 31.2242 60.882 31.2242 60.494C31.2242 59.966 31.3442 59.584 31.5842 59.348C31.8282 59.112 32.2042 58.994 32.7122 58.994C33.0762 58.994 33.3622 59.046 33.5702 59.15C33.7822 59.254 33.9322 59.402 34.0202 59.594C34.1122 59.782 34.1582 60.006 34.1582 60.266C34.1582 60.342 34.1542 60.424 34.1462 60.512C34.1422 60.6 34.1322 60.686 34.1162 60.77L34.0922 60.794H32.1182C32.1462 60.97 32.2282 61.086 32.3642 61.142C32.5042 61.198 32.7302 61.226 33.0422 61.226C33.2502 61.226 33.4222 61.222 33.5582 61.214C33.6982 61.202 33.8402 61.186 33.9842 61.166L34.0082 61.184V61.85ZM33.3242 60.164C33.3242 60.068 33.3082 59.986 33.2762 59.918C33.2482 59.846 33.1902 59.792 33.1022 59.756C33.0142 59.716 32.8842 59.696 32.7122 59.696C32.4602 59.696 32.2942 59.74 32.2142 59.828C32.1382 59.912 32.1002 60.024 32.1002 60.164H33.3242ZM38.2986 58.994C38.5946 58.994 38.8286 59.092 39.0006 59.288C39.1766 59.484 39.2646 59.824 39.2646 60.308V61.946H38.3046L38.2986 60.428C38.2986 60.232 38.2686 60.09 38.2086 60.002C38.1526 59.914 38.0406 59.87 37.8726 59.87C37.7046 59.87 37.5906 59.914 37.5306 60.002C37.4746 60.09 37.4466 60.232 37.4466 60.428V61.946H36.4866L36.4806 60.428C36.4806 60.232 36.4506 60.09 36.3906 60.002C36.3346 59.914 36.2226 59.87 36.0546 59.87C35.8866 59.87 35.7726 59.914 35.7126 60.002C35.6566 60.09 35.6286 60.232 35.6286 60.428V61.946H34.6686V59.024H35.5806L35.6286 59.558H35.6466C35.6986 59.382 35.7886 59.244 35.9166 59.144C36.0486 59.044 36.2346 58.994 36.4746 58.994C36.7146 58.994 36.9026 59.044 37.0386 59.144C37.1786 59.244 37.2686 59.382 37.3086 59.558H37.3266C37.3786 59.378 37.4786 59.24 37.6266 59.144C37.7786 59.044 38.0026 58.994 38.2986 58.994ZM43.5545 58.994C43.8505 58.994 44.0845 59.092 44.2565 59.288C44.4325 59.484 44.5205 59.824 44.5205 60.308V61.946H43.5605L43.5545 60.428C43.5545 60.232 43.5245 60.09 43.4645 60.002C43.4085 59.914 43.2965 59.87 43.1285 59.87C42.9605 59.87 42.8465 59.914 42.7865 60.002C42.7305 60.09 42.7025 60.232 42.7025 60.428V61.946H41.7425L41.7365 60.428C41.7365 60.232 41.7065 60.09 41.6465 60.002C41.5905 59.914 41.4785 59.87 41.3105 59.87C41.1425 59.87 41.0285 59.914 40.9685 60.002C40.9125 60.09 40.8845 60.232 40.8845 60.428V61.946H39.9245V59.024H40.8365L40.8845 59.558H40.9025C40.9545 59.382 41.0445 59.244 41.1725 59.144C41.3045 59.044 41.4905 58.994 41.7305 58.994C41.9705 58.994 42.1585 59.044 42.2945 59.144C42.4345 59.244 42.5245 59.382 42.5645 59.558H42.5825C42.6345 59.378 42.7345 59.24 42.8825 59.144C43.0345 59.044 43.2585 58.994 43.5545 58.994ZM46.1403 62C45.7723 62 45.5103 61.902 45.3543 61.706C45.1983 61.51 45.1203 61.23 45.1203 60.866V59.024H46.0803L46.0863 60.632C46.0863 60.812 46.1183 60.94 46.1823 61.016C46.2463 61.088 46.3763 61.124 46.5723 61.124C46.7603 61.124 46.8863 61.092 46.9503 61.028C47.0183 60.96 47.0543 60.846 47.0583 60.686V59.024H48.0183V61.946H47.1063L47.0583 61.616H47.0403C46.9883 61.732 46.8823 61.826 46.7223 61.898C46.5623 61.966 46.3683 62 46.1403 62ZM49.697 61.946H48.737V59.024H49.517L49.595 59.624H49.613C49.649 59.4 49.735 59.24 49.871 59.144C50.007 59.044 50.209 58.994 50.477 58.994C50.585 58.994 50.683 59 50.771 59.012C50.859 59.02 50.933 59.028 50.993 59.036V59.972L50.981 59.984C50.917 59.968 50.843 59.954 50.759 59.942C50.679 59.93 50.587 59.924 50.483 59.924C50.335 59.924 50.201 59.948 50.081 59.996C49.965 60.044 49.873 60.138 49.805 60.278C49.741 60.414 49.709 60.618 49.709 60.89L49.697 61.946ZM53.2387 61.946L53.2027 61.52H53.1787C53.1107 61.68 53.0127 61.8 52.8847 61.88C52.7607 61.96 52.5787 62 52.3387 62C51.9507 62 51.6667 61.888 51.4867 61.664C51.3067 61.436 51.2127 61.094 51.2047 60.638C51.2007 60.23 51.2427 59.906 51.3307 59.666C51.4187 59.426 51.5567 59.254 51.7447 59.15C51.9327 59.046 52.1727 58.994 52.4647 58.994C52.6167 58.994 52.7547 59.008 52.8787 59.036C53.0027 59.06 53.1027 59.094 53.1787 59.138L53.1907 59.132V57.908H54.1507V61.946H53.2387ZM52.6507 61.184C52.8107 61.184 52.9407 61.134 53.0407 61.034C53.1407 60.934 53.1907 60.768 53.1907 60.536V59.906C53.0427 59.846 52.8687 59.816 52.6687 59.816C52.4807 59.816 52.3447 59.862 52.2607 59.954C52.1807 60.042 52.1407 60.222 52.1407 60.494C52.1407 60.726 52.1727 60.9 52.2367 61.016C52.3047 61.128 52.4427 61.184 52.6507 61.184ZM60.5765 57.038H61.0685V62.474H60.5765V57.038ZM59.4065 59.018H60.7205V59.426H59.4065V59.018ZM57.9845 57.818H58.3865V58.628C58.3865 59.798 57.7145 60.956 56.8565 61.4L56.5625 61.004C57.3425 60.62 57.9845 59.594 57.9845 58.628V57.818ZM58.0865 57.818H58.4825V58.628C58.4825 59.534 59.1125 60.524 59.8985 60.896L59.6045 61.286C58.7465 60.86 58.0865 59.744 58.0865 58.628V57.818ZM56.7605 57.596H59.7125V58.01H56.7605V57.596ZM62.7481 59.576H66.4741V59.984H62.7481V59.576ZM62.1301 61.37H67.0441V61.79H62.1301V61.37ZM64.3261 59.75H64.8241V61.538H64.3261V59.75ZM62.7481 57.476H66.4201V57.884H63.2461V59.756H62.7481V57.476ZM71.6444 58.652H72.1364V59.48H71.6444V58.652ZM71.5724 57.374H72.0104V57.542C72.0104 58.358 71.0024 58.88 69.8624 58.988L69.7004 58.61C70.6784 58.532 71.5724 58.112 71.5724 57.542V57.374ZM71.7884 57.374H72.2204V57.542C72.2204 58.106 73.1144 58.532 74.0924 58.61L73.9304 58.988C72.7964 58.88 71.7884 58.358 71.7884 57.542V57.374ZM69.8924 57.212H73.9064V57.602H69.8924V57.212ZM69.8984 60.41H73.8944V60.806H69.8984V60.41ZM69.4424 59.294H74.3624V59.696H69.4424V59.294ZM71.8964 61.07C72.9404 61.07 73.5224 61.316 73.5224 61.784C73.5224 62.258 72.9404 62.498 71.8964 62.498C70.8524 62.498 70.2644 62.258 70.2644 61.784C70.2644 61.316 70.8524 61.07 71.8964 61.07ZM71.8964 61.412C71.1764 61.412 70.7744 61.538 70.7744 61.784C70.7744 62.03 71.1764 62.156 71.8964 62.156C72.6104 62.156 73.0184 62.03 73.0184 61.784C73.0184 61.538 72.6104 61.412 71.8964 61.412ZM71.6504 59.912H72.1424V60.662H71.6504V59.912ZM76.408 57.458C77.206 57.458 77.77 58.196 77.77 59.348C77.77 60.506 77.206 61.244 76.408 61.244C75.61 61.244 75.046 60.506 75.046 59.348C75.046 58.196 75.61 57.458 76.408 57.458ZM76.408 57.908C75.88 57.908 75.52 58.472 75.52 59.348C75.52 60.23 75.88 60.806 76.408 60.806C76.93 60.806 77.296 60.23 77.296 59.348C77.296 58.472 76.93 57.908 76.408 57.908ZM78.634 57.044H79.138V62.468H78.634V57.044ZM79.018 59.21H80.026V59.63H79.018V59.21ZM80.4755 57.968H83.1635V58.376H80.4755V57.968ZM81.8195 58.736C82.4975 58.736 82.9895 59.246 82.9895 59.978C82.9895 60.704 82.4975 61.214 81.8195 61.214C81.1475 61.214 80.6555 60.704 80.6555 59.978C80.6555 59.246 81.1475 58.736 81.8195 58.736ZM81.8195 59.162C81.4055 59.162 81.1055 59.498 81.1055 59.978C81.1055 60.458 81.4055 60.794 81.8195 60.794C82.2395 60.794 82.5455 60.458 82.5455 59.978C82.5455 59.498 82.2395 59.162 81.8195 59.162ZM84.5975 57.044H85.0775V62.468H84.5975V57.044ZM83.7335 59.324H84.7595V59.738H83.7335V59.324ZM83.4395 57.164H83.9075V62.204H83.4395V57.164ZM81.5795 57.2H82.0715V58.22H81.5795V57.2ZM87.207 59.834H87.699V61.46H87.207V59.834ZM89.211 59.834H89.709V61.46H89.211V59.834ZM86.007 61.364H90.921V61.778H86.007V61.364ZM88.455 57.386C89.601 57.386 90.423 57.932 90.423 58.784C90.423 59.63 89.601 60.176 88.455 60.176C87.303 60.176 86.481 59.63 86.481 58.784C86.481 57.932 87.303 57.386 88.455 57.386ZM88.455 57.782C87.585 57.782 86.961 58.178 86.961 58.784C86.961 59.384 87.585 59.78 88.455 59.78C89.325 59.78 89.943 59.384 89.943 58.784C89.943 58.178 89.325 57.782 88.455 57.782ZM91.8266 60.932L91.6466 59.624V58.148H92.5346V59.624L92.3546 60.932H91.8266ZM92.5106 61.382C92.5186 61.442 92.5226 61.496 92.5226 61.544C92.5266 61.588 92.5286 61.632 92.5286 61.676C92.5286 61.752 92.5226 61.848 92.5106 61.964C92.4386 61.976 92.3686 61.986 92.3006 61.994C92.2326 62.002 92.1646 62.006 92.0966 62.006C92.0326 62.006 91.9666 62.002 91.8986 61.994C91.8346 61.986 91.7686 61.976 91.7006 61.964C91.6926 61.908 91.6866 61.858 91.6826 61.814C91.6786 61.766 91.6766 61.72 91.6766 61.676C91.6766 61.636 91.6786 61.592 91.6826 61.544C91.6866 61.496 91.6926 61.442 91.7006 61.382C91.8326 61.358 91.9686 61.346 92.1086 61.346C92.2406 61.346 92.3746 61.358 92.5106 61.382ZM14.3 69.756H14.804V70.992H14.3V69.756ZM14.558 67.392C15.404 67.392 16.01 67.914 16.01 68.67C16.01 69.426 15.404 69.948 14.558 69.948C13.712 69.948 13.1 69.426 13.1 68.67C13.1 67.914 13.712 67.392 14.558 67.392ZM14.558 67.824C13.994 67.824 13.586 68.166 13.586 68.67C13.586 69.174 13.994 69.522 14.558 69.522C15.116 69.522 15.524 69.174 15.524 68.67C15.524 68.166 15.116 67.824 14.558 67.824ZM16.718 67.038H17.216V72.474H16.718V67.038ZM12.896 71.298L12.824 70.884C13.814 70.884 15.182 70.878 16.364 70.692L16.406 71.058C15.188 71.292 13.862 71.298 12.896 71.298ZM22.2615 67.044H22.7655V70.182H22.2615V67.044ZM19.2675 70.434H19.7595V71.01H22.2735V70.434H22.7655V72.396H19.2675V70.434ZM19.7595 71.4V71.994H22.2735V71.4H19.7595ZM18.3975 67.626H21.6915V68.028H18.3975V67.626ZM20.0415 68.286C20.8455 68.286 21.3675 68.646 21.3675 69.216C21.3675 69.792 20.8455 70.146 20.0415 70.146C19.2435 70.146 18.7215 69.792 18.7215 69.216C18.7215 68.646 19.2435 68.286 20.0415 68.286ZM20.0415 68.664C19.5315 68.664 19.1895 68.874 19.1895 69.216C19.1895 69.558 19.5315 69.774 20.0415 69.774C20.5575 69.774 20.8935 69.558 20.8935 69.216C20.8935 68.874 20.5575 68.664 20.0415 68.664ZM19.7955 66.996H20.2935V67.92H19.7955V66.996ZM27.8339 68.652H28.3259V69.48H27.8339V68.652ZM27.7619 67.374H28.1999V67.542C28.1999 68.358 27.1919 68.88 26.0519 68.988L25.8899 68.61C26.8679 68.532 27.7619 68.112 27.7619 67.542V67.374ZM27.9779 67.374H28.4099V67.542C28.4099 68.106 29.3039 68.532 30.2819 68.61L30.1199 68.988C28.9859 68.88 27.9779 68.358 27.9779 67.542V67.374ZM26.0819 67.212H30.0959V67.602H26.0819V67.212ZM26.0879 70.41H30.0839V70.806H26.0879V70.41ZM25.6319 69.294H30.5519V69.696H25.6319V69.294ZM28.0859 71.07C29.1299 71.07 29.7119 71.316 29.7119 71.784C29.7119 72.258 29.1299 72.498 28.0859 72.498C27.0419 72.498 26.4539 72.258 26.4539 71.784C26.4539 71.316 27.0419 71.07 28.0859 71.07ZM28.0859 71.412C27.3659 71.412 26.9639 71.538 26.9639 71.784C26.9639 72.03 27.3659 72.156 28.0859 72.156C28.7999 72.156 29.2079 72.03 29.2079 71.784C29.2079 71.538 28.7999 71.412 28.0859 71.412ZM27.8399 69.912H28.3319V70.662H27.8399V69.912ZM32.5974 67.458C33.3954 67.458 33.9594 68.196 33.9594 69.348C33.9594 70.506 33.3954 71.244 32.5974 71.244C31.7994 71.244 31.2354 70.506 31.2354 69.348C31.2354 68.196 31.7994 67.458 32.5974 67.458ZM32.5974 67.908C32.0694 67.908 31.7094 68.472 31.7094 69.348C31.7094 70.23 32.0694 70.806 32.5974 70.806C33.1194 70.806 33.4854 70.23 33.4854 69.348C33.4854 68.472 33.1194 67.908 32.5974 67.908ZM34.8234 67.044H35.3274V72.468H34.8234V67.044ZM35.2074 69.21H36.2154V69.63H35.2074V69.21ZM40.349 67.044H40.847V72.468H40.349V67.044ZM40.727 69.27H41.735V69.69H40.727V69.27ZM36.647 67.908H39.845V68.316H36.647V67.908ZM38.267 68.766C39.035 68.766 39.587 69.282 39.587 70.014C39.587 70.746 39.035 71.262 38.267 71.262C37.505 71.262 36.947 70.746 36.947 70.014C36.947 69.282 37.505 68.766 38.267 68.766ZM38.267 69.18C37.775 69.18 37.421 69.522 37.421 70.014C37.421 70.5 37.775 70.848 38.267 70.848C38.759 70.848 39.113 70.5 39.113 70.014C39.113 69.522 38.759 69.18 38.267 69.18ZM38.009 67.11H38.507V68.094H38.009V67.11ZM43.6245 67.512H44.0325V68.484C44.0325 69.732 43.3605 70.89 42.4725 71.34L42.1665 70.932C42.9705 70.548 43.6245 69.51 43.6245 68.484V67.512ZM43.7085 67.512H44.1165V68.484C44.1165 69.474 44.7645 70.47 45.5685 70.842L45.2685 71.238C44.3865 70.806 43.7085 69.69 43.7085 68.484V67.512ZM46.1325 67.038H46.6305V72.474H46.1325V67.038ZM48.376 68.67H52.06V69.078H48.376V68.67ZM47.71 69.804H52.63V70.212H47.71V69.804ZM48.376 67.242H48.868V68.874H48.376V67.242ZM48.34 71.928H52.09V72.336H48.34V71.928ZM48.34 70.752H48.832V72.036H48.34V70.752ZM58.9944 67.044H59.4924V70.716H58.9944V67.044ZM57.8304 68.574H59.0964V68.982H57.8304V68.574ZM57.2904 67.47H57.8124C57.8124 68.874 56.8884 69.87 55.3344 70.374L55.1244 69.978C56.4984 69.546 57.2904 68.73 57.2904 67.668V67.47ZM55.3824 67.47H57.6444V67.878H55.3824V67.47ZM57.4944 70.248H57.9204V70.494C57.9204 71.532 56.9724 72.234 55.8864 72.456L55.6884 72.06C56.6484 71.886 57.4944 71.286 57.4944 70.494V70.248ZM57.5664 70.248H57.9924V70.494C57.9924 71.274 58.8264 71.874 59.7924 72.048L59.5824 72.444C58.5024 72.228 57.5664 71.526 57.5664 70.494V70.248ZM66.0607 67.044H66.5587V69.942H66.0607V67.044ZM66.4207 68.298H67.3627V68.712H66.4207V68.298ZM64.5607 67.422H65.1127C65.1127 68.79 64.1587 69.678 62.5687 70.044L62.3707 69.642C63.7987 69.324 64.5607 68.598 64.5607 67.692V67.422ZM62.5927 67.422H64.8487V67.83H62.5927V67.422ZM63.1447 70.188H66.5887V70.566H63.6367V72.21H63.1447V70.188ZM63.1447 72.018H66.7087V72.396H63.1447V72.018ZM63.4687 71.094H66.5227V71.46H63.4687V71.094ZM67.8663 69.894H72.7683V70.302H67.8663V69.894ZM68.5023 71.94H72.2283V72.348H68.5023V71.94ZM68.5023 70.776H69.0003V72.066H68.5023V70.776ZM70.3203 67.224C71.4783 67.224 72.2283 67.632 72.2283 68.31C72.2283 68.982 71.4783 69.39 70.3203 69.39C69.1563 69.39 68.4123 68.982 68.4123 68.31C68.4123 67.632 69.1563 67.224 70.3203 67.224ZM70.3203 67.632C69.4683 67.632 68.9223 67.884 68.9223 68.31C68.9223 68.736 69.4683 68.988 70.3203 68.988C71.1723 68.988 71.7183 68.736 71.7183 68.31C71.7183 67.884 71.1723 67.632 70.3203 67.632ZM77.5138 67.044H77.9938V72.468H77.5138V67.044ZM75.2638 69.114H76.6258V69.522H75.2638V69.114ZM76.4218 67.17H76.8958V72.192H76.4218V67.17ZM73.5898 70.746H73.9378C74.7838 70.746 75.2938 70.722 75.8938 70.596L75.9418 71.01C75.3238 71.142 74.8018 71.166 73.9378 71.166H73.5898V70.746ZM73.5898 67.704H75.6298V68.112H74.0818V70.908H73.5898V67.704ZM15.248 77.164C16.418 77.164 17.156 77.548 17.156 78.19C17.156 78.832 16.418 79.21 15.248 79.21C14.072 79.21 13.34 78.832 13.34 78.19C13.34 77.548 14.072 77.164 15.248 77.164ZM15.248 77.56C14.384 77.56 13.85 77.788 13.85 78.19C13.85 78.586 14.384 78.82 15.248 78.82C16.106 78.82 16.646 78.586 16.646 78.19C16.646 77.788 16.106 77.56 15.248 77.56ZM13.394 80.608H17.096V82.396H13.394V80.608ZM16.61 81.01H13.886V81.994H16.61V81.01ZM12.794 79.678H17.696V80.08H12.794V79.678ZM19.8315 77.362C20.6475 77.362 21.2475 77.89 21.2475 78.652C21.2475 79.408 20.6475 79.93 19.8315 79.93C19.0155 79.93 18.4155 79.408 18.4155 78.652C18.4155 77.89 19.0155 77.362 19.8315 77.362ZM19.8315 77.788C19.2915 77.788 18.9015 78.136 18.9015 78.652C18.9015 79.162 19.2915 79.516 19.8315 79.516C20.3715 79.516 20.7615 79.162 20.7615 78.652C20.7615 78.136 20.3715 77.788 19.8315 77.788ZM22.0275 77.044H22.5255V80.236H22.0275V77.044ZM22.3875 78.436H23.3295V78.856H22.3875V78.436ZM19.0035 80.518H22.5255V82.474H22.0275V80.92H19.0035V80.518ZM29.5739 77.038H30.0719V82.474H29.5739V77.038ZM27.2099 77.458C28.0139 77.458 28.5899 78.196 28.5899 79.348C28.5899 80.506 28.0139 81.244 27.2099 81.244C26.4119 81.244 25.8359 80.506 25.8359 79.348C25.8359 78.196 26.4119 77.458 27.2099 77.458ZM27.2099 77.908C26.6819 77.908 26.3099 78.472 26.3099 79.348C26.3099 80.23 26.6819 80.806 27.2099 80.806C27.7439 80.806 28.1099 80.23 28.1099 79.348C28.1099 78.472 27.7439 77.908 27.2099 77.908ZM32.5974 77.458C33.3954 77.458 33.9594 78.196 33.9594 79.348C33.9594 80.506 33.3954 81.244 32.5974 81.244C31.7994 81.244 31.2354 80.506 31.2354 79.348C31.2354 78.196 31.7994 77.458 32.5974 77.458ZM32.5974 77.908C32.0694 77.908 31.7094 78.472 31.7094 79.348C31.7094 80.23 32.0694 80.806 32.5974 80.806C33.1194 80.806 33.4854 80.23 33.4854 79.348C33.4854 78.472 33.1194 77.908 32.5974 77.908ZM35.1894 78.406H36.1854V78.826H35.1894V78.406ZM35.1894 80.02H36.1854V80.44H35.1894V80.02ZM34.8234 77.044H35.3274V82.468H34.8234V77.044ZM40.625 77.044H41.123V82.468H40.625V77.044ZM39.035 77.626H39.527C39.527 79.198 38.819 80.572 37.007 81.46L36.743 81.058C38.309 80.302 39.035 79.15 39.035 77.71V77.626ZM36.989 77.626H39.251V78.034H36.989V77.626ZM47.7033 77.044H48.2013V79.942H47.7033V77.044ZM48.0633 78.298H49.0053V78.712H48.0633V78.298ZM46.2033 77.422H46.7553C46.7553 78.79 45.8013 79.678 44.2113 80.044L44.0133 79.642C45.4413 79.324 46.2033 78.598 46.2033 77.692V77.422ZM44.2353 77.422H46.4913V77.83H44.2353V77.422ZM44.7873 80.188H48.2313V80.566H45.2793V82.21H44.7873V80.188ZM44.7873 82.018H48.3513V82.396H44.7873V82.018ZM45.1113 81.094H48.1653V81.46H45.1113V81.094ZM53.4508 77.038H53.9488V82.474H53.4508V77.038ZM51.0868 77.458C51.8908 77.458 52.4668 78.196 52.4668 79.348C52.4668 80.506 51.8908 81.244 51.0868 81.244C50.2888 81.244 49.7128 80.506 49.7128 79.348C49.7128 78.196 50.2888 77.458 51.0868 77.458ZM51.0868 77.908C50.5588 77.908 50.1868 78.472 50.1868 79.348C50.1868 80.23 50.5588 80.806 51.0868 80.806C51.6208 80.806 51.9868 80.23 51.9868 79.348C51.9868 78.472 51.6208 77.908 51.0868 77.908ZM60.9252 77.05H61.3992V80.404H60.9252V77.05ZM60.0432 78.532H61.0692V78.94H60.0432V78.532ZM59.7732 77.128H60.2472V80.326H59.7732V77.128ZM56.8032 77.662H59.5512V78.058H56.8032V77.662ZM58.1832 78.328C58.8612 78.328 59.3352 78.694 59.3352 79.258C59.3352 79.822 58.8612 80.188 58.1832 80.188C57.4992 80.188 57.0252 79.822 57.0252 79.258C57.0252 78.694 57.4992 78.328 58.1832 78.328ZM58.1832 78.706C57.7572 78.706 57.4692 78.922 57.4692 79.258C57.4692 79.594 57.7572 79.816 58.1832 79.816C58.6032 79.816 58.8912 79.594 58.8912 79.258C58.8912 78.922 58.6032 78.706 58.1832 78.706ZM57.9372 77.068H58.4232V77.896H57.9372V77.068ZM58.2612 80.566H58.6452V80.752C58.6452 81.436 58.1952 82.12 57.4092 82.402L57.1752 82.03C57.8532 81.802 58.2612 81.244 58.2612 80.752V80.566ZM58.3752 80.566H58.7412V80.752C58.7412 81.274 59.0592 81.826 59.7072 82.072L59.4972 82.45C58.7232 82.162 58.3752 81.442 58.3752 80.752V80.566ZM60.2532 80.566H60.6192V80.752C60.6192 81.364 60.2652 82.138 59.4972 82.45L59.2932 82.072C59.9232 81.796 60.2532 81.202 60.2532 80.752V80.566ZM60.3552 80.566H60.7392V80.752C60.7392 81.28 61.1472 81.814 61.8312 82.03L61.5912 82.402C60.7992 82.132 60.3552 81.472 60.3552 80.752V80.566ZM64.8007 77.386C65.9287 77.386 66.7687 77.986 66.7687 78.886C66.7687 79.792 65.9287 80.386 64.8007 80.386C63.6727 80.386 62.8267 79.792 62.8267 78.886C62.8267 77.986 63.6727 77.386 64.8007 77.386ZM64.8007 77.794C63.9427 77.794 63.3067 78.232 63.3067 78.886C63.3067 79.534 63.9427 79.978 64.8007 79.978C65.6587 79.978 66.2947 79.534 66.2947 78.886C66.2947 78.232 65.6587 77.794 64.8007 77.794ZM62.3527 81.334H67.2667V81.754H62.3527V81.334ZM70.4703 77.998H71.9883V78.406H70.4703V77.998ZM70.4703 79.156H72.0003V79.57H70.4703V79.156ZM68.1183 77.512H70.5963V80.056H68.1183V77.512ZM70.1043 77.914H68.6043V79.654H70.1043V77.914ZM71.8323 77.05H72.3303V81.01H71.8323V77.05ZM68.8443 81.94H72.4623V82.348H68.8443V81.94ZM68.8443 80.65H69.3423V82.126H68.8443V80.65ZM77.3866 78.652H77.8786V79.48H77.3866V78.652ZM77.3146 77.374H77.7526V77.542C77.7526 78.358 76.7446 78.88 75.6046 78.988L75.4426 78.61C76.4206 78.532 77.3146 78.112 77.3146 77.542V77.374ZM77.5306 77.374H77.9626V77.542C77.9626 78.106 78.8566 78.532 79.8346 78.61L79.6726 78.988C78.5386 78.88 77.5306 78.358 77.5306 77.542V77.374ZM75.6346 77.212H79.6486V77.602H75.6346V77.212ZM75.6406 80.41H79.6366V80.806H75.6406V80.41ZM75.1846 79.294H80.1046V79.696H75.1846V79.294ZM77.6386 81.07C78.6826 81.07 79.2646 81.316 79.2646 81.784C79.2646 82.258 78.6826 82.498 77.6386 82.498C76.5946 82.498 76.0066 82.258 76.0066 81.784C76.0066 81.316 76.5946 81.07 77.6386 81.07ZM77.6386 81.412C76.9186 81.412 76.5166 81.538 76.5166 81.784C76.5166 82.03 76.9186 82.156 77.6386 82.156C78.3526 82.156 78.7606 82.03 78.7606 81.784C78.7606 81.538 78.3526 81.412 77.6386 81.412ZM77.3926 79.912H77.8846V80.662H77.3926V79.912ZM82.5882 77.44H83.0862C83.0862 78.736 82.3662 79.708 81.0102 80.284L80.7582 79.918C81.9522 79.426 82.5882 78.628 82.5882 77.602V77.44ZM80.9922 77.44H82.7802V77.854H80.9922V77.44ZM84.8022 77.044H85.2762V80.176H84.8022V77.044ZM82.5282 78.586H83.8362V78.988H82.5282V78.586ZM83.7282 77.158H84.1962V80.092H83.7282V77.158ZM82.1142 80.362H82.4982V80.716C82.4982 81.43 82.0482 82.15 81.2682 82.45L81.0222 82.078C81.7002 81.832 82.1142 81.244 82.1142 80.716V80.362ZM82.2222 80.362H82.5942V80.716C82.5942 81.268 82.9122 81.85 83.5662 82.126L83.3562 82.498C82.5702 82.186 82.2222 81.442 82.2222 80.716V80.362ZM84.1062 80.362H84.4782V80.716C84.4782 81.358 84.1242 82.168 83.3562 82.498L83.1342 82.126C83.7882 81.826 84.1062 81.184 84.1062 80.716V80.362ZM84.2082 80.362H84.5922V80.716C84.5922 81.286 85.0002 81.85 85.6842 82.078L85.4382 82.45C84.6522 82.162 84.2082 81.472 84.2082 80.716V80.362ZM87.6757 77.458C88.4617 77.458 89.0257 78.196 89.0257 79.348C89.0257 80.506 88.4617 81.244 87.6757 81.244C86.8837 81.244 86.3257 80.506 86.3257 79.348C86.3257 78.196 86.8837 77.458 87.6757 77.458ZM87.6757 77.908C87.1537 77.908 86.7997 78.472 86.7997 79.348C86.7997 80.23 87.1537 80.806 87.6757 80.806C88.1977 80.806 88.5517 80.23 88.5517 79.348C88.5517 78.472 88.1977 77.908 87.6757 77.908ZM90.2017 77.038H90.6937V82.474H90.2017V77.038ZM88.8637 79.108H90.4177V79.516H88.8637V79.108ZM92.9492 79.834H93.4412V81.46H92.9492V79.834ZM94.9532 79.834H95.4512V81.46H94.9532V79.834ZM91.7492 81.364H96.6632V81.778H91.7492V81.364ZM94.1972 77.386C95.3432 77.386 96.1652 77.932 96.1652 78.784C96.1652 79.63 95.3432 80.176 94.1972 80.176C93.0452 80.176 92.2232 79.63 92.2232 78.784C92.2232 77.932 93.0452 77.386 94.1972 77.386ZM94.1972 77.782C93.3272 77.782 92.7032 78.178 92.7032 78.784C92.7032 79.384 93.3272 79.78 94.1972 79.78C95.0672 79.78 95.6852 79.384 95.6852 78.784C95.6852 78.178 95.0672 77.782 94.1972 77.782ZM97.5688 80.932L97.3888 79.624V78.148H98.2768V79.624L98.0968 80.932H97.5688ZM98.2528 81.382C98.2608 81.442 98.2648 81.496 98.2648 81.544C98.2688 81.588 98.2708 81.632 98.2708 81.676C98.2708 81.752 98.2648 81.848 98.2528 81.964C98.1808 81.976 98.1108 81.986 98.0428 81.994C97.9748 82.002 97.9068 82.006 97.8388 82.006C97.7748 82.006 97.7088 82.002 97.6408 81.994C97.5768 81.986 97.5108 81.976 97.4428 81.964C97.4348 81.908 97.4288 81.858 97.4248 81.814C97.4208 81.766 97.4188 81.72 97.4188 81.676C97.4188 81.636 97.4208 81.592 97.4248 81.544C97.4288 81.496 97.4348 81.442 97.4428 81.382C97.5748 81.358 97.7108 81.346 97.8507 81.346C97.9828 81.346 98.1168 81.358 98.2528 81.382Z" fill="#2F2F2F"/>
</g>
<rect x="7.3" y="33.3" width="135.4" height="96.4" rx="7.7" stroke="#0A0A0A" stroke-width="0.6"/>
<path d="M9.772 18.368H10.528V20.132H9.772V18.368ZM9.772 15.506H10.375V15.686C10.375 17.108 9.448 18.206 8.08 18.638L7.738 18.053C8.944 17.693 9.772 16.784 9.772 15.686V15.506ZM9.916 15.506H10.519V15.686C10.519 16.739 11.374 17.621 12.571 17.972L12.229 18.548C10.861 18.143 9.916 17.063 9.916 15.686V15.506ZM7.927 15.128H12.4V15.731H7.927V15.128ZM9.772 14.12H10.528V15.389H9.772V14.12ZM13.327 14.057H14.074V22.211H13.327V14.057ZM7.594 20.537L7.486 19.907C8.971 19.907 11.023 19.898 12.796 19.628L12.859 20.177C11.032 20.519 9.043 20.528 7.594 20.537ZM19.7883 16.82H22.0563V17.432H19.7883V16.82ZM17.8263 14.768H18.4383V16.217C18.4383 18.044 17.4753 19.79 16.1883 20.483L15.7113 19.889C16.9083 19.295 17.8263 17.729 17.8263 16.217V14.768ZM17.9703 14.768H18.5733V16.217C18.5733 17.702 19.4913 19.178 20.6703 19.736L20.2293 20.339C18.9153 19.673 17.9703 17.999 17.9703 16.217V14.768ZM21.6873 14.057H22.4253V22.211H21.6873V14.057ZM27.6806 14.264C29.3996 14.264 30.5336 14.894 30.5336 15.893C30.5336 16.901 29.3996 17.522 27.6806 17.522C25.9526 17.522 24.8276 16.901 24.8276 15.893C24.8276 14.894 25.9526 14.264 27.6806 14.264ZM27.6806 14.876C26.4386 14.876 25.6196 15.272 25.6196 15.893C25.6196 16.523 26.4386 16.91 27.6806 16.91C28.9226 16.91 29.7416 16.523 29.7416 15.893C29.7416 15.272 28.9226 14.876 27.6806 14.876ZM24.0086 18.134H31.3616V18.746H24.0086V18.134ZM24.8996 21.41H30.6056V22.022H24.8996V21.41ZM24.8996 19.745H25.6466V21.716H24.8996V19.745ZM26.5736 18.395H27.3116V20.429H26.5736V18.395ZM28.7426 18.395H29.4896V20.438H28.7426V18.395Z" fill="#474747"/>
<g opacity="0.7" clip-path="url(#clip2_0_1)">
<rect x="35.9992" y="13" width="0.8" height="10" fill="#9D9D9D"/>
</g>
<path opacity="0.7" d="M41.178 17.477V16.298C41.388 16.166 41.664 16.058 42.006 15.974C42.348 15.89 42.72 15.848 43.122 15.848C43.764 15.848 44.277 15.974 44.661 16.226C45.051 16.478 45.246 16.904 45.246 17.504C45.246 17.978 45.135 18.359 44.913 18.647C44.697 18.929 44.313 19.175 43.761 19.385C43.227 19.589 42.858 19.763 42.654 19.907C42.456 20.045 42.357 20.183 42.357 20.321H45.291V21.464H41.025V20.456C41.025 20.15 41.076 19.889 41.178 19.673C41.286 19.457 41.469 19.259 41.727 19.079C41.985 18.899 42.342 18.713 42.798 18.521C43.14 18.377 43.407 18.239 43.599 18.107C43.797 17.969 43.893 17.804 43.887 17.612C43.881 17.384 43.794 17.225 43.626 17.135C43.464 17.039 43.233 16.991 42.933 16.991C42.645 16.991 42.351 17.042 42.051 17.144C41.751 17.24 41.487 17.351 41.259 17.477H41.178ZM45.944 19.115V15.938H49.85V17.099H47.186V17.981L47.204 18.008H48.167C48.827 18.008 49.307 18.143 49.607 18.413C49.907 18.683 50.057 19.112 50.057 19.7C50.057 20.324 49.862 20.78 49.472 21.068C49.082 21.356 48.476 21.5 47.654 21.5C47.264 21.5 46.91 21.482 46.592 21.446C46.274 21.404 45.989 21.353 45.737 21.293V20.195L45.755 20.177C45.887 20.213 46.043 20.243 46.223 20.267C46.409 20.291 46.598 20.312 46.79 20.33C46.982 20.342 47.156 20.348 47.312 20.348C47.684 20.348 47.969 20.33 48.167 20.294C48.365 20.258 48.5 20.195 48.572 20.105C48.65 20.009 48.689 19.877 48.689 19.709C48.689 19.499 48.638 19.349 48.536 19.259C48.44 19.163 48.245 19.115 47.951 19.115H45.944ZM53.9374 16.973H55.4944V17.594H53.9374V16.973ZM52.4164 14.831H53.0014V16.379C53.0014 18.08 52.2904 19.727 51.1024 20.456L50.6344 19.889C51.7504 19.232 52.4164 17.774 52.4164 16.379V14.831ZM52.5604 14.831H53.1364V16.352C53.1364 17.657 53.7484 19.043 54.8194 19.691L54.3874 20.276C53.2174 19.556 52.5604 17.936 52.5604 16.352V14.831ZM56.9254 14.066H57.6454V22.202H56.9254V14.066ZM55.2784 14.237H55.9804V21.797H55.2784V14.237Z" fill="#9D9D9D"/>
<g opacity="0.7" clip-path="url(#clip3_0_1)">
<rect x="62.7992" y="13" width="0.8" height="10" fill="#9D9D9D"/>
</g>
<path opacity="0.7" d="M68.14 21.419V15.722H72.37V16.892H69.58V17.972H72.001V19.142H69.58V20.249H72.37V21.419H68.14ZM76.7782 15.722H78.2182V21.419H76.7872L75.1672 19.007C75.0412 18.815 74.9362 18.653 74.8522 18.521C74.7682 18.389 74.6902 18.257 74.6182 18.125C74.5462 17.993 74.4652 17.837 74.3752 17.657L74.3482 17.693C74.4322 17.981 74.4832 18.251 74.5012 18.503C74.5192 18.749 74.5282 18.989 74.5282 19.223V21.419H73.0882V15.722H74.5192L76.1392 18.134C76.2652 18.32 76.3702 18.482 76.4542 18.62C76.5382 18.752 76.6162 18.884 76.6882 19.016C76.7602 19.148 76.8412 19.304 76.9312 19.484L76.9582 19.448C76.8982 19.196 76.8532 18.953 76.8232 18.719C76.7932 18.479 76.7782 18.242 76.7782 18.008V15.722ZM80.7421 21.419H79.3021V15.722H83.5321V16.892H80.7421V18.197H83.3521V19.367H80.7421V21.419ZM85.8984 15.722H87.3384V19.331C87.3384 20.063 87.1824 20.609 86.8704 20.969C86.5584 21.323 86.0304 21.5 85.2864 21.5C84.9804 21.5 84.7224 21.485 84.5124 21.455C84.3024 21.425 84.0804 21.371 83.8464 21.293V20.06L83.8824 20.042C84.0684 20.102 84.2424 20.147 84.4044 20.177C84.5664 20.207 84.7674 20.222 85.0074 20.222C85.2594 20.222 85.4484 20.195 85.5744 20.141C85.7064 20.081 85.7934 19.976 85.8354 19.826C85.8834 19.676 85.9074 19.46 85.9074 19.178L85.8984 15.722Z" fill="#9D9D9D"/>
<rect x="96.9" y="9.3" width="30.4" height="17.4" rx="8.7" stroke="#252525" stroke-width="0.6"/>
<path d="M110.549 14.225H111.137V18.845H110.549V14.225ZM107.07 19.93H111.326V20.406H107.07V19.93ZM107.07 18.369H107.644V20.091H107.07V18.369ZM107.742 14.659C108.687 14.659 109.387 15.303 109.387 16.22C109.387 17.13 108.687 17.781 107.742 17.781C106.797 17.781 106.09 17.13 106.09 16.22C106.09 15.303 106.797 14.659 107.742 14.659ZM107.742 15.163C107.126 15.163 106.657 15.597 106.657 16.22C106.657 16.836 107.126 17.27 107.742 17.27C108.358 17.27 108.827 16.836 108.827 16.22C108.827 15.597 108.358 15.163 107.742 15.163ZM116.981 14.218H117.562V20.56H116.981V14.218ZM112.795 18.495H113.306C114.559 18.495 115.371 18.453 116.309 18.278L116.372 18.768C115.406 18.95 114.58 18.985 113.306 18.985H112.795V18.495ZM112.795 14.82H115.784V15.303H113.369V18.677H112.795V14.82Z" fill="#252525"/>
</g>
<defs>
<linearGradient id="paint0_linear_0_1" x1="75" y1="0" x2="75" y2="150" gradientUnits="userSpaceOnUse">
<stop stop-color="#FCFFD8"/>
<stop offset="1" stop-color="#EAD3FC"/>
</linearGradient>
<clipPath id="clip0_0_1">
<rect width="150" height="150" fill="white"/>
</clipPath>
<clipPath id="clip1_0_1">
<rect x="7" y="33" width="136" height="97" rx="8" fill="white"/>
</clipPath>
<clipPath id="clip2_0_1">
<rect width="0.8" height="12" fill="white" transform="matrix(-1 0 0 1 36.8 12)"/>
</clipPath>
<clipPath id="clip3_0_1">
<rect width="0.8" height="12" fill="white" transform="matrix(-1 0 0 1 63.6 12)"/>
</clipPath>
</defs>
</svg>
