<svg width="400" height="138" viewBox="0 0 400 138" fill="none" xmlns="http://www.w3.org/2000/svg">
<rect x="0.5" width="399" height="138" rx="16" fill="url(#paint0_linear_36_33)"/>
<rect x="10.8" y="30.3" width="378.4" height="96.4" rx="7.7" stroke="#0A0A0A" stroke-width="0.6"/>
<path d="M34.516 44.076H35.512V52.068H34.516V44.076ZM35.2 47.376H37.12V48.204H35.2V47.376ZM28.756 53.88H36.004V54.696H28.756V53.88ZM28.756 51.252H29.752V54.204H28.756V51.252ZM30.124 44.844C31.744 44.844 32.956 45.96 32.956 47.52C32.956 49.092 31.744 50.196 30.124 50.196C28.504 50.196 27.292 49.092 27.292 47.52C27.292 45.96 28.504 44.844 30.124 44.844ZM30.124 45.72C29.068 45.72 28.264 46.464 28.264 47.52C28.264 48.588 29.068 49.32 30.124 49.32C31.18 49.32 31.984 48.588 31.984 47.52C31.984 46.464 31.18 45.72 30.124 45.72ZM38.7871 44.736H39.7711V49.416H38.7871V44.736ZM38.7871 49.176H39.6031C41.5111 49.176 42.8311 49.116 44.3311 48.804L44.4631 49.608C42.9031 49.932 41.5591 50.004 39.6031 50.004H38.7871V49.176ZM46.0591 44.088H47.0551V50.736H46.0591V44.088ZM43.0231 45.36H46.3351V46.14H43.0231V45.36ZM43.0231 47.268H46.3351V48.06H43.0231V47.268ZM43.4911 50.832C45.7231 50.832 47.1031 51.588 47.1031 52.884C47.1031 54.18 45.7231 54.924 43.4911 54.924C41.2471 54.924 39.8671 54.18 39.8671 52.884C39.8671 51.588 41.2471 50.832 43.4911 50.832ZM43.4911 51.624C41.8591 51.624 40.8631 52.092 40.8631 52.884C40.8631 53.676 41.8591 54.132 43.4911 54.132C45.1231 54.132 46.1191 53.676 46.1191 52.884C46.1191 52.092 45.1231 51.624 43.4911 51.624ZM56.5221 44.088H57.5181V54.936H56.5221V44.088ZM57.2781 48.54H59.2941V49.38H57.2781V48.54ZM49.1181 45.816H55.5141V46.632H49.1181V45.816ZM52.3581 47.532C53.8941 47.532 54.9981 48.564 54.9981 50.028C54.9981 51.492 53.8941 52.524 52.3581 52.524C50.8341 52.524 49.7181 51.492 49.7181 50.028C49.7181 48.564 50.8341 47.532 52.3581 47.532ZM52.3581 48.36C51.3741 48.36 50.6661 49.044 50.6661 50.028C50.6661 51 51.3741 51.696 52.3581 51.696C53.3421 51.696 54.0501 51 54.0501 50.028C54.0501 49.044 53.3421 48.36 52.3581 48.36ZM51.8421 44.22H52.8381V46.188H51.8421V44.22ZM64.4892 47.964H66.5652V48.792H64.4892V47.964ZM62.4612 45.108H63.2412V47.172C63.2412 49.44 62.2932 51.636 60.7092 52.608L60.0852 51.852C61.5732 50.976 62.4612 49.032 62.4612 47.172V45.108ZM62.6532 45.108H63.4212V47.136C63.4212 48.876 64.2372 50.724 65.6652 51.588L65.0892 52.368C63.5292 51.408 62.6532 49.248 62.6532 47.136V45.108ZM68.4732 44.088H69.4332V54.936H68.4732V44.088ZM66.2772 44.316H67.2132V54.396H66.2772V44.316ZM73.6562 49.668H74.6403V52.92H73.6562V49.668ZM77.6643 49.668H78.6603V52.92H77.6643V49.668ZM71.2563 52.728H81.0843V53.556H71.2563V52.728ZM76.1523 44.772C78.4443 44.772 80.0883 45.864 80.0883 47.568C80.0883 49.26 78.4443 50.352 76.1523 50.352C73.8483 50.352 72.2043 49.26 72.2043 47.568C72.2043 45.864 73.8483 44.772 76.1523 44.772ZM76.1523 45.564C74.4123 45.564 73.1643 46.356 73.1643 47.568C73.1643 48.768 74.4123 49.56 76.1523 49.56C77.8923 49.56 79.1283 48.768 79.1283 47.568C79.1283 46.356 77.8923 45.564 76.1523 45.564ZM88.257 48.516C88.273 48.668 88.281 48.804 88.281 48.924C88.289 49.044 88.293 49.164 88.293 49.284C88.293 49.404 88.289 49.524 88.281 49.644C88.281 49.764 88.273 49.904 88.257 50.064C87.873 50.136 87.501 50.172 87.141 50.172C86.789 50.172 86.433 50.136 86.073 50.064C86.049 49.912 86.033 49.776 86.025 49.656C86.017 49.536 86.013 49.416 86.013 49.296C86.013 49.184 86.017 49.064 86.025 48.936C86.033 48.808 86.049 48.668 86.073 48.516C86.257 48.476 86.441 48.448 86.625 48.432C86.809 48.416 86.989 48.408 87.165 48.408C87.349 48.408 87.529 48.416 87.705 48.432C87.889 48.448 88.073 48.476 88.257 48.516ZM88.257 52.332C88.273 52.492 88.281 52.632 88.281 52.752C88.289 52.872 88.293 52.992 88.293 53.112C88.293 53.32 88.281 53.576 88.257 53.88C87.889 53.96 87.517 54 87.141 54C86.965 54 86.789 53.992 86.613 53.976C86.437 53.952 86.261 53.92 86.085 53.88C86.053 53.736 86.033 53.604 86.025 53.484C86.017 53.364 86.013 53.244 86.013 53.124C86.013 53.012 86.017 52.892 86.025 52.764C86.033 52.636 86.053 52.492 86.085 52.332C86.261 52.292 86.441 52.268 86.625 52.26C86.809 52.244 86.989 52.236 87.165 52.236C87.349 52.236 87.529 52.244 87.705 52.26C87.889 52.268 88.073 52.292 88.257 52.332ZM89.2478 45.936V44.436C89.7438 44.436 90.1558 44.476 90.4838 44.556C90.8198 44.636 91.0878 44.788 91.2878 45.012C91.4878 45.228 91.6318 45.552 91.7198 45.984C91.8078 46.408 91.8518 46.968 91.8518 47.664V53.784C91.8518 54.504 91.8118 55.084 91.7318 55.524C91.6518 55.964 91.5158 56.296 91.3238 56.52C91.1318 56.752 90.8678 56.908 90.5318 56.988C90.1958 57.068 89.7678 57.108 89.2478 57.108V55.608C89.4558 55.608 89.6198 55.568 89.7398 55.488C89.8678 55.416 89.9598 55.248 90.0158 54.984C90.0798 54.728 90.1118 54.328 90.1118 53.784V47.664C90.1118 47.152 90.0798 46.776 90.0158 46.536C89.9598 46.288 89.8678 46.128 89.7398 46.056C89.6198 45.976 89.4558 45.936 89.2478 45.936ZM35.032 63.076H36.016V73.948H35.032V63.076ZM32.692 67.036H35.32V67.852H32.692V67.036ZM29.848 64.636H30.652V66.256C30.652 68.596 29.308 70.912 27.592 71.8L27.004 71.008C28.564 70.24 29.848 68.188 29.848 66.256V64.636ZM30.052 64.636H30.844V66.256C30.844 68.068 32.104 70.048 33.676 70.792L33.088 71.572C31.372 70.72 30.052 68.488 30.052 66.256V64.636ZM27.4 64.192H33.304V65.02H27.4V64.192ZM45.5551 63.088H46.5511V69.64H45.5551V63.088ZM46.2511 65.8H48.1591V66.628H46.2511V65.8ZM38.6071 68.2H39.4591C41.4271 68.2 42.8311 68.14 44.5231 67.84L44.6071 68.668C42.8911 68.956 41.4631 69.028 39.4591 69.028H38.6071V68.2ZM38.5831 63.76H43.4671V66.712H39.5791V68.728H38.6071V65.932H42.4831V64.576H38.5831V63.76ZM43.0831 69.976C45.3031 69.976 46.6471 70.696 46.6471 71.944C46.6471 73.204 45.3031 73.924 43.0831 73.924C40.8751 73.924 39.5191 73.204 39.5191 71.944C39.5191 70.696 40.8751 69.976 43.0831 69.976ZM43.0831 70.756C41.4631 70.756 40.4911 71.188 40.4911 71.944C40.4911 72.712 41.4631 73.144 43.0831 73.144C44.7031 73.144 45.6871 72.712 45.6871 71.944C45.6871 71.188 44.7031 70.756 43.0831 70.756ZM57.6718 63.328C60.0118 63.328 61.4878 64.096 61.4878 65.38C61.4878 66.664 60.0118 67.42 57.6718 67.42C55.3198 67.42 53.8558 66.664 53.8558 65.38C53.8558 64.096 55.3198 63.328 57.6718 63.328ZM57.6718 64.12C55.9438 64.12 54.8758 64.576 54.8758 65.38C54.8758 66.172 55.9438 66.64 57.6718 66.64C59.3878 66.64 60.4678 66.172 60.4678 65.38C60.4678 64.576 59.3878 64.12 57.6718 64.12ZM53.9638 70.216H61.3678V73.792H53.9638V70.216ZM60.3958 71.02H54.9478V72.988H60.3958V71.02ZM52.7638 68.356H62.5678V69.16H52.7638V68.356ZM66.8388 63.724C68.4708 63.724 69.6708 64.78 69.6708 66.304C69.6708 67.816 68.4708 68.86 66.8388 68.86C65.2068 68.86 64.0068 67.816 64.0068 66.304C64.0068 64.78 65.2068 63.724 66.8388 63.724ZM66.8388 64.576C65.7588 64.576 64.9788 65.272 64.9788 66.304C64.9788 67.324 65.7588 68.032 66.8388 68.032C67.9188 68.032 68.6988 67.324 68.6988 66.304C68.6988 65.272 67.9188 64.576 66.8388 64.576ZM71.2308 63.088H72.2268V69.472H71.2308V63.088ZM71.9508 65.872H73.8348V66.712H71.9508V65.872ZM65.1828 70.036H72.2268V73.948H71.2308V70.84H65.1828V70.036ZM81.5356 64.984H82.3516V65.128C82.3516 66.724 81.1756 67.972 79.3396 68.428L78.9316 67.636C80.4796 67.288 81.5356 66.28 81.5356 65.128V64.984ZM81.7156 64.984H82.5316V65.128C82.5316 66.22 83.5756 67.144 85.1116 67.492L84.7036 68.272C82.8916 67.84 81.7156 66.652 81.7156 65.128V64.984ZM79.1596 64.312H84.9076V65.104H79.1596V64.312ZM81.5236 63.112H82.5316V64.84H81.5236V63.112ZM81.5476 69.292H82.5436V73.624H81.5476V69.292ZM86.3476 63.088H87.3316V73.948H86.3476V63.088ZM78.5596 70.024L78.4276 69.184C80.4796 69.184 83.2036 69.172 85.5796 68.836L85.6516 69.568C83.2156 69.988 80.5756 70.024 78.5596 70.024ZM97.6026 64.96H99.4866V65.788H97.6026V64.96ZM97.6026 67.276H99.4866V68.104H97.6026V67.276ZM96.9066 63.088H97.9026V70.072H96.9066V63.088ZM94.4946 70.168C96.6906 70.168 98.0226 70.852 98.0226 72.04C98.0226 73.228 96.6906 73.912 94.4946 73.912C92.3106 73.912 90.9666 73.228 90.9666 72.04C90.9666 70.852 92.3106 70.168 94.4946 70.168ZM94.4946 70.936C92.9106 70.936 91.9506 71.344 91.9506 72.04C91.9506 72.748 92.9106 73.144 94.4946 73.144C96.0906 73.144 97.0506 72.748 97.0506 72.04C97.0506 71.344 96.0906 70.936 94.4946 70.936ZM89.5146 64.312H95.9226V65.104H89.5146V64.312ZM92.7186 65.656C94.2666 65.656 95.3106 66.4 95.3106 67.564C95.3106 68.74 94.2666 69.484 92.7186 69.484C91.1586 69.484 90.1146 68.74 90.1146 67.564C90.1146 66.4 91.1586 65.656 92.7186 65.656ZM92.7186 66.412C91.7226 66.412 91.0626 66.868 91.0626 67.564C91.0626 68.272 91.7226 68.728 92.7186 68.728C93.6906 68.728 94.3626 68.272 94.3626 67.564C94.3626 66.868 93.6906 66.412 92.7186 66.412ZM92.2146 62.992H93.2106V64.756H92.2146V62.992ZM108.402 63.076H109.398V73.948H108.402V63.076ZM103.674 63.916C105.282 63.916 106.434 65.392 106.434 67.696C106.434 70.012 105.282 71.488 103.674 71.488C102.078 71.488 100.926 70.012 100.926 67.696C100.926 65.392 102.078 63.916 103.674 63.916ZM103.674 64.816C102.618 64.816 101.874 65.944 101.874 67.696C101.874 69.46 102.618 70.612 103.674 70.612C104.742 70.612 105.474 69.46 105.474 67.696C105.474 65.944 104.742 64.816 103.674 64.816ZM123.11 63.088H124.106V73.96H123.11V63.088ZM119.774 66.664H123.434V67.48H119.774V66.664ZM115.754 64.3H116.738V71.02H115.754V64.3ZM115.754 70.492H116.594C118.274 70.492 119.774 70.396 121.442 70.048L121.562 70.888C119.834 71.224 118.31 71.332 116.594 71.332H115.754V70.492ZM126.193 69.388H136.033V70.204H126.193V69.388ZM130.585 69.88H131.569V73.936H130.585V69.88ZM127.441 63.688H134.761V67.924H127.441V63.688ZM133.789 64.492H128.425V67.12H133.789V64.492ZM148.714 63.076H149.71V73.948H148.714V63.076ZM141.454 64H142.438V66.868H145.57V64H146.566V71.332H141.454V64ZM142.438 67.66V70.516H145.57V67.66H142.438ZM151.869 68.344H161.673V69.148H151.869V68.344ZM156.273 69.976H157.125V70.312C157.125 72.256 155.229 73.528 153.009 73.9L152.625 73.108C154.605 72.832 156.273 71.752 156.273 70.312V69.976ZM156.429 69.976H157.281V70.312C157.281 71.752 158.937 72.832 160.917 73.108L160.533 73.9C158.313 73.528 156.429 72.256 156.429 70.312V69.976ZM156.273 63.268H157.125V63.748C157.125 65.68 155.049 67.096 152.829 67.456L152.457 66.664C154.389 66.4 156.273 65.164 156.273 63.748V63.268ZM156.429 63.268H157.281V63.748C157.281 65.14 159.189 66.4 161.097 66.664L160.725 67.456C158.529 67.096 156.429 65.632 156.429 63.748V63.268ZM170.336 63.1H171.332V71.236H170.336V63.1ZM171.02 66.652H172.94V67.492H171.02V66.652ZM162.944 64.408H169.352V65.212H162.944V64.408ZM166.148 65.812C167.684 65.812 168.74 66.616 168.74 67.84C168.74 69.052 167.684 69.856 166.148 69.856C164.6 69.856 163.544 69.052 163.544 67.84C163.544 66.616 164.6 65.812 166.148 65.812ZM166.148 66.592C165.164 66.592 164.492 67.084 164.492 67.84C164.492 68.584 165.164 69.076 166.148 69.076C167.12 69.076 167.792 68.584 167.792 67.84C167.792 67.084 167.12 66.592 166.148 66.592ZM165.644 63.088H166.64V64.828H165.644V63.088ZM164.576 72.88H171.824V73.696H164.576V72.88ZM164.576 70.588H165.572V73.228H164.576V70.588ZM181.879 63.088H182.875V70.432H181.879V63.088ZM179.551 66.148H182.083V66.964H179.551V66.148ZM178.471 63.94H179.515C179.515 66.748 177.667 68.74 174.559 69.748L174.139 68.956C176.887 68.092 178.471 66.46 178.471 64.336V63.94ZM174.655 63.94H179.179V64.756H174.655V63.94ZM178.879 69.496H179.731V69.988C179.731 72.064 177.835 73.468 175.663 73.912L175.267 73.12C177.187 72.772 178.879 71.572 178.879 69.988V69.496ZM179.023 69.496H179.875V69.988C179.875 71.548 181.543 72.748 183.475 73.096L183.055 73.888C180.895 73.456 179.023 72.052 179.023 69.988V69.496ZM196.012 63.088H197.008V68.884H196.012V63.088ZM196.732 65.596H198.616V66.424H196.732V65.596ZM193.012 63.844H194.116C194.116 66.58 192.208 68.356 189.028 69.088L188.632 68.284C191.488 67.648 193.012 66.196 193.012 64.384V63.844ZM189.076 63.844H193.588V64.66H189.076V63.844ZM190.18 69.376H197.068V70.132H191.164V73.42H190.18V69.376ZM190.18 73.036H197.308V73.792H190.18V73.036ZM190.828 71.188H196.936V71.92H190.828V71.188ZM200.151 64.252H201.135V70.612H200.151V64.252ZM200.151 70.324H200.847C202.107 70.324 203.283 70.264 204.651 69.988L204.783 70.84C203.367 71.128 202.155 71.188 200.847 71.188H200.151V70.324ZM207.891 63.088H208.851V73.936H207.891V63.088ZM203.163 66.724H205.875V67.552H203.163V66.724ZM205.599 63.34H206.535V73.384H205.599V63.34ZM213.074 68.668H214.058V71.92H213.074V68.668ZM217.082 68.668H218.078V71.92H217.082V68.668ZM210.674 71.728H220.502V72.556H210.674V71.728ZM215.57 63.772C217.862 63.772 219.506 64.864 219.506 66.568C219.506 68.26 217.862 69.352 215.57 69.352C213.266 69.352 211.622 68.26 211.622 66.568C211.622 64.864 213.266 63.772 215.57 63.772ZM215.57 64.564C213.83 64.564 212.582 65.356 212.582 66.568C212.582 67.768 213.83 68.56 215.57 68.56C217.31 68.56 218.546 67.768 218.546 66.568C218.546 65.356 217.31 64.564 215.57 64.564ZM29.14 91.892H27.22V84.296H30.844C31.796 84.296 32.488 84.512 32.92 84.944C33.36 85.368 33.58 85.996 33.58 86.828C33.58 87.452 33.424 87.988 33.112 88.436C32.8 88.876 32.388 89.152 31.876 89.264L31.864 89.3C32.064 89.428 32.284 89.64 32.524 89.936C32.764 90.232 33 90.556 33.232 90.908C33.472 91.252 33.684 91.576 33.868 91.88V91.892H31.636L30.34 89.972C30.228 89.804 30.136 89.684 30.064 89.612C30 89.54 29.92 89.496 29.824 89.48C29.736 89.464 29.592 89.456 29.392 89.456H29.14V91.892ZM30.532 85.856H29.14V87.896H30.532C30.932 87.896 31.208 87.816 31.36 87.656C31.52 87.496 31.6 87.236 31.6 86.876C31.6 86.516 31.52 86.256 31.36 86.096C31.208 85.936 30.932 85.856 30.532 85.856ZM37.1744 85.988C37.9424 85.988 38.5624 86.068 39.0344 86.228C39.5064 86.388 39.8504 86.684 40.0664 87.116C40.2904 87.54 40.4024 88.156 40.4024 88.964V91.892H38.6624L38.6024 91.34H38.5664C38.4144 91.54 38.1784 91.7 37.8584 91.82C37.5384 91.94 37.1224 92 36.6104 92C35.2264 92 34.5344 91.352 34.5344 90.056C34.5344 89.504 34.7144 89.072 35.0744 88.76C35.4424 88.44 36.0184 88.28 36.8024 88.28H38.5784C38.5224 87.944 38.3784 87.72 38.1464 87.608C37.9144 87.488 37.5184 87.428 36.9584 87.428C36.6064 87.428 36.2584 87.456 35.9144 87.512C35.5784 87.56 35.2824 87.616 35.0264 87.68L34.9904 87.656L35.0024 86.264C35.1624 86.216 35.3664 86.172 35.6144 86.132C35.8624 86.084 36.1224 86.048 36.3944 86.024C36.6744 86 36.9344 85.988 37.1744 85.988ZM37.1024 90.584C37.5984 90.584 37.9704 90.524 38.2184 90.404C38.4664 90.276 38.5944 90.076 38.6024 89.804V89.504H37.2464C36.8944 89.504 36.6464 89.556 36.5024 89.66C36.3664 89.756 36.2984 89.888 36.2984 90.056C36.2984 90.256 36.3704 90.396 36.5144 90.476C36.6584 90.548 36.8544 90.584 37.1024 90.584ZM46.8055 91.7C46.5815 91.78 46.2695 91.852 45.8695 91.916C45.4775 91.972 45.0095 92 44.4655 92C43.7775 92 43.1895 91.912 42.7015 91.736C42.2215 91.552 41.8575 91.244 41.6095 90.812C41.3615 90.372 41.2375 89.764 41.2375 88.988C41.2375 87.932 41.4775 87.168 41.9575 86.696C42.4455 86.224 43.1975 85.988 44.2135 85.988C44.9415 85.988 45.5135 86.092 45.9295 86.3C46.3535 86.508 46.6535 86.804 46.8295 87.188C47.0135 87.564 47.1055 88.012 47.1055 88.532C47.1055 88.684 47.0975 88.848 47.0815 89.024C47.0735 89.2 47.0535 89.372 47.0215 89.54L46.9735 89.588H43.0255C43.0815 89.94 43.2455 90.172 43.5175 90.284C43.7975 90.396 44.2495 90.452 44.8735 90.452C45.2895 90.452 45.6335 90.444 45.9055 90.428C46.1855 90.404 46.4695 90.372 46.7575 90.332L46.8055 90.368V91.7ZM45.4375 88.328C45.4375 88.136 45.4055 87.972 45.3415 87.836C45.2855 87.692 45.1695 87.584 44.9935 87.512C44.8175 87.432 44.5575 87.392 44.2135 87.392C43.7095 87.392 43.3775 87.48 43.2175 87.656C43.0655 87.824 42.9895 88.048 42.9895 88.328H45.4375ZM51.5319 89.936C51.8839 90.056 52.2679 90.152 52.6839 90.224C53.1079 90.288 53.5279 90.32 53.9439 90.32C54.5119 90.32 54.9319 90.296 55.2039 90.248C55.4839 90.192 55.6679 90.108 55.7559 89.996C55.8439 89.884 55.8879 89.74 55.8879 89.564C55.8879 89.412 55.8559 89.292 55.7919 89.204C55.7279 89.116 55.6039 89.048 55.4199 89C55.2359 88.944 54.9639 88.9 54.6039 88.868L53.8119 88.796C53.2199 88.74 52.7519 88.616 52.4079 88.424C52.0719 88.232 51.8319 87.976 51.6879 87.656C51.5519 87.328 51.4839 86.936 51.4839 86.48C51.4839 85.936 51.5919 85.496 51.8079 85.16C52.0319 84.824 52.3919 84.58 52.8879 84.428C53.3839 84.268 54.0439 84.188 54.8679 84.188C55.9399 84.188 56.8239 84.328 57.5199 84.608L57.4839 86.24L57.4479 86.288C56.6559 86.008 55.8279 85.868 54.9639 85.868C54.5479 85.868 54.2279 85.892 54.0039 85.94C53.7799 85.98 53.6239 86.048 53.5359 86.144C53.4479 86.24 53.4039 86.376 53.4039 86.552C53.4039 86.728 53.4319 86.86 53.4879 86.948C53.5519 87.036 53.6759 87.104 53.8599 87.152C54.0439 87.192 54.3119 87.232 54.6639 87.272L55.4199 87.356C56.0599 87.428 56.5519 87.556 56.8959 87.74C57.2399 87.924 57.4759 88.172 57.6039 88.484C57.7399 88.788 57.8079 89.16 57.8079 89.6C57.8079 90.136 57.6919 90.584 57.4599 90.944C57.2359 91.296 56.8679 91.56 56.3559 91.736C55.8439 91.912 55.1599 92 54.3039 92C53.7439 92 53.2399 91.972 52.7919 91.916C52.3439 91.852 51.9079 91.768 51.4839 91.664V89.972L51.5319 89.936ZM60.933 91.892H59.013V86.048H60.573L60.729 87.248H60.765C60.837 86.8 61.009 86.48 61.281 86.288C61.553 86.088 61.957 85.988 62.493 85.988C62.709 85.988 62.905 86 63.081 86.024C63.257 86.04 63.405 86.056 63.525 86.072V87.944L63.501 87.968C63.373 87.936 63.225 87.908 63.057 87.884C62.897 87.86 62.713 87.848 62.505 87.848C62.209 87.848 61.941 87.896 61.701 87.992C61.469 88.088 61.285 88.276 61.149 88.556C61.021 88.828 60.957 89.236 60.957 89.78L60.933 91.892ZM69.5164 91.7C69.2924 91.78 68.9804 91.852 68.5804 91.916C68.1884 91.972 67.7204 92 67.1764 92C66.4884 92 65.9004 91.912 65.4124 91.736C64.9324 91.552 64.5684 91.244 64.3204 90.812C64.0724 90.372 63.9484 89.764 63.9484 88.988C63.9484 87.932 64.1884 87.168 64.6684 86.696C65.1564 86.224 65.9084 85.988 66.9244 85.988C67.6524 85.988 68.2244 86.092 68.6404 86.3C69.0644 86.508 69.3644 86.804 69.5404 87.188C69.7244 87.564 69.8164 88.012 69.8164 88.532C69.8164 88.684 69.8084 88.848 69.7924 89.024C69.7844 89.2 69.7644 89.372 69.7324 89.54L69.6844 89.588H65.7364C65.7924 89.94 65.9564 90.172 66.2284 90.284C66.5084 90.396 66.9604 90.452 67.5844 90.452C68.0004 90.452 68.3444 90.444 68.6164 90.428C68.8964 90.404 69.1804 90.372 69.4684 90.332L69.5164 90.368V91.7ZM68.1484 88.328C68.1484 88.136 68.1164 87.972 68.0524 87.836C67.9964 87.692 67.8804 87.584 67.7044 87.512C67.5284 87.432 67.2684 87.392 66.9244 87.392C66.4204 87.392 66.0884 87.48 65.9284 87.656C65.7764 87.824 65.7004 88.048 65.7004 88.328H68.1484ZM78.0972 85.988C78.6892 85.988 79.1572 86.184 79.5012 86.576C79.8532 86.968 80.0292 87.648 80.0292 88.616V91.892H78.1092L78.0972 88.856C78.0972 88.464 78.0372 88.18 77.9172 88.004C77.8052 87.828 77.5812 87.74 77.2452 87.74C76.9092 87.74 76.6812 87.828 76.5612 88.004C76.4492 88.18 76.3932 88.464 76.3932 88.856V91.892H74.4732L74.4612 88.856C74.4612 88.464 74.4012 88.18 74.2812 88.004C74.1692 87.828 73.9452 87.74 73.6092 87.74C73.2732 87.74 73.0452 87.828 72.9252 88.004C72.8132 88.18 72.7572 88.464 72.7572 88.856V91.892H70.8372V86.048H72.6612L72.7572 87.116H72.7932C72.8972 86.764 73.0772 86.488 73.3332 86.288C73.5972 86.088 73.9692 85.988 74.4492 85.988C74.9292 85.988 75.3052 86.088 75.5772 86.288C75.8572 86.488 76.0372 86.764 76.1172 87.116H76.1532C76.2572 86.756 76.4572 86.48 76.7532 86.288C77.0572 86.088 77.5052 85.988 78.0972 85.988ZM88.6089 85.988C89.2009 85.988 89.6689 86.184 90.0129 86.576C90.3649 86.968 90.5409 87.648 90.5409 88.616V91.892H88.6209L88.6089 88.856C88.6089 88.464 88.5489 88.18 88.4289 88.004C88.3169 87.828 88.0929 87.74 87.7569 87.74C87.4209 87.74 87.1929 87.828 87.0729 88.004C86.9609 88.18 86.9049 88.464 86.9049 88.856V91.892H84.9849L84.9729 88.856C84.9729 88.464 84.9129 88.18 84.7929 88.004C84.6809 87.828 84.4569 87.74 84.1209 87.74C83.7849 87.74 83.5569 87.828 83.4369 88.004C83.3249 88.18 83.2689 88.464 83.2689 88.856V91.892H81.3489V86.048H83.1729L83.2689 87.116H83.3049C83.4089 86.764 83.5889 86.488 83.8449 86.288C84.1089 86.088 84.4809 85.988 84.9609 85.988C85.4409 85.988 85.8169 86.088 86.0889 86.288C86.3689 86.488 86.5489 86.764 86.6289 87.116H86.6649C86.7689 86.756 86.9689 86.48 87.2649 86.288C87.5689 86.088 88.0169 85.988 88.6089 85.988ZM93.7806 92C93.0446 92 92.5206 91.804 92.2086 91.412C91.8966 91.02 91.7406 90.46 91.7406 89.732V86.048H93.6606L93.6726 89.264C93.6726 89.624 93.7366 89.88 93.8646 90.032C93.9926 90.176 94.2526 90.248 94.6446 90.248C95.0206 90.248 95.2726 90.184 95.4006 90.056C95.5366 89.92 95.6086 89.692 95.6166 89.372V86.048H97.5366V91.892H95.7126L95.6166 91.232H95.5806C95.4766 91.464 95.2646 91.652 94.9446 91.796C94.6246 91.932 94.2366 92 93.7806 92ZM100.894 91.892H98.9739V86.048H100.534L100.69 87.248H100.726C100.798 86.8 100.97 86.48 101.242 86.288C101.514 86.088 101.918 85.988 102.454 85.988C102.67 85.988 102.866 86 103.042 86.024C103.218 86.04 103.366 86.056 103.486 86.072V87.944L103.462 87.968C103.334 87.936 103.186 87.908 103.018 87.884C102.858 87.86 102.674 87.848 102.466 87.848C102.17 87.848 101.902 87.896 101.662 87.992C101.43 88.088 101.246 88.276 101.11 88.556C100.982 88.828 100.918 89.236 100.918 89.78L100.894 91.892ZM107.977 91.892L107.905 91.04H107.857C107.721 91.36 107.525 91.6 107.269 91.76C107.021 91.92 106.657 92 106.177 92C105.401 92 104.833 91.776 104.473 91.328C104.113 90.872 103.925 90.188 103.909 89.276C103.901 88.46 103.985 87.812 104.161 87.332C104.337 86.852 104.613 86.508 104.989 86.3C105.365 86.092 105.845 85.988 106.429 85.988C106.733 85.988 107.009 86.016 107.257 86.072C107.505 86.12 107.705 86.188 107.857 86.276L107.881 86.264V83.816H109.801V91.892H107.977ZM106.801 90.368C107.121 90.368 107.381 90.268 107.581 90.068C107.781 89.868 107.881 89.536 107.881 89.072V87.812C107.585 87.692 107.237 87.632 106.837 87.632C106.461 87.632 106.189 87.724 106.021 87.908C105.861 88.084 105.781 88.444 105.781 88.988C105.781 89.452 105.845 89.8 105.973 90.032C106.109 90.256 106.385 90.368 106.801 90.368ZM111.111 87.128H120.951V87.884H111.111V87.128ZM112.275 88.76H119.715V91.076H113.295V92.348H112.311V90.392H118.743V89.468H112.275V88.76ZM112.311 92.084H120.063V92.804H112.311V92.084ZM112.359 82.4H119.679V84.656H113.367V85.832H112.383V83.984H118.707V83.108H112.359V82.4ZM112.383 85.592H119.883V86.312H112.383V85.592ZM130.152 85.304H131.136V86.96H130.152V85.304ZM130.008 82.748H130.884V83.084C130.884 84.716 128.868 85.76 126.588 85.976L126.264 85.22C128.22 85.064 130.008 84.224 130.008 83.084V82.748ZM130.44 82.748H131.304V83.084C131.304 84.212 133.092 85.064 135.048 85.22L134.724 85.976C132.456 85.76 130.44 84.716 130.44 83.084V82.748ZM126.648 82.424H134.676V83.204H126.648V82.424ZM126.66 88.82H134.652V89.612H126.66V88.82ZM125.748 86.588H135.588V87.392H125.748V86.588ZM130.656 90.14C132.744 90.14 133.908 90.632 133.908 91.568C133.908 92.516 132.744 92.996 130.656 92.996C128.568 92.996 127.392 92.516 127.392 91.568C127.392 90.632 128.568 90.14 130.656 90.14ZM130.656 90.824C129.216 90.824 128.412 91.076 128.412 91.568C128.412 92.06 129.216 92.312 130.656 92.312C132.084 92.312 132.9 92.06 132.9 91.568C132.9 91.076 132.084 90.824 130.656 90.824ZM130.164 87.824H131.148V89.324H130.164V87.824ZM139.679 82.916C141.275 82.916 142.403 84.392 142.403 86.696C142.403 89.012 141.275 90.488 139.679 90.488C138.083 90.488 136.955 89.012 136.955 86.696C136.955 84.392 138.083 82.916 139.679 82.916ZM139.679 83.816C138.623 83.816 137.903 84.944 137.903 86.696C137.903 88.46 138.623 89.612 139.679 89.612C140.723 89.612 141.455 88.46 141.455 86.696C141.455 84.944 140.723 83.816 139.679 83.816ZM144.131 82.088H145.139V92.936H144.131V82.088ZM144.899 86.42H146.915V87.26H144.899V86.42ZM155.182 82.088H156.178V92.936H155.182V82.088ZM155.938 86.54H157.954V87.38H155.938V86.54ZM147.778 83.816H154.174V84.632H147.778V83.816ZM151.018 85.532C152.554 85.532 153.658 86.564 153.658 88.028C153.658 89.492 152.554 90.524 151.018 90.524C149.494 90.524 148.378 89.492 148.378 88.028C148.378 86.564 149.494 85.532 151.018 85.532ZM151.018 86.36C150.034 86.36 149.326 87.044 149.326 88.028C149.326 89 150.034 89.696 151.018 89.696C152.002 89.696 152.71 89 152.71 88.028C152.71 87.044 152.002 86.36 151.018 86.36ZM150.502 82.22H151.498V84.188H150.502V82.22ZM160.197 85.34H167.565V86.156H160.197V85.34ZM158.865 87.608H168.705V88.424H158.865V87.608ZM160.197 82.484H161.181V85.748H160.197V82.484ZM160.125 91.856H167.625V92.672H160.125V91.856ZM160.125 89.504H161.109V92.072H160.125V89.504ZM173.502 87.812H183.33V88.628H173.502V87.812ZM177.99 88.22H178.986V90.716H177.99V88.22ZM174.75 91.88H182.238V92.696H174.75V91.88ZM174.75 89.756H175.734V92.192H174.75V89.756ZM174.81 82.424H175.794V83.804H181.038V82.424H182.034V86.768H174.81V82.424ZM175.794 84.584V85.964H181.038V84.584H175.794ZM184.541 87.788H194.345V88.604H184.541V87.788ZM185.813 91.88H193.265V92.696H185.813V91.88ZM185.813 89.552H186.809V92.132H185.813V89.552ZM189.449 82.448C191.765 82.448 193.265 83.264 193.265 84.62C193.265 85.964 191.765 86.78 189.449 86.78C187.121 86.78 185.633 85.964 185.633 84.62C185.633 83.264 187.121 82.448 189.449 82.448ZM189.449 83.264C187.745 83.264 186.653 83.768 186.653 84.62C186.653 85.472 187.745 85.976 189.449 85.976C191.153 85.976 192.245 85.472 192.245 84.62C192.245 83.768 191.153 83.264 189.449 83.264ZM207.122 82.076H208.106V92.948H207.122V82.076ZM204.782 86.432H207.41V87.26H204.782V86.432ZM201.95 84.668H202.742V85.592C202.742 87.884 201.482 89.996 199.766 90.848L199.202 90.08C200.798 89.312 201.95 87.464 201.95 85.592V84.668ZM202.142 84.668H202.922V85.592C202.922 87.38 204.11 89.144 205.706 89.876L205.154 90.644C203.414 89.84 202.142 87.812 202.142 85.592V84.668ZM199.502 83.972H205.334V84.776H199.502V83.972ZM201.938 82.28H202.934V84.416H201.938V82.28ZM215.125 82.328C217.465 82.328 218.941 83.096 218.941 84.38C218.941 85.664 217.465 86.42 215.125 86.42C212.773 86.42 211.309 85.664 211.309 84.38C211.309 83.096 212.773 82.328 215.125 82.328ZM215.125 83.12C213.397 83.12 212.329 83.576 212.329 84.38C212.329 85.172 213.397 85.64 215.125 85.64C216.841 85.64 217.921 85.172 217.921 84.38C217.921 83.576 216.841 83.12 215.125 83.12ZM211.417 89.216H218.821V92.792H211.417V89.216ZM217.849 90.02H212.401V91.988H217.849V90.02ZM210.217 87.356H220.021V88.16H210.217V87.356ZM224.866 90.728H234.694V91.556H224.866V90.728ZM229.258 88.136H230.254V90.968H229.258V88.136ZM226.018 82.856H227.002V84.788H232.534V82.856H233.518V88.4H226.018V82.856ZM227.002 85.592V87.584H232.534V85.592H227.002ZM237.225 85.34H244.593V86.156H237.225V85.34ZM235.893 87.608H245.733V88.424H235.893V87.608ZM237.225 82.484H238.209V85.748H237.225V82.484ZM237.153 91.856H244.653V92.672H237.153V91.856ZM237.153 89.504H238.137V92.072H237.153V89.504ZM258.461 82.088H259.457V89.432H258.461V82.088ZM256.133 85.148H258.665V85.964H256.133V85.148ZM255.053 82.94H256.097C256.097 85.748 254.249 87.74 251.141 88.748L250.721 87.956C253.469 87.092 255.053 85.46 255.053 83.336V82.94ZM251.237 82.94H255.761V83.756H251.237V82.94ZM255.461 88.496H256.313V88.988C256.313 91.064 254.417 92.468 252.245 92.912L251.849 92.12C253.769 91.772 255.461 90.572 255.461 88.988V88.496ZM255.605 88.496H256.457V88.988C256.457 90.548 258.125 91.748 260.057 92.096L259.637 92.888C257.477 92.456 255.605 91.052 255.605 88.988V88.496ZM272.594 82.088H273.59V87.884H272.594V82.088ZM273.314 84.596H275.198V85.424H273.314V84.596ZM269.594 82.844H270.698C270.698 85.58 268.79 87.356 265.61 88.088L265.214 87.284C268.07 86.648 269.594 85.196 269.594 83.384V82.844ZM265.658 82.844H270.17V83.66H265.658V82.844ZM266.762 88.376H273.65V89.132H267.746V92.42H266.762V88.376ZM266.762 92.036H273.89V92.792H266.762V92.036ZM267.41 90.188H273.518V90.92H267.41V90.188ZM279.097 82.916C280.693 82.916 281.821 84.392 281.821 86.696C281.821 89.012 280.693 90.488 279.097 90.488C277.501 90.488 276.373 89.012 276.373 86.696C276.373 84.392 277.501 82.916 279.097 82.916ZM279.097 83.816C278.041 83.816 277.321 84.944 277.321 86.696C277.321 88.46 278.041 89.612 279.097 89.612C280.141 89.612 280.873 88.46 280.873 86.696C280.873 84.944 280.141 83.816 279.097 83.816ZM283.549 82.088H284.557V92.936H283.549V82.088ZM284.317 86.42H286.333V87.26H284.317V86.42ZM289.656 87.668H290.64V90.92H289.656V87.668ZM293.664 87.668H294.66V90.92H293.664V87.668ZM287.256 90.728H297.084V91.556H287.256V90.728ZM292.152 82.772C294.444 82.772 296.088 83.864 296.088 85.568C296.088 87.26 294.444 88.352 292.152 88.352C289.848 88.352 288.204 87.26 288.204 85.568C288.204 83.864 289.848 82.772 292.152 82.772ZM292.152 83.564C290.412 83.564 289.164 84.356 289.164 85.568C289.164 86.768 290.412 87.56 292.152 87.56C293.892 87.56 295.128 86.768 295.128 85.568C295.128 84.356 293.892 83.564 292.152 83.564ZM298.895 89.864L298.535 87.248V84.296H300.311V87.248L299.951 89.864H298.895ZM300.263 90.764C300.279 90.884 300.287 90.992 300.287 91.088C300.295 91.176 300.299 91.264 300.299 91.352C300.299 91.504 300.287 91.696 300.263 91.928C300.119 91.952 299.979 91.972 299.843 91.988C299.707 92.004 299.571 92.012 299.435 92.012C299.307 92.012 299.175 92.004 299.039 91.988C298.911 91.972 298.779 91.952 298.643 91.928C298.627 91.816 298.615 91.716 298.607 91.628C298.599 91.532 298.595 91.44 298.595 91.352C298.595 91.272 298.599 91.184 298.607 91.088C298.615 90.992 298.627 90.884 298.643 90.764C298.907 90.716 299.179 90.692 299.459 90.692C299.723 90.692 299.991 90.716 300.263 90.764ZM30.1 106.512H31.108V108.984H30.1V106.512ZM30.616 101.784C32.308 101.784 33.52 102.828 33.52 104.34C33.52 105.852 32.308 106.896 30.616 106.896C28.924 106.896 27.7 105.852 27.7 104.34C27.7 102.828 28.924 101.784 30.616 101.784ZM30.616 102.648C29.488 102.648 28.672 103.332 28.672 104.34C28.672 105.348 29.488 106.044 30.616 106.044C31.732 106.044 32.548 105.348 32.548 104.34C32.548 103.332 31.732 102.648 30.616 102.648ZM34.936 101.076H35.932V111.948H34.936V101.076ZM27.292 109.596L27.148 108.768C29.128 108.768 31.864 108.756 34.228 108.384L34.312 109.116C31.876 109.584 29.224 109.596 27.292 109.596ZM46.0231 101.088H47.0311V107.364H46.0231V101.088ZM40.0351 107.868H41.0191V109.02H46.0471V107.868H47.0311V111.792H40.0351V107.868ZM41.0191 109.8V110.988H46.0471V109.8H41.0191ZM38.2951 102.252H44.8831V103.056H38.2951V102.252ZM41.5831 103.572C43.1911 103.572 44.2351 104.292 44.2351 105.432C44.2351 106.584 43.1911 107.292 41.5831 107.292C39.9871 107.292 38.9431 106.584 38.9431 105.432C38.9431 104.292 39.9871 103.572 41.5831 103.572ZM41.5831 104.328C40.5631 104.328 39.8791 104.748 39.8791 105.432C39.8791 106.116 40.5631 106.548 41.5831 106.548C42.6151 106.548 43.2871 106.116 43.2871 105.432C43.2871 104.748 42.6151 104.328 41.5831 104.328ZM41.0911 100.992H42.0871V102.84H41.0911V100.992ZM50.4141 106.152H57.8661V106.968H50.4141V106.152ZM49.1781 109.74H59.0061V110.58H49.1781V109.74ZM53.5701 106.5H54.5661V110.076H53.5701V106.5ZM50.4141 101.952H57.7581V102.768H51.4101V106.512H50.4141V101.952ZM68.2068 104.304H69.1908V105.96H68.2068V104.304ZM68.0628 101.748H68.9388V102.084C68.9388 103.716 66.9228 104.76 64.6428 104.976L64.3188 104.22C66.2748 104.064 68.0628 103.224 68.0628 102.084V101.748ZM68.4948 101.748H69.3588V102.084C69.3588 103.212 71.1468 104.064 73.1028 104.22L72.7788 104.976C70.5108 104.76 68.4948 103.716 68.4948 102.084V101.748ZM64.7028 101.424H72.7308V102.204H64.7028V101.424ZM64.7148 107.82H72.7068V108.612H64.7148V107.82ZM63.8028 105.588H73.6428V106.392H63.8028V105.588ZM68.7108 109.14C70.7988 109.14 71.9628 109.632 71.9628 110.568C71.9628 111.516 70.7988 111.996 68.7108 111.996C66.6228 111.996 65.4468 111.516 65.4468 110.568C65.4468 109.632 66.6228 109.14 68.7108 109.14ZM68.7108 109.824C67.2708 109.824 66.4668 110.076 66.4668 110.568C66.4668 111.06 67.2708 111.312 68.7108 111.312C70.1388 111.312 70.9548 111.06 70.9548 110.568C70.9548 110.076 70.1388 109.824 68.7108 109.824ZM68.2188 106.824H69.2028V108.324H68.2188V106.824ZM77.7339 101.916C79.3299 101.916 80.4579 103.392 80.4579 105.696C80.4579 108.012 79.3299 109.488 77.7339 109.488C76.1379 109.488 75.0099 108.012 75.0099 105.696C75.0099 103.392 76.1379 101.916 77.7339 101.916ZM77.7339 102.816C76.6779 102.816 75.9579 103.944 75.9579 105.696C75.9579 107.46 76.6779 108.612 77.7339 108.612C78.7779 108.612 79.5099 107.46 79.5099 105.696C79.5099 103.944 78.7779 102.816 77.7339 102.816ZM82.1859 101.088H83.1939V111.936H82.1859V101.088ZM82.9539 105.42H84.9699V106.26H82.9539V105.42ZM93.237 101.088H94.233V111.936H93.237V101.088ZM93.993 105.54H96.009V106.38H93.993V105.54ZM85.833 102.816H92.229V103.632H85.833V102.816ZM89.073 104.532C90.609 104.532 91.713 105.564 91.713 107.028C91.713 108.492 90.609 109.524 89.073 109.524C87.549 109.524 86.433 108.492 86.433 107.028C86.433 105.564 87.549 104.532 89.073 104.532ZM89.073 105.36C88.089 105.36 87.381 106.044 87.381 107.028C87.381 108 88.089 108.696 89.073 108.696C90.057 108.696 90.765 108 90.765 107.028C90.765 106.044 90.057 105.36 89.073 105.36ZM88.557 101.22H89.553V103.188H88.557V101.22ZM99.788 102.024H100.604V103.968C100.604 106.464 99.26 108.78 97.484 109.68L96.872 108.864C98.48 108.096 99.788 106.02 99.788 103.968V102.024ZM99.956 102.024H100.772V103.968C100.772 105.948 102.068 107.94 103.676 108.684L103.076 109.476C101.312 108.612 99.956 106.38 99.956 103.968V102.024ZM104.804 101.076H105.8V111.948H104.804V101.076ZM109.291 104.34H116.659V105.156H109.291V104.34ZM107.959 106.608H117.799V107.424H107.959V106.608ZM109.291 101.484H110.275V104.748H109.291V101.484ZM109.219 110.856H116.719V111.672H109.219V110.856ZM109.219 108.504H110.203V111.072H109.219V108.504ZM130.528 101.088H131.524V108.432H130.528V101.088ZM128.2 104.148H130.732V104.964H128.2V104.148ZM127.12 101.94H128.164C128.164 104.748 126.316 106.74 123.208 107.748L122.788 106.956C125.536 106.092 127.12 104.46 127.12 102.336V101.94ZM123.304 101.94H127.828V102.756H123.304V101.94ZM127.528 107.496H128.38V107.988C128.38 110.064 126.484 111.468 124.312 111.912L123.916 111.12C125.836 110.772 127.528 109.572 127.528 107.988V107.496ZM127.672 107.496H128.524V107.988C128.524 109.548 130.192 110.748 132.124 111.096L131.704 111.888C129.544 111.456 127.672 110.052 127.672 107.988V107.496ZM144.661 101.088H145.657V106.884H144.661V101.088ZM145.381 103.596H147.265V104.424H145.381V103.596ZM141.661 101.844H142.765C142.765 104.58 140.857 106.356 137.677 107.088L137.281 106.284C140.137 105.648 141.661 104.196 141.661 102.384V101.844ZM137.725 101.844H142.237V102.66H137.725V101.844ZM138.829 107.376H145.717V108.132H139.813V111.42H138.829V107.376ZM138.829 111.036H145.957V111.792H138.829V111.036ZM139.477 109.188H145.585V109.92H139.477V109.188ZM148.272 106.788H158.076V107.604H148.272V106.788ZM149.544 110.88H156.996V111.696H149.544V110.88ZM149.544 108.552H150.54V111.132H149.544V108.552ZM153.18 101.448C155.496 101.448 156.996 102.264 156.996 103.62C156.996 104.964 155.496 105.78 153.18 105.78C150.852 105.78 149.364 104.964 149.364 103.62C149.364 102.264 150.852 101.448 153.18 101.448ZM153.18 102.264C151.476 102.264 150.384 102.768 150.384 103.62C150.384 104.472 151.476 104.976 153.18 104.976C154.884 104.976 155.976 104.472 155.976 103.62C155.976 102.768 154.884 102.264 153.18 102.264ZM167.567 101.088H168.527V111.936H167.567V101.088ZM163.067 105.228H165.791V106.044H163.067V105.228ZM165.383 101.34H166.331V111.384H165.383V101.34ZM159.719 108.492H160.415C162.107 108.492 163.127 108.444 164.327 108.192L164.423 109.02C163.187 109.284 162.143 109.332 160.415 109.332H159.719V108.492ZM159.719 102.408H163.799V103.224H160.703V108.816H159.719V102.408ZM178.855 101.328C181.195 101.328 182.671 102.096 182.671 103.38C182.671 104.664 181.195 105.42 178.855 105.42C176.503 105.42 175.039 104.664 175.039 103.38C175.039 102.096 176.503 101.328 178.855 101.328ZM178.855 102.12C177.127 102.12 176.059 102.576 176.059 103.38C176.059 104.172 177.127 104.64 178.855 104.64C180.571 104.64 181.651 104.172 181.651 103.38C181.651 102.576 180.571 102.12 178.855 102.12ZM175.147 108.216H182.551V111.792H175.147V108.216ZM181.579 109.02H176.131V110.988H181.579V109.02ZM173.947 106.356H183.751V107.16H173.947V106.356ZM188.022 101.724C189.654 101.724 190.854 102.78 190.854 104.304C190.854 105.816 189.654 106.86 188.022 106.86C186.39 106.86 185.19 105.816 185.19 104.304C185.19 102.78 186.39 101.724 188.022 101.724ZM188.022 102.576C186.942 102.576 186.162 103.272 186.162 104.304C186.162 105.324 186.942 106.032 188.022 106.032C189.102 106.032 189.882 105.324 189.882 104.304C189.882 103.272 189.102 102.576 188.022 102.576ZM192.414 101.088H193.41V107.472H192.414V101.088ZM193.134 103.872H195.018V104.712H193.134V103.872ZM186.366 108.036H193.41V111.948H192.414V108.84H186.366V108.036ZM207.507 101.076H208.503V111.948H207.507V101.076ZM202.779 101.916C204.387 101.916 205.539 103.392 205.539 105.696C205.539 108.012 204.387 109.488 202.779 109.488C201.183 109.488 200.031 108.012 200.031 105.696C200.031 103.392 201.183 101.916 202.779 101.916ZM202.779 102.816C201.723 102.816 200.979 103.944 200.979 105.696C200.979 107.46 201.723 108.612 202.779 108.612C203.847 108.612 204.579 107.46 204.579 105.696C204.579 103.944 203.847 102.816 202.779 102.816ZM213.554 101.916C215.15 101.916 216.278 103.392 216.278 105.696C216.278 108.012 215.15 109.488 213.554 109.488C211.958 109.488 210.83 108.012 210.83 105.696C210.83 103.392 211.958 101.916 213.554 101.916ZM213.554 102.816C212.498 102.816 211.778 103.944 211.778 105.696C211.778 107.46 212.498 108.612 213.554 108.612C214.598 108.612 215.33 107.46 215.33 105.696C215.33 103.944 214.598 102.816 213.554 102.816ZM218.738 103.812H220.73V104.652H218.738V103.812ZM218.738 107.04H220.73V107.88H218.738V107.04ZM218.006 101.088H219.014V111.936H218.006V101.088ZM229.609 101.088H230.605V111.936H229.609V101.088ZM226.429 102.252H227.413C227.413 105.396 225.997 108.144 222.373 109.92L221.845 109.116C224.977 107.604 226.429 105.3 226.429 102.42V102.252ZM222.337 102.252H226.861V103.068H222.337V102.252ZM243.766 101.088H244.762V106.884H243.766V101.088ZM244.486 103.596H246.37V104.424H244.486V103.596ZM240.766 101.844H241.87C241.87 104.58 239.962 106.356 236.782 107.088L236.386 106.284C239.242 105.648 240.766 104.196 240.766 102.384V101.844ZM236.83 101.844H241.342V102.66H236.83V101.844ZM237.934 107.376H244.822V108.132H238.918V111.42H237.934V107.376ZM237.934 111.036H245.062V111.792H237.934V111.036ZM238.582 109.188H244.69V109.92H238.582V109.188ZM255.261 101.076H256.257V111.948H255.261V101.076ZM250.533 101.916C252.141 101.916 253.293 103.392 253.293 105.696C253.293 108.012 252.141 109.488 250.533 109.488C248.937 109.488 247.785 108.012 247.785 105.696C247.785 103.392 248.937 101.916 250.533 101.916ZM250.533 102.816C249.477 102.816 248.733 103.944 248.733 105.696C248.733 107.46 249.477 108.612 250.533 108.612C251.601 108.612 252.333 107.46 252.333 105.696C252.333 103.944 251.601 102.816 250.533 102.816ZM270.21 101.1H271.158V107.808H270.21V101.1ZM268.446 104.064H270.498V104.88H268.446V104.064ZM267.906 101.256H268.854V107.652H267.906V101.256ZM261.966 102.324H267.462V103.116H261.966V102.324ZM264.726 103.656C266.082 103.656 267.03 104.388 267.03 105.516C267.03 106.644 266.082 107.376 264.726 107.376C263.358 107.376 262.41 106.644 262.41 105.516C262.41 104.388 263.358 103.656 264.726 103.656ZM264.726 104.412C263.874 104.412 263.298 104.844 263.298 105.516C263.298 106.188 263.874 106.632 264.726 106.632C265.566 106.632 266.142 106.188 266.142 105.516C266.142 104.844 265.566 104.412 264.726 104.412ZM264.234 101.136H265.206V102.792H264.234V101.136ZM264.882 108.132H265.65V108.504C265.65 109.872 264.75 111.24 263.178 111.804L262.71 111.06C264.066 110.604 264.882 109.488 264.882 108.504V108.132ZM265.11 108.132H265.842V108.504C265.842 109.548 266.478 110.652 267.774 111.144L267.354 111.9C265.806 111.324 265.11 109.884 265.11 108.504V108.132ZM268.866 108.132H269.598V108.504C269.598 109.728 268.89 111.276 267.354 111.9L266.946 111.144C268.206 110.592 268.866 109.404 268.866 108.504V108.132ZM269.07 108.132H269.838V108.504C269.838 109.56 270.654 110.628 272.022 111.06L271.542 111.804C269.958 111.264 269.07 109.944 269.07 108.504V108.132ZM277.961 101.772C280.217 101.772 281.897 102.972 281.897 104.772C281.897 106.584 280.217 107.772 277.961 107.772C275.705 107.772 274.013 106.584 274.013 104.772C274.013 102.972 275.705 101.772 277.961 101.772ZM277.961 102.588C276.245 102.588 274.973 103.464 274.973 104.772C274.973 106.068 276.245 106.956 277.961 106.956C279.677 106.956 280.949 106.068 280.949 104.772C280.949 103.464 279.677 102.588 277.961 102.588ZM273.065 109.668H282.893V110.508H273.065V109.668ZM289.3 102.996H292.336V103.812H289.3V102.996ZM289.3 105.312H292.36V106.14H289.3V105.312ZM284.596 102.024H289.552V107.112H284.596V102.024ZM288.568 102.828H285.568V106.308H288.568V102.828ZM292.024 101.1H293.02V109.02H292.024V101.1ZM286.048 110.88H293.284V111.696H286.048V110.88ZM286.048 108.3H287.044V111.252H286.048V108.3ZM303.133 104.304H304.117V105.96H303.133V104.304ZM302.989 101.748H303.865V102.084C303.865 103.716 301.849 104.76 299.569 104.976L299.245 104.22C301.201 104.064 302.989 103.224 302.989 102.084V101.748ZM303.421 101.748H304.285V102.084C304.285 103.212 306.073 104.064 308.029 104.22L307.705 104.976C305.437 104.76 303.421 103.716 303.421 102.084V101.748ZM299.629 101.424H307.657V102.204H299.629V101.424ZM299.641 107.82H307.633V108.612H299.641V107.82ZM298.729 105.588H308.569V106.392H298.729V105.588ZM303.637 109.14C305.725 109.14 306.889 109.632 306.889 110.568C306.889 111.516 305.725 111.996 303.637 111.996C301.549 111.996 300.373 111.516 300.373 110.568C300.373 109.632 301.549 109.14 303.637 109.14ZM303.637 109.824C302.197 109.824 301.393 110.076 301.393 110.568C301.393 111.06 302.197 111.312 303.637 111.312C305.065 111.312 305.881 111.06 305.881 110.568C305.881 110.076 305.065 109.824 303.637 109.824ZM303.145 106.824H304.129V108.324H303.145V106.824ZM313.536 101.88H314.532C314.532 104.472 313.092 106.416 310.38 107.568L309.876 106.836C312.264 105.852 313.536 104.256 313.536 102.204V101.88ZM310.344 101.88H313.92V102.708H310.344V101.88ZM317.964 101.088H318.912V107.352H317.964V101.088ZM313.416 104.172H316.032V104.976H313.416V104.172ZM315.816 101.316H316.752V107.184H315.816V101.316ZM312.588 107.724H313.356V108.432C313.356 109.86 312.456 111.3 310.896 111.9L310.404 111.156C311.76 110.664 312.588 109.488 312.588 108.432V107.724ZM312.804 107.724H313.548V108.432C313.548 109.536 314.184 110.7 315.492 111.252L315.072 111.996C313.5 111.372 312.804 109.884 312.804 108.432V107.724ZM316.572 107.724H317.316V108.432C317.316 109.716 316.608 111.336 315.072 111.996L314.628 111.252C315.936 110.652 316.572 109.368 316.572 108.432V107.724ZM316.776 107.724H317.544V108.432C317.544 109.572 318.36 110.7 319.728 111.156L319.236 111.9C317.664 111.324 316.776 109.944 316.776 108.432V107.724ZM323.711 101.916C325.283 101.916 326.411 103.392 326.411 105.696C326.411 108.012 325.283 109.488 323.711 109.488C322.127 109.488 321.011 108.012 321.011 105.696C321.011 103.392 322.127 101.916 323.711 101.916ZM323.711 102.816C322.667 102.816 321.959 103.944 321.959 105.696C321.959 107.46 322.667 108.612 323.711 108.612C324.755 108.612 325.463 107.46 325.463 105.696C325.463 103.944 324.755 102.816 323.711 102.816ZM328.763 101.076H329.747V111.948H328.763V101.076ZM326.087 105.216H329.195V106.032H326.087V105.216ZM334.258 106.668H335.242V109.92H334.258V106.668ZM338.266 106.668H339.262V109.92H338.266V106.668ZM331.858 109.728H341.686V110.556H331.858V109.728ZM336.754 101.772C339.046 101.772 340.69 102.864 340.69 104.568C340.69 106.26 339.046 107.352 336.754 107.352C334.45 107.352 332.806 106.26 332.806 104.568C332.806 102.864 334.45 101.772 336.754 101.772ZM336.754 102.564C335.014 102.564 333.766 103.356 333.766 104.568C333.766 105.768 335.014 106.56 336.754 106.56C338.494 106.56 339.73 105.768 339.73 104.568C339.73 103.356 338.494 102.564 336.754 102.564ZM347.875 104.352H355.063V105.18H347.875V104.352ZM351.475 105.948C353.011 105.948 354.139 106.764 354.139 107.928C354.139 109.092 353.011 109.908 351.475 109.908C349.939 109.908 348.799 109.092 348.799 107.928C348.799 106.764 349.939 105.948 351.475 105.948ZM351.475 106.788C350.527 106.788 349.819 107.256 349.819 107.928C349.819 108.6 350.527 109.068 351.475 109.068C352.411 109.068 353.131 108.6 353.131 107.928C353.131 107.256 352.411 106.788 351.475 106.788ZM350.971 102.888H351.967V105.036H350.971V102.888ZM358.914 104.352H366.102V105.18H358.914V104.352ZM362.514 105.948C364.05 105.948 365.178 106.764 365.178 107.928C365.178 109.092 364.05 109.908 362.514 109.908C360.978 109.908 359.838 109.092 359.838 107.928C359.838 106.764 360.978 105.948 362.514 105.948ZM362.514 106.788C361.566 106.788 360.858 107.256 360.858 107.928C360.858 108.6 361.566 109.068 362.514 109.068C363.45 109.068 364.17 108.6 364.17 107.928C364.17 107.256 363.45 106.788 362.514 106.788ZM362.01 102.888H363.006V105.036H362.01V102.888Z" fill="#2F2F2F"/>
<path d="M21.888 17.172H22.812V19.328H21.888V17.172ZM21.888 13.674H22.625V13.894C22.625 15.632 21.492 16.974 19.82 17.502L19.402 16.787C20.876 16.347 21.888 15.236 21.888 13.894V13.674ZM22.064 13.674H22.801V13.894C22.801 15.181 23.846 16.259 25.309 16.688L24.891 17.392C23.219 16.897 22.064 15.577 22.064 13.894V13.674ZM19.633 13.212H25.1V13.949H19.633V13.212ZM21.888 11.98H22.812V13.531H21.888V11.98ZM26.233 11.903H27.146V21.869H26.233V11.903ZM19.226 19.823L19.094 19.053C20.909 19.053 23.417 19.042 25.584 18.712L25.661 19.383C23.428 19.801 20.997 19.812 19.226 19.823ZM34.1301 15.28H36.9021V16.028H34.1301V15.28ZM31.7321 12.772H32.4801V14.543C32.4801 16.776 31.3031 18.91 29.7301 19.757L29.1471 19.031C30.6101 18.305 31.7321 16.391 31.7321 14.543V12.772ZM31.9081 12.772H32.6451V14.543C32.6451 16.358 33.7671 18.162 35.2081 18.844L34.6691 19.581C33.0631 18.767 31.9081 16.721 31.9081 14.543V12.772ZM36.4511 11.903H37.3531V21.869H36.4511V11.903ZM43.7763 12.156C45.8773 12.156 47.2633 12.926 47.2633 14.147C47.2633 15.379 45.8773 16.138 43.7763 16.138C41.6643 16.138 40.2893 15.379 40.2893 14.147C40.2893 12.926 41.6643 12.156 43.7763 12.156ZM43.7763 12.904C42.2583 12.904 41.2573 13.388 41.2573 14.147C41.2573 14.917 42.2583 15.39 43.7763 15.39C45.2943 15.39 46.2953 14.917 46.2953 14.147C46.2953 13.388 45.2943 12.904 43.7763 12.904ZM39.2883 16.886H48.2753V17.634H39.2883V16.886ZM40.3773 20.89H47.3513V21.638H40.3773V20.89ZM40.3773 18.855H41.2903V21.264H40.3773V18.855ZM42.4233 17.205H43.3253V19.691H42.4233V17.205ZM45.0743 17.205H45.9873V19.702H45.0743V17.205Z" fill="#474747"/>
<g opacity="0.7" clip-path="url(#clip0_36_33)">
<rect x="53.4992" y="12.5" width="0.8" height="10" fill="#9D9D9D"/>
</g>
<path opacity="0.7" d="M58.762 16.083V14.642C59.0187 14.4807 59.356 14.3487 59.774 14.246C60.192 14.1433 60.6467 14.092 61.138 14.092C61.9227 14.092 62.5497 14.246 63.019 14.554C63.4957 14.862 63.734 15.3827 63.734 16.116C63.734 16.6953 63.5983 17.161 63.327 17.513C63.063 17.8577 62.5937 18.1583 61.919 18.415C61.2663 18.6643 60.8153 18.877 60.566 19.053C60.324 19.2217 60.203 19.3903 60.203 19.559H63.789V20.956H58.575V19.724C58.575 19.35 58.6373 19.031 58.762 18.767C58.894 18.503 59.1177 18.261 59.433 18.041C59.7483 17.821 60.1847 17.5937 60.742 17.359C61.16 17.183 61.4863 17.0143 61.721 16.853C61.963 16.6843 62.0803 16.4827 62.073 16.248C62.0657 15.9693 61.9593 15.775 61.754 15.665C61.556 15.5477 61.2737 15.489 60.907 15.489C60.555 15.489 60.1957 15.5513 59.829 15.676C59.4623 15.7933 59.1397 15.929 58.861 16.083H58.762ZM64.5871 18.085V14.202H69.3611V15.621H66.1051V16.699L66.1271 16.732H67.3041C68.1108 16.732 68.6974 16.897 69.0641 17.227C69.4308 17.557 69.6141 18.0813 69.6141 18.8C69.6141 19.5627 69.3758 20.12 68.8991 20.472C68.4224 20.824 67.6818 21 66.6771 21C66.2004 21 65.7678 20.978 65.3791 20.934C64.9904 20.8827 64.6421 20.8203 64.3341 20.747V19.405L64.3561 19.383C64.5174 19.427 64.7081 19.4637 64.9281 19.493C65.1554 19.5223 65.3864 19.548 65.6211 19.57C65.8558 19.5847 66.0684 19.592 66.2591 19.592C66.7138 19.592 67.0621 19.57 67.3041 19.526C67.5461 19.482 67.7111 19.405 67.7991 19.295C67.8944 19.1777 67.9421 19.0163 67.9421 18.811C67.9421 18.5543 67.8798 18.371 67.7551 18.261C67.6378 18.1437 67.3994 18.085 67.0401 18.085H64.5871ZM74.3568 15.467H76.2598V16.226H74.3568V15.467ZM72.4978 12.849H73.2128V14.741C73.2128 16.82 72.3438 18.833 70.8918 19.724L70.3198 19.031C71.6838 18.228 72.4978 16.446 72.4978 14.741V12.849ZM72.6738 12.849H73.3778V14.708C73.3778 16.303 74.1258 17.997 75.4348 18.789L74.9068 19.504C73.4768 18.624 72.6738 16.644 72.6738 14.708V12.849ZM78.0088 11.914H78.8888V21.858H78.0088V11.914ZM75.9958 12.123H76.8538V21.363H75.9958V12.123Z" fill="#9D9D9D"/>
<g opacity="0.7" clip-path="url(#clip1_36_33)">
<rect x="84.2992" y="12.5" width="0.8" height="10" fill="#9D9D9D"/>
</g>
<path opacity="0.7" d="M89.76 20.901V13.938H94.93V15.368H91.52V16.688H94.479V18.118H91.52V19.471H94.93V20.901H89.76ZM100.318 13.938H102.078V20.901H100.329L98.3489 17.953C98.1949 17.7183 98.0665 17.5203 97.9639 17.359C97.8612 17.1977 97.7659 17.0363 97.6779 16.875C97.5899 16.7137 97.4909 16.523 97.3809 16.303L97.3479 16.347C97.4505 16.699 97.5129 17.029 97.5349 17.337C97.5569 17.6377 97.5679 17.931 97.5679 18.217V20.901H95.8079V13.938H97.5569L99.5369 16.886C99.6909 17.1133 99.8192 17.3113 99.9219 17.48C100.025 17.6413 100.12 17.8027 100.208 17.964C100.296 18.1253 100.395 18.316 100.505 18.536L100.538 18.492C100.465 18.184 100.41 17.887 100.373 17.601C100.336 17.3077 100.318 17.018 100.318 16.732V13.938ZM105.163 20.901H103.403V13.938H108.573V15.368H105.163V16.963H108.353V18.393H105.163V20.901ZM111.465 13.938H113.225V18.349C113.225 19.2437 113.034 19.911 112.653 20.351C112.271 20.7837 111.626 21 110.717 21C110.343 21 110.027 20.9817 109.771 20.945C109.514 20.9083 109.243 20.8423 108.957 20.747V19.24L109.001 19.218C109.228 19.2913 109.441 19.3463 109.639 19.383C109.837 19.4197 110.082 19.438 110.376 19.438C110.684 19.438 110.915 19.405 111.069 19.339C111.23 19.2657 111.336 19.1373 111.388 18.954C111.446 18.7707 111.476 18.5067 111.476 18.162L111.465 13.938Z" fill="#9D9D9D"/>
<rect x="122.4" y="8.3" width="32.4" height="18.4" rx="9.2" stroke="#252525" stroke-width="0.6"/>
<path d="M136.756 13.4H137.428V18.68H136.756V13.4ZM132.78 19.92H137.644V20.464H132.78V19.92ZM132.78 18.136H133.436V20.104H132.78V18.136ZM133.548 13.896C134.628 13.896 135.428 14.632 135.428 15.68C135.428 16.72 134.628 17.464 133.548 17.464C132.468 17.464 131.66 16.72 131.66 15.68C131.66 14.632 132.468 13.896 133.548 13.896ZM133.548 14.472C132.844 14.472 132.308 14.968 132.308 15.68C132.308 16.384 132.844 16.88 133.548 16.88C134.252 16.88 134.788 16.384 134.788 15.68C134.788 14.968 134.252 14.472 133.548 14.472ZM144.107 13.392H144.771V20.64H144.107V13.392ZM139.323 18.28H139.907C141.339 18.28 142.267 18.232 143.339 18.032L143.411 18.592C142.307 18.8 141.363 18.84 139.907 18.84H139.323V18.28ZM139.323 14.08H142.739V14.632H139.979V18.488H139.323V14.08Z" fill="#252525"/>
<path d="M347.578 17.636V16.064C347.858 15.888 348.226 15.744 348.682 15.632C349.138 15.52 349.634 15.464 350.17 15.464C351.026 15.464 351.71 15.632 352.222 15.968C352.742 16.304 353.002 16.872 353.002 17.672C353.002 18.304 352.854 18.812 352.558 19.196C352.27 19.572 351.758 19.9 351.022 20.18C350.31 20.452 349.818 20.684 349.546 20.876C349.282 21.06 349.15 21.244 349.15 21.428H353.062V22.952H347.374V21.608C347.374 21.2 347.442 20.852 347.578 20.564C347.722 20.276 347.966 20.012 348.31 19.772C348.654 19.532 349.13 19.284 349.738 19.028C350.194 18.836 350.55 18.652 350.806 18.476C351.07 18.292 351.198 18.072 351.19 17.816C351.182 17.512 351.066 17.3 350.842 17.18C350.626 17.052 350.318 16.988 349.918 16.988C349.534 16.988 349.142 17.056 348.742 17.192C348.342 17.32 347.99 17.468 347.686 17.636H347.578ZM359.033 17.42C358.809 17.308 358.537 17.22 358.217 17.156C357.905 17.092 357.585 17.06 357.257 17.06C356.649 17.06 356.217 17.176 355.961 17.408C355.705 17.64 355.553 18.04 355.505 18.608H355.517C355.685 18.528 355.909 18.464 356.189 18.416C356.469 18.368 356.785 18.344 357.137 18.344C357.913 18.344 358.505 18.528 358.913 18.896C359.321 19.264 359.525 19.816 359.525 20.552C359.525 21.08 359.441 21.528 359.273 21.896C359.105 22.256 358.817 22.532 358.409 22.724C358.009 22.908 357.449 23 356.729 23C355.945 23 355.333 22.864 354.893 22.592C354.461 22.32 354.157 21.908 353.981 21.356C353.805 20.804 353.717 20.108 353.717 19.268C353.717 18.388 353.845 17.672 354.101 17.12C354.365 16.56 354.729 16.152 355.193 15.896C355.657 15.632 356.201 15.5 356.825 15.5C357.353 15.5 357.801 15.544 358.169 15.632C358.537 15.72 358.841 15.816 359.081 15.92V17.396L359.033 17.42ZM356.729 21.536C357.169 21.536 357.465 21.464 357.617 21.32C357.769 21.176 357.845 20.94 357.845 20.612C357.845 20.26 357.757 20.02 357.581 19.892C357.405 19.756 357.117 19.688 356.717 19.688C356.469 19.688 356.233 19.716 356.009 19.772C355.785 19.828 355.613 19.9 355.493 19.988C355.485 20.596 355.573 21.008 355.757 21.224C355.949 21.432 356.273 21.536 356.729 21.536ZM360.412 18.812H370.24V19.628H360.412V18.812ZM364.9 19.22H365.896V21.716H364.9V19.22ZM361.66 22.88H369.148V23.696H361.66V22.88ZM361.66 20.756H362.644V23.192H361.66V20.756ZM361.72 13.424H362.704V14.804H367.948V13.424H368.944V17.768H361.72V13.424ZM362.704 15.584V16.964H367.948V15.584H362.704ZM380.809 16.076H383.545V16.892H380.809V16.076ZM382.981 13.1H383.977V21.044H382.981V13.1ZM377.053 22.88H384.277V23.696H377.053V22.88ZM377.053 20.348H378.049V23.3H377.053V20.348ZM377.821 14.444H378.637V15.32C378.637 17.288 377.413 18.992 375.601 19.664L375.085 18.872C376.705 18.296 377.821 16.856 377.821 15.32V14.444ZM378.013 14.444H378.817V15.308C378.817 16.712 379.873 18.08 381.445 18.632L380.941 19.412C379.177 18.776 378.013 17.144 378.013 15.308V14.444ZM375.397 13.976H381.193V14.78H375.397V13.976Z" fill="#9D9D9D"/>
<defs>
<linearGradient id="paint0_linear_36_33" x1="200" y1="0" x2="200" y2="138" gradientUnits="userSpaceOnUse">
<stop stop-color="#FCFFD8"/>
<stop offset="1" stop-color="#EAD3FC"/>
</linearGradient>
<clipPath id="clip0_36_33">
<rect width="0.8" height="12" fill="white" transform="matrix(-1 0 0 1 54.3 11.5)"/>
</clipPath>
<clipPath id="clip1_36_33">
<rect width="0.8" height="12" fill="white" transform="matrix(-1 0 0 1 85.1 11.5)"/>
</clipPath>
</defs>
</svg>
