<svg width="400" height="138" viewBox="0 0 400 138" fill="none" xmlns="http://www.w3.org/2000/svg">
<rect x="0.5" width="399" height="138" rx="16" fill="url(#paint0_linear_36_33)"/>
<g clip-path="url(#clip0_36_33)">
<path d="M24.016 36.076H25.012V44.068H24.016V36.076ZM24.7 39.376H26.62V40.204H24.7V39.376ZM18.256 45.88H25.504V46.696H18.256V45.88ZM18.256 43.252H19.252V46.204H18.256V43.252ZM19.624 36.844C21.244 36.844 22.456 37.96 22.456 39.52C22.456 41.092 21.244 42.196 19.624 42.196C18.004 42.196 16.792 41.092 16.792 39.52C16.792 37.96 18.004 36.844 19.624 36.844ZM19.624 37.72C18.568 37.72 17.764 38.464 17.764 39.52C17.764 40.588 18.568 41.32 19.624 41.32C20.68 41.32 21.484 40.588 21.484 39.52C21.484 38.464 20.68 37.72 19.624 37.72ZM28.2871 36.736H29.2711V41.416H28.2871V36.736ZM28.2871 41.176H29.1031C31.0111 41.176 32.3311 41.116 33.8311 40.804L33.9631 41.608C32.4031 41.932 31.0591 42.004 29.1031 42.004H28.2871V41.176ZM35.5591 36.088H36.5551V42.736H35.5591V36.088ZM32.5231 37.36H35.8351V38.14H32.5231V37.36ZM32.5231 39.268H35.8351V40.06H32.5231V39.268ZM32.9911 42.832C35.2231 42.832 36.6031 43.588 36.6031 44.884C36.6031 46.18 35.2231 46.924 32.9911 46.924C30.7471 46.924 29.3671 46.18 29.3671 44.884C29.3671 43.588 30.7471 42.832 32.9911 42.832ZM32.9911 43.624C31.3591 43.624 30.3631 44.092 30.3631 44.884C30.3631 45.676 31.3591 46.132 32.9911 46.132C34.6231 46.132 35.6191 45.676 35.6191 44.884C35.6191 44.092 34.6231 43.624 32.9911 43.624ZM46.0221 36.088H47.0181V46.936H46.0221V36.088ZM46.7781 40.54H48.7941V41.38H46.7781V40.54ZM38.6181 37.816H45.0141V38.632H38.6181V37.816ZM41.8581 39.532C43.3941 39.532 44.4981 40.564 44.4981 42.028C44.4981 43.492 43.3941 44.524 41.8581 44.524C40.3341 44.524 39.2181 43.492 39.2181 42.028C39.2181 40.564 40.3341 39.532 41.8581 39.532ZM41.8581 40.36C40.8741 40.36 40.1661 41.044 40.1661 42.028C40.1661 43 40.8741 43.696 41.8581 43.696C42.8421 43.696 43.5501 43 43.5501 42.028C43.5501 41.044 42.8421 40.36 41.8581 40.36ZM41.3421 36.22H42.3381V38.188H41.3421V36.22ZM53.9892 39.964H56.0652V40.792H53.9892V39.964ZM51.9612 37.108H52.7412V39.172C52.7412 41.44 51.7932 43.636 50.2092 44.608L49.5852 43.852C51.0732 42.976 51.9612 41.032 51.9612 39.172V37.108ZM52.1532 37.108H52.9212V39.136C52.9212 40.876 53.7372 42.724 55.1652 43.588L54.5892 44.368C53.0292 43.408 52.1532 41.248 52.1532 39.136V37.108ZM57.9732 36.088H58.9332V46.936H57.9732V36.088ZM55.7772 36.316H56.7132V46.396H55.7772V36.316ZM63.1562 41.668H64.1403V44.92H63.1562V41.668ZM67.1643 41.668H68.1603V44.92H67.1643V41.668ZM60.7563 44.728H70.5843V45.556H60.7563V44.728ZM65.6523 36.772C67.9443 36.772 69.5883 37.864 69.5883 39.568C69.5883 41.26 67.9443 42.352 65.6523 42.352C63.3483 42.352 61.7043 41.26 61.7043 39.568C61.7043 37.864 63.3483 36.772 65.6523 36.772ZM65.6523 37.564C63.9123 37.564 62.6643 38.356 62.6643 39.568C62.6643 40.768 63.9123 41.56 65.6523 41.56C67.3923 41.56 68.6283 40.768 68.6283 39.568C68.6283 38.356 67.3923 37.564 65.6523 37.564ZM77.757 40.516C77.773 40.668 77.781 40.804 77.781 40.924C77.789 41.044 77.793 41.164 77.793 41.284C77.793 41.404 77.789 41.524 77.781 41.644C77.781 41.764 77.773 41.904 77.757 42.064C77.373 42.136 77.001 42.172 76.641 42.172C76.289 42.172 75.933 42.136 75.573 42.064C75.549 41.912 75.533 41.776 75.525 41.656C75.517 41.536 75.513 41.416 75.513 41.296C75.513 41.184 75.517 41.064 75.525 40.936C75.533 40.808 75.549 40.668 75.573 40.516C75.757 40.476 75.941 40.448 76.125 40.432C76.309 40.416 76.489 40.408 76.665 40.408C76.849 40.408 77.029 40.416 77.205 40.432C77.389 40.448 77.573 40.476 77.757 40.516ZM77.757 44.332C77.773 44.492 77.781 44.632 77.781 44.752C77.789 44.872 77.793 44.992 77.793 45.112C77.793 45.32 77.781 45.576 77.757 45.88C77.389 45.96 77.017 46 76.641 46C76.465 46 76.289 45.992 76.113 45.976C75.937 45.952 75.761 45.92 75.585 45.88C75.553 45.736 75.533 45.604 75.525 45.484C75.517 45.364 75.513 45.244 75.513 45.124C75.513 45.012 75.517 44.892 75.525 44.764C75.533 44.636 75.553 44.492 75.585 44.332C75.761 44.292 75.941 44.268 76.125 44.26C76.309 44.244 76.489 44.236 76.665 44.236C76.849 44.236 77.029 44.244 77.205 44.26C77.389 44.268 77.573 44.292 77.757 44.332ZM78.7478 37.936V36.436C79.2438 36.436 79.6558 36.476 79.9838 36.556C80.3198 36.636 80.5878 36.788 80.7878 37.012C80.9878 37.228 81.1318 37.552 81.2198 37.984C81.3078 38.408 81.3518 38.968 81.3518 39.664V45.784C81.3518 46.504 81.3118 47.084 81.2318 47.524C81.1518 47.964 81.0158 48.296 80.8238 48.52C80.6318 48.752 80.3678 48.908 80.0318 48.988C79.6958 49.068 79.2678 49.108 78.7478 49.108V47.608C78.9558 47.608 79.1198 47.568 79.2398 47.488C79.3678 47.416 79.4598 47.248 79.5158 46.984C79.5798 46.728 79.6118 46.328 79.6118 45.784V39.664C79.6118 39.152 79.5798 38.776 79.5158 38.536C79.4598 38.288 79.3678 38.128 79.2398 38.056C79.1198 37.976 78.9558 37.936 78.7478 37.936ZM24.532 55.076H25.516V65.948H24.532V55.076ZM22.192 59.036H24.82V59.852H22.192V59.036ZM19.348 56.636H20.152V58.256C20.152 60.596 18.808 62.912 17.092 63.8L16.504 63.008C18.064 62.24 19.348 60.188 19.348 58.256V56.636ZM19.552 56.636H20.344V58.256C20.344 60.068 21.604 62.048 23.176 62.792L22.588 63.572C20.872 62.72 19.552 60.488 19.552 58.256V56.636ZM16.9 56.192H22.804V57.02H16.9V56.192ZM35.0551 55.088H36.0511V61.64H35.0551V55.088ZM35.7511 57.8H37.6591V58.628H35.7511V57.8ZM28.1071 60.2H28.9591C30.9271 60.2 32.3311 60.14 34.0231 59.84L34.1071 60.668C32.3911 60.956 30.9631 61.028 28.9591 61.028H28.1071V60.2ZM28.0831 55.76H32.9671V58.712H29.0791V60.728H28.1071V57.932H31.9831V56.576H28.0831V55.76ZM32.5831 61.976C34.8031 61.976 36.1471 62.696 36.1471 63.944C36.1471 65.204 34.8031 65.924 32.5831 65.924C30.3751 65.924 29.0191 65.204 29.0191 63.944C29.0191 62.696 30.3751 61.976 32.5831 61.976ZM32.5831 62.756C30.9631 62.756 29.9911 63.188 29.9911 63.944C29.9911 64.712 30.9631 65.144 32.5831 65.144C34.2031 65.144 35.1871 64.712 35.1871 63.944C35.1871 63.188 34.2031 62.756 32.5831 62.756ZM47.1718 55.328C49.5118 55.328 50.9878 56.096 50.9878 57.38C50.9878 58.664 49.5118 59.42 47.1718 59.42C44.8198 59.42 43.3558 58.664 43.3558 57.38C43.3558 56.096 44.8198 55.328 47.1718 55.328ZM47.1718 56.12C45.4438 56.12 44.3758 56.576 44.3758 57.38C44.3758 58.172 45.4438 58.64 47.1718 58.64C48.8878 58.64 49.9678 58.172 49.9678 57.38C49.9678 56.576 48.8878 56.12 47.1718 56.12ZM43.4638 62.216H50.8678V65.792H43.4638V62.216ZM49.8958 63.02H44.4478V64.988H49.8958V63.02ZM42.2638 60.356H52.0678V61.16H42.2638V60.356ZM56.3388 55.724C57.9708 55.724 59.1708 56.78 59.1708 58.304C59.1708 59.816 57.9708 60.86 56.3388 60.86C54.7068 60.86 53.5068 59.816 53.5068 58.304C53.5068 56.78 54.7068 55.724 56.3388 55.724ZM56.3388 56.576C55.2588 56.576 54.4788 57.272 54.4788 58.304C54.4788 59.324 55.2588 60.032 56.3388 60.032C57.4188 60.032 58.1988 59.324 58.1988 58.304C58.1988 57.272 57.4188 56.576 56.3388 56.576ZM60.7308 55.088H61.7268V61.472H60.7308V55.088ZM61.4508 57.872H63.3348V58.712H61.4508V57.872ZM54.6828 62.036H61.7268V65.948H60.7308V62.84H54.6828V62.036ZM71.0356 56.984H71.8516V57.128C71.8516 58.724 70.6756 59.972 68.8396 60.428L68.4316 59.636C69.9796 59.288 71.0356 58.28 71.0356 57.128V56.984ZM71.2156 56.984H72.0316V57.128C72.0316 58.22 73.0756 59.144 74.6116 59.492L74.2036 60.272C72.3916 59.84 71.2156 58.652 71.2156 57.128V56.984ZM68.6596 56.312H74.4076V57.104H68.6596V56.312ZM71.0236 55.112H72.0316V56.84H71.0236V55.112ZM71.0476 61.292H72.0436V65.624H71.0476V61.292ZM75.8476 55.088H76.8316V65.948H75.8476V55.088ZM68.0596 62.024L67.9276 61.184C69.9796 61.184 72.7036 61.172 75.0796 60.836L75.1516 61.568C72.7156 61.988 70.0756 62.024 68.0596 62.024ZM87.1026 56.96H88.9866V57.788H87.1026V56.96ZM87.1026 59.276H88.9866V60.104H87.1026V59.276ZM86.4066 55.088H87.4026V62.072H86.4066V55.088ZM83.9946 62.168C86.1906 62.168 87.5226 62.852 87.5226 64.04C87.5226 65.228 86.1906 65.912 83.9946 65.912C81.8106 65.912 80.4666 65.228 80.4666 64.04C80.4666 62.852 81.8106 62.168 83.9946 62.168ZM83.9946 62.936C82.4106 62.936 81.4506 63.344 81.4506 64.04C81.4506 64.748 82.4106 65.144 83.9946 65.144C85.5906 65.144 86.5506 64.748 86.5506 64.04C86.5506 63.344 85.5906 62.936 83.9946 62.936ZM79.0146 56.312H85.4226V57.104H79.0146V56.312ZM82.2186 57.656C83.7666 57.656 84.8106 58.4 84.8106 59.564C84.8106 60.74 83.7666 61.484 82.2186 61.484C80.6586 61.484 79.6146 60.74 79.6146 59.564C79.6146 58.4 80.6586 57.656 82.2186 57.656ZM82.2186 58.412C81.2226 58.412 80.5626 58.868 80.5626 59.564C80.5626 60.272 81.2226 60.728 82.2186 60.728C83.1906 60.728 83.8626 60.272 83.8626 59.564C83.8626 58.868 83.1906 58.412 82.2186 58.412ZM81.7146 54.992H82.7106V56.756H81.7146V54.992ZM97.9017 55.076H98.8977V65.948H97.9017V55.076ZM93.1737 55.916C94.7817 55.916 95.9337 57.392 95.9337 59.696C95.9337 62.012 94.7817 63.488 93.1737 63.488C91.5777 63.488 90.4257 62.012 90.4257 59.696C90.4257 57.392 91.5777 55.916 93.1737 55.916ZM93.1737 56.816C92.1177 56.816 91.3737 57.944 91.3737 59.696C91.3737 61.46 92.1177 62.612 93.1737 62.612C94.2417 62.612 94.9737 61.46 94.9737 59.696C94.9737 57.944 94.2417 56.816 93.1737 56.816ZM112.538 55.076H113.534V65.948H112.538V55.076ZM105.278 56H106.262V58.868H109.394V56H110.39V63.332H105.278V56ZM106.262 59.66V62.516H109.394V59.66H106.262ZM115.693 60.344H125.497V61.148H115.693V60.344ZM120.097 61.976H120.949V62.312C120.949 64.256 119.053 65.528 116.833 65.9L116.449 65.108C118.429 64.832 120.097 63.752 120.097 62.312V61.976ZM120.253 61.976H121.105V62.312C121.105 63.752 122.761 64.832 124.741 65.108L124.357 65.9C122.137 65.528 120.253 64.256 120.253 62.312V61.976ZM120.097 55.268H120.949V55.748C120.949 57.68 118.873 59.096 116.653 59.456L116.281 58.664C118.213 58.4 120.097 57.164 120.097 55.748V55.268ZM120.253 55.268H121.105V55.748C121.105 57.14 123.013 58.4 124.921 58.664L124.549 59.456C122.353 59.096 120.253 57.632 120.253 55.748V55.268ZM134.089 55.088H135.085V65.936H134.089V55.088ZM134.845 59.54H136.861V60.38H134.845V59.54ZM126.685 56.816H133.081V57.632H126.685V56.816ZM129.925 58.532C131.461 58.532 132.565 59.564 132.565 61.028C132.565 62.492 131.461 63.524 129.925 63.524C128.401 63.524 127.285 62.492 127.285 61.028C127.285 59.564 128.401 58.532 129.925 58.532ZM129.925 59.36C128.941 59.36 128.233 60.044 128.233 61.028C128.233 62 128.941 62.696 129.925 62.696C130.909 62.696 131.617 62 131.617 61.028C131.617 60.044 130.909 59.36 129.925 59.36ZM129.409 55.22H130.405V57.188H129.409V55.22ZM140.64 56.024H141.456V57.968C141.456 60.464 140.112 62.78 138.336 63.68L137.724 62.864C139.332 62.096 140.64 60.02 140.64 57.968V56.024ZM140.808 56.024H141.624V57.968C141.624 59.948 142.92 61.94 144.528 62.684L143.928 63.476C142.164 62.612 140.808 60.38 140.808 57.968V56.024ZM145.656 55.076H146.652V65.948H145.656V55.076ZM149.339 56.252H150.323V62.612H149.339V56.252ZM149.339 62.324H150.035C151.295 62.324 152.471 62.264 153.839 61.988L153.971 62.84C152.555 63.128 151.343 63.188 150.035 63.188H149.339V62.324ZM157.079 55.088H158.039V65.936H157.079V55.088ZM152.351 58.724H155.063V59.552H152.351V58.724ZM154.787 55.34H155.723V65.384H154.787V55.34ZM162.262 60.668H163.246V63.92H162.262V60.668ZM166.27 60.668H167.266V63.92H166.27V60.668ZM159.862 63.728H169.69V64.556H159.862V63.728ZM164.758 55.772C167.05 55.772 168.694 56.864 168.694 58.568C168.694 60.26 167.05 61.352 164.758 61.352C162.454 61.352 160.81 60.26 160.81 58.568C160.81 56.864 162.454 55.772 164.758 55.772ZM164.758 56.564C163.018 56.564 161.77 57.356 161.77 58.568C161.77 59.768 163.018 60.56 164.758 60.56C166.498 60.56 167.734 59.768 167.734 58.568C167.734 57.356 166.498 56.564 164.758 56.564ZM18.64 83.892H16.72V76.296H20.344C21.296 76.296 21.988 76.512 22.42 76.944C22.86 77.368 23.08 77.996 23.08 78.828C23.08 79.452 22.924 79.988 22.612 80.436C22.3 80.876 21.888 81.152 21.376 81.264L21.364 81.3C21.564 81.428 21.784 81.64 22.024 81.936C22.264 82.232 22.5 82.556 22.732 82.908C22.972 83.252 23.184 83.576 23.368 83.88V83.892H21.136L19.84 81.972C19.728 81.804 19.636 81.684 19.564 81.612C19.5 81.54 19.42 81.496 19.324 81.48C19.236 81.464 19.092 81.456 18.892 81.456H18.64V83.892ZM20.032 77.856H18.64V79.896H20.032C20.432 79.896 20.708 79.816 20.86 79.656C21.02 79.496 21.1 79.236 21.1 78.876C21.1 78.516 21.02 78.256 20.86 78.096C20.708 77.936 20.432 77.856 20.032 77.856ZM26.6744 77.988C27.4424 77.988 28.0624 78.068 28.5344 78.228C29.0064 78.388 29.3504 78.684 29.5664 79.116C29.7904 79.54 29.9024 80.156 29.9024 80.964V83.892H28.1624L28.1024 83.34H28.0664C27.9144 83.54 27.6784 83.7 27.3584 83.82C27.0384 83.94 26.6224 84 26.1104 84C24.7264 84 24.0344 83.352 24.0344 82.056C24.0344 81.504 24.2144 81.072 24.5744 80.76C24.9424 80.44 25.5184 80.28 26.3024 80.28H28.0784C28.0224 79.944 27.8784 79.72 27.6464 79.608C27.4144 79.488 27.0184 79.428 26.4584 79.428C26.1064 79.428 25.7584 79.456 25.4144 79.512C25.0784 79.56 24.7824 79.616 24.5264 79.68L24.4904 79.656L24.5024 78.264C24.6624 78.216 24.8664 78.172 25.1144 78.132C25.3624 78.084 25.6224 78.048 25.8944 78.024C26.1744 78 26.4344 77.988 26.6744 77.988ZM26.6024 82.584C27.0984 82.584 27.4704 82.524 27.7184 82.404C27.9664 82.276 28.0944 82.076 28.1024 81.804V81.504H26.7464C26.3944 81.504 26.1464 81.556 26.0024 81.66C25.8664 81.756 25.7984 81.888 25.7984 82.056C25.7984 82.256 25.8704 82.396 26.0144 82.476C26.1584 82.548 26.3544 82.584 26.6024 82.584ZM36.3055 83.7C36.0815 83.78 35.7695 83.852 35.3695 83.916C34.9775 83.972 34.5095 84 33.9655 84C33.2775 84 32.6895 83.912 32.2015 83.736C31.7215 83.552 31.3575 83.244 31.1095 82.812C30.8615 82.372 30.7375 81.764 30.7375 80.988C30.7375 79.932 30.9775 79.168 31.4575 78.696C31.9455 78.224 32.6975 77.988 33.7135 77.988C34.4415 77.988 35.0135 78.092 35.4295 78.3C35.8535 78.508 36.1535 78.804 36.3295 79.188C36.5135 79.564 36.6055 80.012 36.6055 80.532C36.6055 80.684 36.5975 80.848 36.5815 81.024C36.5735 81.2 36.5535 81.372 36.5215 81.54L36.4735 81.588H32.5255C32.5815 81.94 32.7455 82.172 33.0175 82.284C33.2975 82.396 33.7495 82.452 34.3735 82.452C34.7895 82.452 35.1335 82.444 35.4055 82.428C35.6855 82.404 35.9695 82.372 36.2575 82.332L36.3055 82.368V83.7ZM34.9375 80.328C34.9375 80.136 34.9055 79.972 34.8415 79.836C34.7855 79.692 34.6695 79.584 34.4935 79.512C34.3175 79.432 34.0575 79.392 33.7135 79.392C33.2095 79.392 32.8775 79.48 32.7175 79.656C32.5655 79.824 32.4895 80.048 32.4895 80.328H34.9375ZM41.0319 81.936C41.3839 82.056 41.7679 82.152 42.1839 82.224C42.6079 82.288 43.0279 82.32 43.4439 82.32C44.0119 82.32 44.4319 82.296 44.7039 82.248C44.9839 82.192 45.1679 82.108 45.2559 81.996C45.3439 81.884 45.3879 81.74 45.3879 81.564C45.3879 81.412 45.3559 81.292 45.2919 81.204C45.2279 81.116 45.1039 81.048 44.9199 81C44.7359 80.944 44.4639 80.9 44.1039 80.868L43.3119 80.796C42.7199 80.74 42.2519 80.616 41.9079 80.424C41.5719 80.232 41.3319 79.976 41.1879 79.656C41.0519 79.328 40.9839 78.936 40.9839 78.48C40.9839 77.936 41.0919 77.496 41.3079 77.16C41.5319 76.824 41.8919 76.58 42.3879 76.428C42.8839 76.268 43.5439 76.188 44.3679 76.188C45.4399 76.188 46.3239 76.328 47.0199 76.608L46.9839 78.24L46.9479 78.288C46.1559 78.008 45.3279 77.868 44.4639 77.868C44.0479 77.868 43.7279 77.892 43.5039 77.94C43.2799 77.98 43.1239 78.048 43.0359 78.144C42.9479 78.24 42.9039 78.376 42.9039 78.552C42.9039 78.728 42.9319 78.86 42.9879 78.948C43.0519 79.036 43.1759 79.104 43.3599 79.152C43.5439 79.192 43.8119 79.232 44.1639 79.272L44.9199 79.356C45.5599 79.428 46.0519 79.556 46.3959 79.74C46.7399 79.924 46.9759 80.172 47.1039 80.484C47.2399 80.788 47.3079 81.16 47.3079 81.6C47.3079 82.136 47.1919 82.584 46.9599 82.944C46.7359 83.296 46.3679 83.56 45.8559 83.736C45.3439 83.912 44.6599 84 43.8039 84C43.2439 84 42.7399 83.972 42.2919 83.916C41.8439 83.852 41.4079 83.768 40.9839 83.664V81.972L41.0319 81.936ZM50.433 83.892H48.513V78.048H50.073L50.229 79.248H50.265C50.337 78.8 50.509 78.48 50.781 78.288C51.053 78.088 51.457 77.988 51.993 77.988C52.209 77.988 52.405 78 52.581 78.024C52.757 78.04 52.905 78.056 53.025 78.072V79.944L53.001 79.968C52.873 79.936 52.725 79.908 52.557 79.884C52.397 79.86 52.213 79.848 52.005 79.848C51.709 79.848 51.441 79.896 51.201 79.992C50.969 80.088 50.785 80.276 50.649 80.556C50.521 80.828 50.457 81.236 50.457 81.78L50.433 83.892ZM59.0164 83.7C58.7924 83.78 58.4804 83.852 58.0804 83.916C57.6884 83.972 57.2204 84 56.6764 84C55.9884 84 55.4004 83.912 54.9124 83.736C54.4324 83.552 54.0684 83.244 53.8204 82.812C53.5724 82.372 53.4484 81.764 53.4484 80.988C53.4484 79.932 53.6884 79.168 54.1684 78.696C54.6564 78.224 55.4084 77.988 56.4244 77.988C57.1524 77.988 57.7244 78.092 58.1404 78.3C58.5644 78.508 58.8644 78.804 59.0404 79.188C59.2244 79.564 59.3164 80.012 59.3164 80.532C59.3164 80.684 59.3084 80.848 59.2924 81.024C59.2844 81.2 59.2644 81.372 59.2324 81.54L59.1844 81.588H55.2364C55.2924 81.94 55.4564 82.172 55.7284 82.284C56.0084 82.396 56.4604 82.452 57.0844 82.452C57.5004 82.452 57.8444 82.444 58.1164 82.428C58.3964 82.404 58.6804 82.372 58.9684 82.332L59.0164 82.368V83.7ZM57.6484 80.328C57.6484 80.136 57.6164 79.972 57.5524 79.836C57.4964 79.692 57.3804 79.584 57.2044 79.512C57.0284 79.432 56.7684 79.392 56.4244 79.392C55.9204 79.392 55.5884 79.48 55.4284 79.656C55.2764 79.824 55.2004 80.048 55.2004 80.328H57.6484ZM67.5972 77.988C68.1892 77.988 68.6572 78.184 69.0012 78.576C69.3532 78.968 69.5292 79.648 69.5292 80.616V83.892H67.6092L67.5972 80.856C67.5972 80.464 67.5372 80.18 67.4172 80.004C67.3052 79.828 67.0812 79.74 66.7452 79.74C66.4092 79.74 66.1812 79.828 66.0612 80.004C65.9492 80.18 65.8932 80.464 65.8932 80.856V83.892H63.9732L63.9612 80.856C63.9612 80.464 63.9012 80.18 63.7812 80.004C63.6692 79.828 63.4452 79.74 63.1092 79.74C62.7732 79.74 62.5452 79.828 62.4252 80.004C62.3132 80.18 62.2572 80.464 62.2572 80.856V83.892H60.3372V78.048H62.1612L62.2572 79.116H62.2932C62.3972 78.764 62.5772 78.488 62.8332 78.288C63.0972 78.088 63.4692 77.988 63.9492 77.988C64.4292 77.988 64.8052 78.088 65.0772 78.288C65.3572 78.488 65.5372 78.764 65.6172 79.116H65.6532C65.7572 78.756 65.9572 78.48 66.2532 78.288C66.5572 78.088 67.0052 77.988 67.5972 77.988ZM78.1089 77.988C78.7009 77.988 79.1689 78.184 79.5129 78.576C79.8649 78.968 80.0409 79.648 80.0409 80.616V83.892H78.1209L78.1089 80.856C78.1089 80.464 78.0489 80.18 77.9289 80.004C77.8169 79.828 77.5929 79.74 77.2569 79.74C76.9209 79.74 76.6929 79.828 76.5729 80.004C76.4609 80.18 76.4049 80.464 76.4049 80.856V83.892H74.4849L74.4729 80.856C74.4729 80.464 74.4129 80.18 74.2929 80.004C74.1809 79.828 73.9569 79.74 73.6209 79.74C73.2849 79.74 73.0569 79.828 72.9369 80.004C72.8249 80.18 72.7689 80.464 72.7689 80.856V83.892H70.8489V78.048H72.6729L72.7689 79.116H72.8049C72.9089 78.764 73.0889 78.488 73.3449 78.288C73.6089 78.088 73.9809 77.988 74.4609 77.988C74.9409 77.988 75.3169 78.088 75.5889 78.288C75.8689 78.488 76.0489 78.764 76.1289 79.116H76.1649C76.2689 78.756 76.4689 78.48 76.7649 78.288C77.0689 78.088 77.5169 77.988 78.1089 77.988ZM83.2806 84C82.5446 84 82.0206 83.804 81.7086 83.412C81.3966 83.02 81.2406 82.46 81.2406 81.732V78.048H83.1606L83.1726 81.264C83.1726 81.624 83.2366 81.88 83.3646 82.032C83.4926 82.176 83.7526 82.248 84.1446 82.248C84.5206 82.248 84.7726 82.184 84.9006 82.056C85.0366 81.92 85.1086 81.692 85.1166 81.372V78.048H87.0366V83.892H85.2126L85.1166 83.232H85.0806C84.9766 83.464 84.7646 83.652 84.4446 83.796C84.1246 83.932 83.7366 84 83.2806 84ZM90.3939 83.892H88.4739V78.048H90.0339L90.1899 79.248H90.2259C90.2979 78.8 90.4699 78.48 90.7419 78.288C91.0139 78.088 91.4179 77.988 91.9539 77.988C92.1699 77.988 92.3659 78 92.5419 78.024C92.7179 78.04 92.8659 78.056 92.9859 78.072V79.944L92.9619 79.968C92.8339 79.936 92.6859 79.908 92.5179 79.884C92.3579 79.86 92.1739 79.848 91.9659 79.848C91.6699 79.848 91.4019 79.896 91.1619 79.992C90.9299 80.088 90.7459 80.276 90.6099 80.556C90.4819 80.828 90.4179 81.236 90.4179 81.78L90.3939 83.892ZM97.4774 83.892L97.4054 83.04H97.3574C97.2214 83.36 97.0254 83.6 96.7694 83.76C96.5214 83.92 96.1574 84 95.6774 84C94.9014 84 94.3334 83.776 93.9734 83.328C93.6134 82.872 93.4254 82.188 93.4094 81.276C93.4014 80.46 93.4854 79.812 93.6614 79.332C93.8374 78.852 94.1134 78.508 94.4894 78.3C94.8654 78.092 95.3454 77.988 95.9294 77.988C96.2334 77.988 96.5094 78.016 96.7574 78.072C97.0054 78.12 97.2054 78.188 97.3574 78.276L97.3814 78.264V75.816H99.3014V83.892H97.4774ZM96.3014 82.368C96.6214 82.368 96.8814 82.268 97.0814 82.068C97.2814 81.868 97.3814 81.536 97.3814 81.072V79.812C97.0854 79.692 96.7374 79.632 96.3374 79.632C95.9614 79.632 95.6894 79.724 95.5214 79.908C95.3614 80.084 95.2814 80.444 95.2814 80.988C95.2814 81.452 95.3454 81.8 95.4734 82.032C95.6094 82.256 95.8854 82.368 96.3014 82.368ZM112.153 74.076H113.137V84.948H112.153V74.076ZM109.813 78.036H112.441V78.852H109.813V78.036ZM106.969 75.636H107.773V77.256C107.773 79.596 106.429 81.912 104.713 82.8L104.125 82.008C105.685 81.24 106.969 79.188 106.969 77.256V75.636ZM107.173 75.636H107.965V77.256C107.965 79.068 109.225 81.048 110.797 81.792L110.209 82.572C108.493 81.72 107.173 79.488 107.173 77.256V75.636ZM104.521 75.192H110.425V76.02H104.521V75.192ZM116.496 79.152H123.948V79.968H116.496V79.152ZM115.26 82.74H125.088V83.58H115.26V82.74ZM119.652 79.5H120.648V83.076H119.652V79.5ZM116.496 74.952H123.84V75.768H117.492V79.512H116.496V74.952ZM134.289 77.304H135.273V78.96H134.289V77.304ZM134.145 74.748H135.021V75.084C135.021 76.716 133.005 77.76 130.725 77.976L130.401 77.22C132.357 77.064 134.145 76.224 134.145 75.084V74.748ZM134.577 74.748H135.441V75.084C135.441 76.212 137.229 77.064 139.185 77.22L138.861 77.976C136.593 77.76 134.577 76.716 134.577 75.084V74.748ZM130.785 74.424H138.813V75.204H130.785V74.424ZM130.797 80.82H138.789V81.612H130.797V80.82ZM129.885 78.588H139.725V79.392H129.885V78.588ZM134.793 82.14C136.881 82.14 138.045 82.632 138.045 83.568C138.045 84.516 136.881 84.996 134.793 84.996C132.705 84.996 131.529 84.516 131.529 83.568C131.529 82.632 132.705 82.14 134.793 82.14ZM134.793 82.824C133.353 82.824 132.549 83.076 132.549 83.568C132.549 84.06 133.353 84.312 134.793 84.312C136.221 84.312 137.037 84.06 137.037 83.568C137.037 83.076 136.221 82.824 134.793 82.824ZM134.301 79.824H135.285V81.324H134.301V79.824ZM143.816 74.916C145.412 74.916 146.54 76.392 146.54 78.696C146.54 81.012 145.412 82.488 143.816 82.488C142.22 82.488 141.092 81.012 141.092 78.696C141.092 76.392 142.22 74.916 143.816 74.916ZM143.816 75.816C142.76 75.816 142.04 76.944 142.04 78.696C142.04 80.46 142.76 81.612 143.816 81.612C144.86 81.612 145.592 80.46 145.592 78.696C145.592 76.944 144.86 75.816 143.816 75.816ZM148.268 74.088H149.276V84.936H148.268V74.088ZM149.036 78.42H151.052V79.26H149.036V78.42ZM151.951 75.936H157.327V76.752H151.951V75.936ZM154.639 77.472C155.995 77.472 156.979 78.492 156.979 79.956C156.979 81.408 155.995 82.428 154.639 82.428C153.295 82.428 152.311 81.408 152.311 79.956C152.311 78.492 153.295 77.472 154.639 77.472ZM154.639 78.324C153.811 78.324 153.211 78.996 153.211 79.956C153.211 80.916 153.811 81.588 154.639 81.588C155.479 81.588 156.091 80.916 156.091 79.956C156.091 78.996 155.479 78.324 154.639 78.324ZM160.195 74.088H161.155V84.936H160.195V74.088ZM158.467 78.648H160.519V79.476H158.467V78.648ZM157.879 74.328H158.815V84.408H157.879V74.328ZM154.159 74.4H155.143V76.44H154.159V74.4ZM165.414 79.668H166.398V82.92H165.414V79.668ZM169.422 79.668H170.418V82.92H169.422V79.668ZM163.014 82.728H172.842V83.556H163.014V82.728ZM167.91 74.772C170.202 74.772 171.846 75.864 171.846 77.568C171.846 79.26 170.202 80.352 167.91 80.352C165.606 80.352 163.962 79.26 163.962 77.568C163.962 75.864 165.606 74.772 167.91 74.772ZM167.91 75.564C166.17 75.564 164.922 76.356 164.922 77.568C164.922 78.768 166.17 79.56 167.91 79.56C169.65 79.56 170.886 78.768 170.886 77.568C170.886 76.356 169.65 75.564 167.91 75.564ZM174.653 81.864L174.293 79.248V76.296H176.069V79.248L175.709 81.864H174.653ZM176.021 82.764C176.037 82.884 176.045 82.992 176.045 83.088C176.053 83.176 176.057 83.264 176.057 83.352C176.057 83.504 176.045 83.696 176.021 83.928C175.877 83.952 175.737 83.972 175.601 83.988C175.465 84.004 175.329 84.012 175.193 84.012C175.065 84.012 174.933 84.004 174.797 83.988C174.669 83.972 174.537 83.952 174.401 83.928C174.385 83.816 174.373 83.716 174.365 83.628C174.357 83.532 174.353 83.44 174.353 83.352C174.353 83.272 174.357 83.184 174.365 83.088C174.373 82.992 174.385 82.884 174.401 82.764C174.665 82.716 174.937 82.692 175.217 82.692C175.481 82.692 175.749 82.716 176.021 82.764ZM19.6 98.512H20.608V100.984H19.6V98.512ZM20.116 93.784C21.808 93.784 23.02 94.828 23.02 96.34C23.02 97.852 21.808 98.896 20.116 98.896C18.424 98.896 17.2 97.852 17.2 96.34C17.2 94.828 18.424 93.784 20.116 93.784ZM20.116 94.648C18.988 94.648 18.172 95.332 18.172 96.34C18.172 97.348 18.988 98.044 20.116 98.044C21.232 98.044 22.048 97.348 22.048 96.34C22.048 95.332 21.232 94.648 20.116 94.648ZM24.436 93.076H25.432V103.948H24.436V93.076ZM16.792 101.596L16.648 100.768C18.628 100.768 21.364 100.756 23.728 100.384L23.812 101.116C21.376 101.584 18.724 101.596 16.792 101.596ZM35.5231 93.088H36.5311V99.364H35.5231V93.088ZM29.5351 99.868H30.5191V101.02H35.5471V99.868H36.5311V103.792H29.5351V99.868ZM30.5191 101.8V102.988H35.5471V101.8H30.5191ZM27.7951 94.252H34.3831V95.056H27.7951V94.252ZM31.0831 95.572C32.6911 95.572 33.7351 96.292 33.7351 97.432C33.7351 98.584 32.6911 99.292 31.0831 99.292C29.4871 99.292 28.4431 98.584 28.4431 97.432C28.4431 96.292 29.4871 95.572 31.0831 95.572ZM31.0831 96.328C30.0631 96.328 29.3791 96.748 29.3791 97.432C29.3791 98.116 30.0631 98.548 31.0831 98.548C32.1151 98.548 32.7871 98.116 32.7871 97.432C32.7871 96.748 32.1151 96.328 31.0831 96.328ZM30.5911 92.992H31.5871V94.84H30.5911V92.992ZM46.6678 96.304H47.6518V97.96H46.6678V96.304ZM46.5238 93.748H47.3998V94.084C47.3998 95.716 45.3838 96.76 43.1038 96.976L42.7798 96.22C44.7358 96.064 46.5238 95.224 46.5238 94.084V93.748ZM46.9558 93.748H47.8198V94.084C47.8198 95.212 49.6078 96.064 51.5638 96.22L51.2398 96.976C48.9718 96.76 46.9558 95.716 46.9558 94.084V93.748ZM43.1638 93.424H51.1918V94.204H43.1638V93.424ZM43.1758 99.82H51.1678V100.612H43.1758V99.82ZM42.2638 97.588H52.1038V98.392H42.2638V97.588ZM47.1718 101.14C49.2598 101.14 50.4238 101.632 50.4238 102.568C50.4238 103.516 49.2598 103.996 47.1718 103.996C45.0838 103.996 43.9078 103.516 43.9078 102.568C43.9078 101.632 45.0838 101.14 47.1718 101.14ZM47.1718 101.824C45.7318 101.824 44.9278 102.076 44.9278 102.568C44.9278 103.06 45.7318 103.312 47.1718 103.312C48.5998 103.312 49.4158 103.06 49.4158 102.568C49.4158 102.076 48.5998 101.824 47.1718 101.824ZM46.6798 98.824H47.6638V100.324H46.6798V98.824ZM56.1948 93.916C57.7908 93.916 58.9188 95.392 58.9188 97.696C58.9188 100.012 57.7908 101.488 56.1948 101.488C54.5988 101.488 53.4708 100.012 53.4708 97.696C53.4708 95.392 54.5988 93.916 56.1948 93.916ZM56.1948 94.816C55.1388 94.816 54.4188 95.944 54.4188 97.696C54.4188 99.46 55.1388 100.612 56.1948 100.612C57.2388 100.612 57.9708 99.46 57.9708 97.696C57.9708 95.944 57.2388 94.816 56.1948 94.816ZM60.6468 93.088H61.6548V103.936H60.6468V93.088ZM61.4148 97.42H63.4308V98.26H61.4148V97.42ZM71.6979 93.088H72.6939V103.936H71.6979V93.088ZM72.4539 97.54H74.4699V98.38H72.4539V97.54ZM64.2939 94.816H70.6899V95.632H64.2939V94.816ZM67.5339 96.532C69.0699 96.532 70.1739 97.564 70.1739 99.028C70.1739 100.492 69.0699 101.524 67.5339 101.524C66.0099 101.524 64.8939 100.492 64.8939 99.028C64.8939 97.564 66.0099 96.532 67.5339 96.532ZM67.5339 97.36C66.5499 97.36 65.8419 98.044 65.8419 99.028C65.8419 100 66.5499 100.696 67.5339 100.696C68.5179 100.696 69.2259 100 69.2259 99.028C69.2259 98.044 68.5179 97.36 67.5339 97.36ZM67.0179 93.22H68.0139V95.188H67.0179V93.22ZM78.249 94.024H79.065V95.968C79.065 98.464 77.721 100.78 75.945 101.68L75.333 100.864C76.941 100.096 78.249 98.02 78.249 95.968V94.024ZM78.417 94.024H79.233V95.968C79.233 97.948 80.529 99.94 82.137 100.684L81.537 101.476C79.773 100.612 78.417 98.38 78.417 95.968V94.024ZM83.265 93.076H84.261V103.948H83.265V93.076ZM87.752 96.34H95.12V97.156H87.752V96.34ZM86.42 98.608H96.26V99.424H86.42V98.608ZM87.752 93.484H88.736V96.748H87.752V93.484ZM87.68 102.856H95.18V103.672H87.68V102.856ZM87.68 100.504H88.664V103.072H87.68V100.504ZM108.989 93.088H109.985V100.432H108.989V93.088ZM106.661 96.148H109.193V96.964H106.661V96.148ZM105.581 93.94H106.625C106.625 96.748 104.777 98.74 101.669 99.748L101.249 98.956C103.997 98.092 105.581 96.46 105.581 94.336V93.94ZM101.765 93.94H106.289V94.756H101.765V93.94ZM105.989 99.496H106.841V99.988C106.841 102.064 104.945 103.468 102.773 103.912L102.377 103.12C104.297 102.772 105.989 101.572 105.989 99.988V99.496ZM106.133 99.496H106.985V99.988C106.985 101.548 108.653 102.748 110.585 103.096L110.165 103.888C108.005 103.456 106.133 102.052 106.133 99.988V99.496ZM123.121 93.088H124.117V98.884H123.121V93.088ZM123.841 95.596H125.725V96.424H123.841V95.596ZM120.121 93.844H121.225C121.225 96.58 119.317 98.356 116.137 99.088L115.741 98.284C118.597 97.648 120.121 96.196 120.121 94.384V93.844ZM116.185 93.844H120.697V94.66H116.185V93.844ZM117.289 99.376H124.177V100.132H118.273V103.42H117.289V99.376ZM117.289 103.036H124.417V103.792H117.289V103.036ZM117.937 101.188H124.045V101.92H117.937V101.188ZM126.733 98.788H136.537V99.604H126.733V98.788ZM128.005 102.88H135.457V103.696H128.005V102.88ZM128.005 100.552H129.001V103.132H128.005V100.552ZM131.641 93.448C133.957 93.448 135.457 94.264 135.457 95.62C135.457 96.964 133.957 97.78 131.641 97.78C129.313 97.78 127.825 96.964 127.825 95.62C127.825 94.264 129.313 93.448 131.641 93.448ZM131.641 94.264C129.937 94.264 128.845 94.768 128.845 95.62C128.845 96.472 129.937 96.976 131.641 96.976C133.345 96.976 134.437 96.472 134.437 95.62C134.437 94.768 133.345 94.264 131.641 94.264ZM146.028 93.088H146.988V103.936H146.028V93.088ZM141.528 97.228H144.252V98.044H141.528V97.228ZM143.844 93.34H144.792V103.384H143.844V93.34ZM138.18 100.492H138.876C140.568 100.492 141.588 100.444 142.788 100.192L142.884 101.02C141.648 101.284 140.604 101.332 138.876 101.332H138.18V100.492ZM138.18 94.408H142.26V95.224H139.164V100.816H138.18V94.408ZM21.496 112.328C23.836 112.328 25.312 113.096 25.312 114.38C25.312 115.664 23.836 116.42 21.496 116.42C19.144 116.42 17.68 115.664 17.68 114.38C17.68 113.096 19.144 112.328 21.496 112.328ZM21.496 113.12C19.768 113.12 18.7 113.576 18.7 114.38C18.7 115.172 19.768 115.64 21.496 115.64C23.212 115.64 24.292 115.172 24.292 114.38C24.292 113.576 23.212 113.12 21.496 113.12ZM17.788 119.216H25.192V122.792H17.788V119.216ZM24.22 120.02H18.772V121.988H24.22V120.02ZM16.588 117.356H26.392V118.16H16.588V117.356ZM30.6631 112.724C32.2951 112.724 33.4951 113.78 33.4951 115.304C33.4951 116.816 32.2951 117.86 30.6631 117.86C29.0311 117.86 27.8311 116.816 27.8311 115.304C27.8311 113.78 29.0311 112.724 30.6631 112.724ZM30.6631 113.576C29.5831 113.576 28.8031 114.272 28.8031 115.304C28.8031 116.324 29.5831 117.032 30.6631 117.032C31.7431 117.032 32.5231 116.324 32.5231 115.304C32.5231 114.272 31.7431 113.576 30.6631 113.576ZM35.0551 112.088H36.0511V118.472H35.0551V112.088ZM35.7751 114.872H37.6591V115.712H35.7751V114.872ZM29.0071 119.036H36.0511V122.948H35.0551V119.84H29.0071V119.036ZM50.1478 112.076H51.1438V122.948H50.1478V112.076ZM45.4198 112.916C47.0278 112.916 48.1798 114.392 48.1798 116.696C48.1798 119.012 47.0278 120.488 45.4198 120.488C43.8238 120.488 42.6718 119.012 42.6718 116.696C42.6718 114.392 43.8238 112.916 45.4198 112.916ZM45.4198 113.816C44.3638 113.816 43.6198 114.944 43.6198 116.696C43.6198 118.46 44.3638 119.612 45.4198 119.612C46.4878 119.612 47.2198 118.46 47.2198 116.696C47.2198 114.944 46.4878 113.816 45.4198 113.816ZM56.1948 112.916C57.7908 112.916 58.9188 114.392 58.9188 116.696C58.9188 119.012 57.7908 120.488 56.1948 120.488C54.5988 120.488 53.4708 119.012 53.4708 116.696C53.4708 114.392 54.5988 112.916 56.1948 112.916ZM56.1948 113.816C55.1388 113.816 54.4188 114.944 54.4188 116.696C54.4188 118.46 55.1388 119.612 56.1948 119.612C57.2388 119.612 57.9708 118.46 57.9708 116.696C57.9708 114.944 57.2388 113.816 56.1948 113.816ZM61.3788 114.812H63.3708V115.652H61.3788V114.812ZM61.3788 118.04H63.3708V118.88H61.3788V118.04ZM60.6468 112.088H61.6548V122.936H60.6468V112.088ZM72.2499 112.088H73.2459V122.936H72.2499V112.088ZM69.0699 113.252H70.0539C70.0539 116.396 68.6379 119.144 65.0139 120.92L64.4859 120.116C67.6179 118.604 69.0699 116.3 69.0699 113.42V113.252ZM64.9779 113.252H69.5019V114.068H64.9779V113.252ZM86.4066 112.088H87.4026V117.884H86.4066V112.088ZM87.1266 114.596H89.0106V115.424H87.1266V114.596ZM83.4066 112.844H84.5106C84.5106 115.58 82.6026 117.356 79.4226 118.088L79.0266 117.284C81.8826 116.648 83.4066 115.196 83.4066 113.384V112.844ZM79.4706 112.844H83.9826V113.66H79.4706V112.844ZM80.5746 118.376H87.4626V119.132H81.5586V122.42H80.5746V118.376ZM80.5746 122.036H87.7026V122.792H80.5746V122.036ZM81.2226 120.188H87.3306V120.92H81.2226V120.188ZM97.9017 112.076H98.8977V122.948H97.9017V112.076ZM93.1737 112.916C94.7817 112.916 95.9337 114.392 95.9337 116.696C95.9337 119.012 94.7817 120.488 93.1737 120.488C91.5777 120.488 90.4257 119.012 90.4257 116.696C90.4257 114.392 91.5777 112.916 93.1737 112.916ZM93.1737 113.816C92.1177 113.816 91.3737 114.944 91.3737 116.696C91.3737 118.46 92.1177 119.612 93.1737 119.612C94.2417 119.612 94.9737 118.46 94.9737 116.696C94.9737 114.944 94.2417 113.816 93.1737 113.816ZM112.85 112.1H113.798V118.808H112.85V112.1ZM111.086 115.064H113.138V115.88H111.086V115.064ZM110.546 112.256H111.494V118.652H110.546V112.256ZM104.606 113.324H110.102V114.116H104.606V113.324ZM107.366 114.656C108.722 114.656 109.67 115.388 109.67 116.516C109.67 117.644 108.722 118.376 107.366 118.376C105.998 118.376 105.05 117.644 105.05 116.516C105.05 115.388 105.998 114.656 107.366 114.656ZM107.366 115.412C106.514 115.412 105.938 115.844 105.938 116.516C105.938 117.188 106.514 117.632 107.366 117.632C108.206 117.632 108.782 117.188 108.782 116.516C108.782 115.844 108.206 115.412 107.366 115.412ZM106.874 112.136H107.846V113.792H106.874V112.136ZM107.522 119.132H108.29V119.504C108.29 120.872 107.39 122.24 105.818 122.804L105.35 122.06C106.706 121.604 107.522 120.488 107.522 119.504V119.132ZM107.75 119.132H108.482V119.504C108.482 120.548 109.118 121.652 110.414 122.144L109.994 122.9C108.446 122.324 107.75 120.884 107.75 119.504V119.132ZM111.506 119.132H112.238V119.504C112.238 120.728 111.53 122.276 109.994 122.9L109.586 122.144C110.846 121.592 111.506 120.404 111.506 119.504V119.132ZM111.71 119.132H112.478V119.504C112.478 120.56 113.294 121.628 114.662 122.06L114.182 122.804C112.598 122.264 111.71 120.944 111.71 119.504V119.132ZM120.601 112.772C122.857 112.772 124.537 113.972 124.537 115.772C124.537 117.584 122.857 118.772 120.601 118.772C118.345 118.772 116.653 117.584 116.653 115.772C116.653 113.972 118.345 112.772 120.601 112.772ZM120.601 113.588C118.885 113.588 117.613 114.464 117.613 115.772C117.613 117.068 118.885 117.956 120.601 117.956C122.317 117.956 123.589 117.068 123.589 115.772C123.589 114.464 122.317 113.588 120.601 113.588ZM115.705 120.668H125.533V121.508H115.705V120.668ZM131.941 113.996H134.977V114.812H131.941V113.996ZM131.941 116.312H135.001V117.14H131.941V116.312ZM127.237 113.024H132.193V118.112H127.237V113.024ZM131.209 113.828H128.209V117.308H131.209V113.828ZM134.665 112.1H135.661V120.02H134.665V112.1ZM128.689 121.88H135.925V122.696H128.689V121.88ZM128.689 119.3H129.685V122.252H128.689V119.3ZM145.773 115.304H146.757V116.96H145.773V115.304ZM145.629 112.748H146.505V113.084C146.505 114.716 144.489 115.76 142.209 115.976L141.885 115.22C143.841 115.064 145.629 114.224 145.629 113.084V112.748ZM146.061 112.748H146.925V113.084C146.925 114.212 148.713 115.064 150.669 115.22L150.345 115.976C148.077 115.76 146.061 114.716 146.061 113.084V112.748ZM142.269 112.424H150.297V113.204H142.269V112.424ZM142.281 118.82H150.273V119.612H142.281V118.82ZM141.369 116.588H151.209V117.392H141.369V116.588ZM146.277 120.14C148.365 120.14 149.529 120.632 149.529 121.568C149.529 122.516 148.365 122.996 146.277 122.996C144.189 122.996 143.013 122.516 143.013 121.568C143.013 120.632 144.189 120.14 146.277 120.14ZM146.277 120.824C144.837 120.824 144.033 121.076 144.033 121.568C144.033 122.06 144.837 122.312 146.277 122.312C147.705 122.312 148.521 122.06 148.521 121.568C148.521 121.076 147.705 120.824 146.277 120.824ZM145.785 117.824H146.769V119.324H145.785V117.824ZM156.176 112.88H157.172C157.172 115.472 155.732 117.416 153.02 118.568L152.516 117.836C154.904 116.852 156.176 115.256 156.176 113.204V112.88ZM152.984 112.88H156.56V113.708H152.984V112.88ZM160.604 112.088H161.552V118.352H160.604V112.088ZM156.056 115.172H158.672V115.976H156.056V115.172ZM158.456 112.316H159.392V118.184H158.456V112.316ZM155.228 118.724H155.996V119.432C155.996 120.86 155.096 122.3 153.536 122.9L153.044 122.156C154.4 121.664 155.228 120.488 155.228 119.432V118.724ZM155.444 118.724H156.188V119.432C156.188 120.536 156.824 121.7 158.132 122.252L157.712 122.996C156.14 122.372 155.444 120.884 155.444 119.432V118.724ZM159.212 118.724H159.956V119.432C159.956 120.716 159.248 122.336 157.712 122.996L157.268 122.252C158.576 121.652 159.212 120.368 159.212 119.432V118.724ZM159.416 118.724H160.184V119.432C160.184 120.572 161 121.7 162.368 122.156L161.876 122.9C160.304 122.324 159.416 120.944 159.416 119.432V118.724ZM166.351 112.916C167.923 112.916 169.051 114.392 169.051 116.696C169.051 119.012 167.923 120.488 166.351 120.488C164.767 120.488 163.651 119.012 163.651 116.696C163.651 114.392 164.767 112.916 166.351 112.916ZM166.351 113.816C165.307 113.816 164.599 114.944 164.599 116.696C164.599 118.46 165.307 119.612 166.351 119.612C167.395 119.612 168.103 118.46 168.103 116.696C168.103 114.944 167.395 113.816 166.351 113.816ZM171.403 112.076H172.387V122.948H171.403V112.076ZM168.727 116.216H171.835V117.032H168.727V116.216ZM176.898 117.668H177.882V120.92H176.898V117.668ZM180.906 117.668H181.902V120.92H180.906V117.668ZM174.498 120.728H184.326V121.556H174.498V120.728ZM179.394 112.772C181.686 112.772 183.33 113.864 183.33 115.568C183.33 117.26 181.686 118.352 179.394 118.352C177.09 118.352 175.446 117.26 175.446 115.568C175.446 113.864 177.09 112.772 179.394 112.772ZM179.394 113.564C177.654 113.564 176.406 114.356 176.406 115.568C176.406 116.768 177.654 117.56 179.394 117.56C181.134 117.56 182.37 116.768 182.37 115.568C182.37 114.356 181.134 113.564 179.394 113.564ZM186.138 119.864L185.778 117.248V114.296H187.554V117.248L187.194 119.864H186.138ZM187.506 120.764C187.522 120.884 187.53 120.992 187.53 121.088C187.538 121.176 187.542 121.264 187.542 121.352C187.542 121.504 187.53 121.696 187.506 121.928C187.362 121.952 187.222 121.972 187.086 121.988C186.95 122.004 186.814 122.012 186.678 122.012C186.55 122.012 186.418 122.004 186.282 121.988C186.154 121.972 186.022 121.952 185.886 121.928C185.87 121.816 185.858 121.716 185.85 121.628C185.842 121.532 185.838 121.44 185.838 121.352C185.838 121.272 185.842 121.184 185.85 121.088C185.858 120.992 185.87 120.884 185.886 120.764C186.15 120.716 186.422 120.692 186.701 120.692C186.966 120.692 187.234 120.716 187.506 120.764Z" fill="#2F2F2F"/>
</g>
<rect x="10.8" y="30.3" width="378.4" height="96.4" rx="7.7" stroke="#0A0A0A" stroke-width="0.6"/>
<path d="M21.888 17.172H22.812V19.328H21.888V17.172ZM21.888 13.674H22.625V13.894C22.625 15.632 21.492 16.974 19.82 17.502L19.402 16.787C20.876 16.347 21.888 15.236 21.888 13.894V13.674ZM22.064 13.674H22.801V13.894C22.801 15.181 23.846 16.259 25.309 16.688L24.891 17.392C23.219 16.897 22.064 15.577 22.064 13.894V13.674ZM19.633 13.212H25.1V13.949H19.633V13.212ZM21.888 11.98H22.812V13.531H21.888V11.98ZM26.233 11.903H27.146V21.869H26.233V11.903ZM19.226 19.823L19.094 19.053C20.909 19.053 23.417 19.042 25.584 18.712L25.661 19.383C23.428 19.801 20.997 19.812 19.226 19.823ZM34.1301 15.28H36.9021V16.028H34.1301V15.28ZM31.7321 12.772H32.4801V14.543C32.4801 16.776 31.3031 18.91 29.7301 19.757L29.1471 19.031C30.6101 18.305 31.7321 16.391 31.7321 14.543V12.772ZM31.9081 12.772H32.6451V14.543C32.6451 16.358 33.7671 18.162 35.2081 18.844L34.6691 19.581C33.0631 18.767 31.9081 16.721 31.9081 14.543V12.772ZM36.4511 11.903H37.3531V21.869H36.4511V11.903ZM43.7763 12.156C45.8773 12.156 47.2633 12.926 47.2633 14.147C47.2633 15.379 45.8773 16.138 43.7763 16.138C41.6643 16.138 40.2893 15.379 40.2893 14.147C40.2893 12.926 41.6643 12.156 43.7763 12.156ZM43.7763 12.904C42.2583 12.904 41.2573 13.388 41.2573 14.147C41.2573 14.917 42.2583 15.39 43.7763 15.39C45.2943 15.39 46.2953 14.917 46.2953 14.147C46.2953 13.388 45.2943 12.904 43.7763 12.904ZM39.2883 16.886H48.2753V17.634H39.2883V16.886ZM40.3773 20.89H47.3513V21.638H40.3773V20.89ZM40.3773 18.855H41.2903V21.264H40.3773V18.855ZM42.4233 17.205H43.3253V19.691H42.4233V17.205ZM45.0743 17.205H45.9873V19.702H45.0743V17.205Z" fill="#474747"/>
<g opacity="0.7" clip-path="url(#clip1_36_33)">
<rect x="53.4992" y="12.5" width="0.8" height="10" fill="#9D9D9D"/>
</g>
<path opacity="0.7" d="M58.762 16.083V14.642C59.0187 14.4807 59.356 14.3487 59.774 14.246C60.192 14.1433 60.6467 14.092 61.138 14.092C61.9227 14.092 62.5497 14.246 63.019 14.554C63.4957 14.862 63.734 15.3827 63.734 16.116C63.734 16.6953 63.5983 17.161 63.327 17.513C63.063 17.8577 62.5937 18.1583 61.919 18.415C61.2663 18.6643 60.8153 18.877 60.566 19.053C60.324 19.2217 60.203 19.3903 60.203 19.559H63.789V20.956H58.575V19.724C58.575 19.35 58.6373 19.031 58.762 18.767C58.894 18.503 59.1177 18.261 59.433 18.041C59.7483 17.821 60.1847 17.5937 60.742 17.359C61.16 17.183 61.4863 17.0143 61.721 16.853C61.963 16.6843 62.0803 16.4827 62.073 16.248C62.0657 15.9693 61.9593 15.775 61.754 15.665C61.556 15.5477 61.2737 15.489 60.907 15.489C60.555 15.489 60.1957 15.5513 59.829 15.676C59.4623 15.7933 59.1397 15.929 58.861 16.083H58.762ZM64.5871 18.085V14.202H69.3611V15.621H66.1051V16.699L66.1271 16.732H67.3041C68.1108 16.732 68.6974 16.897 69.0641 17.227C69.4308 17.557 69.6141 18.0813 69.6141 18.8C69.6141 19.5627 69.3758 20.12 68.8991 20.472C68.4224 20.824 67.6818 21 66.6771 21C66.2004 21 65.7678 20.978 65.3791 20.934C64.9904 20.8827 64.6421 20.8203 64.3341 20.747V19.405L64.3561 19.383C64.5174 19.427 64.7081 19.4637 64.9281 19.493C65.1554 19.5223 65.3864 19.548 65.6211 19.57C65.8558 19.5847 66.0684 19.592 66.2591 19.592C66.7138 19.592 67.0621 19.57 67.3041 19.526C67.5461 19.482 67.7111 19.405 67.7991 19.295C67.8944 19.1777 67.9421 19.0163 67.9421 18.811C67.9421 18.5543 67.8798 18.371 67.7551 18.261C67.6378 18.1437 67.3994 18.085 67.0401 18.085H64.5871ZM74.3568 15.467H76.2598V16.226H74.3568V15.467ZM72.4978 12.849H73.2128V14.741C73.2128 16.82 72.3438 18.833 70.8918 19.724L70.3198 19.031C71.6838 18.228 72.4978 16.446 72.4978 14.741V12.849ZM72.6738 12.849H73.3778V14.708C73.3778 16.303 74.1258 17.997 75.4348 18.789L74.9068 19.504C73.4768 18.624 72.6738 16.644 72.6738 14.708V12.849ZM78.0088 11.914H78.8888V21.858H78.0088V11.914ZM75.9958 12.123H76.8538V21.363H75.9958V12.123Z" fill="#9D9D9D"/>
<g opacity="0.7" clip-path="url(#clip2_36_33)">
<rect x="84.2992" y="12.5" width="0.8" height="10" fill="#9D9D9D"/>
</g>
<path opacity="0.7" d="M89.76 20.901V13.938H94.93V15.368H91.52V16.688H94.479V18.118H91.52V19.471H94.93V20.901H89.76ZM100.318 13.938H102.078V20.901H100.329L98.3489 17.953C98.1949 17.7183 98.0665 17.5203 97.9639 17.359C97.8612 17.1977 97.7659 17.0363 97.6779 16.875C97.5899 16.7137 97.4909 16.523 97.3809 16.303L97.3479 16.347C97.4505 16.699 97.5129 17.029 97.5349 17.337C97.5569 17.6377 97.5679 17.931 97.5679 18.217V20.901H95.8079V13.938H97.5569L99.5369 16.886C99.6909 17.1133 99.8192 17.3113 99.9219 17.48C100.025 17.6413 100.12 17.8027 100.208 17.964C100.296 18.1253 100.395 18.316 100.505 18.536L100.538 18.492C100.465 18.184 100.41 17.887 100.373 17.601C100.336 17.3077 100.318 17.018 100.318 16.732V13.938ZM105.163 20.901H103.403V13.938H108.573V15.368H105.163V16.963H108.353V18.393H105.163V20.901ZM111.465 13.938H113.225V18.349C113.225 19.2437 113.034 19.911 112.653 20.351C112.271 20.7837 111.626 21 110.717 21C110.343 21 110.027 20.9817 109.771 20.945C109.514 20.9083 109.243 20.8423 108.957 20.747V19.24L109.001 19.218C109.228 19.2913 109.441 19.3463 109.639 19.383C109.837 19.4197 110.082 19.438 110.376 19.438C110.684 19.438 110.915 19.405 111.069 19.339C111.23 19.2657 111.336 19.1373 111.388 18.954C111.446 18.7707 111.476 18.5067 111.476 18.162L111.465 13.938Z" fill="#9D9D9D"/>
<rect x="122.4" y="8.3" width="32.4" height="18.4" rx="9.2" stroke="#252525" stroke-width="0.6"/>
<path d="M136.756 13.4H137.428V18.68H136.756V13.4ZM132.78 19.92H137.644V20.464H132.78V19.92ZM132.78 18.136H133.436V20.104H132.78V18.136ZM133.548 13.896C134.628 13.896 135.428 14.632 135.428 15.68C135.428 16.72 134.628 17.464 133.548 17.464C132.468 17.464 131.66 16.72 131.66 15.68C131.66 14.632 132.468 13.896 133.548 13.896ZM133.548 14.472C132.844 14.472 132.308 14.968 132.308 15.68C132.308 16.384 132.844 16.88 133.548 16.88C134.252 16.88 134.788 16.384 134.788 15.68C134.788 14.968 134.252 14.472 133.548 14.472ZM144.107 13.392H144.771V20.64H144.107V13.392ZM139.323 18.28H139.907C141.339 18.28 142.267 18.232 143.339 18.032L143.411 18.592C142.307 18.8 141.363 18.84 139.907 18.84H139.323V18.28ZM139.323 14.08H142.739V14.632H139.979V18.488H139.323V14.08Z" fill="#252525"/>
<path d="M347.578 17.636V16.064C347.858 15.888 348.226 15.744 348.682 15.632C349.138 15.52 349.634 15.464 350.17 15.464C351.026 15.464 351.71 15.632 352.222 15.968C352.742 16.304 353.002 16.872 353.002 17.672C353.002 18.304 352.854 18.812 352.558 19.196C352.27 19.572 351.758 19.9 351.022 20.18C350.31 20.452 349.818 20.684 349.546 20.876C349.282 21.06 349.15 21.244 349.15 21.428H353.062V22.952H347.374V21.608C347.374 21.2 347.442 20.852 347.578 20.564C347.722 20.276 347.966 20.012 348.31 19.772C348.654 19.532 349.13 19.284 349.738 19.028C350.194 18.836 350.55 18.652 350.806 18.476C351.07 18.292 351.198 18.072 351.19 17.816C351.182 17.512 351.066 17.3 350.842 17.18C350.626 17.052 350.318 16.988 349.918 16.988C349.534 16.988 349.142 17.056 348.742 17.192C348.342 17.32 347.99 17.468 347.686 17.636H347.578ZM359.033 17.42C358.809 17.308 358.537 17.22 358.217 17.156C357.905 17.092 357.585 17.06 357.257 17.06C356.649 17.06 356.217 17.176 355.961 17.408C355.705 17.64 355.553 18.04 355.505 18.608H355.517C355.685 18.528 355.909 18.464 356.189 18.416C356.469 18.368 356.785 18.344 357.137 18.344C357.913 18.344 358.505 18.528 358.913 18.896C359.321 19.264 359.525 19.816 359.525 20.552C359.525 21.08 359.441 21.528 359.273 21.896C359.105 22.256 358.817 22.532 358.409 22.724C358.009 22.908 357.449 23 356.729 23C355.945 23 355.333 22.864 354.893 22.592C354.461 22.32 354.157 21.908 353.981 21.356C353.805 20.804 353.717 20.108 353.717 19.268C353.717 18.388 353.845 17.672 354.101 17.12C354.365 16.56 354.729 16.152 355.193 15.896C355.657 15.632 356.201 15.5 356.825 15.5C357.353 15.5 357.801 15.544 358.169 15.632C358.537 15.72 358.841 15.816 359.081 15.92V17.396L359.033 17.42ZM356.729 21.536C357.169 21.536 357.465 21.464 357.617 21.32C357.769 21.176 357.845 20.94 357.845 20.612C357.845 20.26 357.757 20.02 357.581 19.892C357.405 19.756 357.117 19.688 356.717 19.688C356.469 19.688 356.233 19.716 356.009 19.772C355.785 19.828 355.613 19.9 355.493 19.988C355.485 20.596 355.573 21.008 355.757 21.224C355.949 21.432 356.273 21.536 356.729 21.536ZM360.412 18.812H370.24V19.628H360.412V18.812ZM364.9 19.22H365.896V21.716H364.9V19.22ZM361.66 22.88H369.148V23.696H361.66V22.88ZM361.66 20.756H362.644V23.192H361.66V20.756ZM361.72 13.424H362.704V14.804H367.948V13.424H368.944V17.768H361.72V13.424ZM362.704 15.584V16.964H367.948V15.584H362.704ZM380.809 16.076H383.545V16.892H380.809V16.076ZM382.981 13.1H383.977V21.044H382.981V13.1ZM377.053 22.88H384.277V23.696H377.053V22.88ZM377.053 20.348H378.049V23.3H377.053V20.348ZM377.821 14.444H378.637V15.32C378.637 17.288 377.413 18.992 375.601 19.664L375.085 18.872C376.705 18.296 377.821 16.856 377.821 15.32V14.444ZM378.013 14.444H378.817V15.308C378.817 16.712 379.873 18.08 381.445 18.632L380.941 19.412C379.177 18.776 378.013 17.144 378.013 15.308V14.444ZM375.397 13.976H381.193V14.78H375.397V13.976Z" fill="#9D9D9D"/>
<defs>
<linearGradient id="paint0_linear_36_33" x1="200" y1="0" x2="200" y2="138" gradientUnits="userSpaceOnUse">
<stop stop-color="#FCFFD8"/>
<stop offset="1" stop-color="#EAD3FC"/>
</linearGradient>
<clipPath id="clip0_36_33">
<rect x="10.5" y="30" width="379" height="97" rx="8" fill="white"/>
</clipPath>
<clipPath id="clip1_36_33">
<rect width="0.8" height="12" fill="white" transform="matrix(-1 0 0 1 54.3 11.5)"/>
</clipPath>
<clipPath id="clip2_36_33">
<rect width="0.8" height="12" fill="white" transform="matrix(-1 0 0 1 85.1 11.5)"/>
</clipPath>
</defs>
</svg>
